SplineFontDB: 3.2
FontName: Entity-Regular
FullName: Entity Regular
FamilyName: Entity
Weight: Regular
Copyright: Based on Geist Copyright 2024 The Geist Project Authors https:github.comvercelgeist-font.git
Version: 0.1
ItalicAngle: 0
UnderlinePosition: -125
UnderlineWidth: 50
Ascent: 800
Descent: 200
InvalidEm: 0
sfntRevision: 0x0000199a
LayerCount: 2
Layer: 0 0 "Back" 1
Layer: 1 0 "Fore" 0
XUID: [1021 1008 -1557834819 16024705]
StyleMap: 0x0040
FSType: 0
OS2Version: 4
OS2_WeightWidthSlopeOnly: 0
OS2_UseTypoMetrics: 1
CreationTime: 1728311655
ModificationTime: 1746816638
PfmFamily: 81
TTFWeight: 400
TTFWidth: 5
LineGap: 0
VLineGap: 0
Panose: 0 0 0 0 0 0 0 0 0 0
OS2TypoAscent: 1005
OS2TypoAOffset: 0
OS2TypoDescent: -295
OS2TypoDOffset: 0
OS2TypoLinegap: 0
OS2WinAscent: 1012
OS2WinAOffset: 0
OS2WinDescent: 262
OS2WinDOffset: 0
HheadAscent: 1005
HheadAOffset: 0
HheadDescent: -295
HheadDOffset: 0
OS2SubXSize: 650
OS2SubYSize: 600
OS2SubXOff: 0
OS2SubYOff: 75
OS2SupXSize: 650
OS2SupYSize: 600
OS2SupXOff: 0
OS2SupYOff: 350
OS2StrikeYSize: 50
OS2StrikeYPos: 318
OS2CapHeight: 710
OS2XHeight: 530
OS2Vendor: 'VRCL'
OS2CodePages: 20000097.00000000
OS2UnicodeRanges: a10002ff.5001e5fb.00000000.00000000
Lookup: 1 0 0 "'aalt' Access All Alternates in Latin lookup 0" { "'aalt' Access All Alternates in Latin lookup 0 subtable"  } ['aalt' ('DFLT' <'dflt' > 'latn' <'AZE ' 'CAT ' 'CRT ' 'KAZ ' 'MAH ' 'MOL ' 'NLD ' 'ROM ' 'TAT ' 'TRK ' 'dflt' > ) ]
Lookup: 3 0 0 "'aalt' Access All Alternates in Latin lookup 1" { "'aalt' Access All Alternates in Latin lookup 1 subtable"  } ['aalt' ('DFLT' <'dflt' > 'latn' <'AZE ' 'CAT ' 'CRT ' 'KAZ ' 'MAH ' 'MOL ' 'NLD ' 'ROM ' 'TAT ' 'TRK ' 'dflt' > ) ]

StartChar: .notdef
Encoding: 65536 -1 0
Width: 600
GlyphClass: 1
Flags: MW
HStem: 0 36<95 510 95 565> 674 36<95 95 95 510>
VStem: 40 33<64 646 64 710> 532 33<64 646 646 646>
LayerCount: 2
Fore
SplineSet
40 0 m 1
 40 710 l 1
 565 710 l 1
 565 0 l 1
 40 0 l 1
95 674 m 1
 303 384 l 1
 510 674 l 1
 95 674 l 1
73 646 m 1
 73 64 l 1
 282 355 l 1
 73 646 l 1
323 355 m 1
 532 64 l 1
 532 646 l 1
 323 355 l 1
95 36 m 1
 510 36 l 1
 303 326 l 1
 95 36 l 1
EndSplineSet
EndChar

StartChar: A
Encoding: 65 65 1
Width: 668
GlyphClass: 2
Flags: MW
HStem: 0 21G<20 20 20 114 554 554 554 648> 202 84<214 454 214 483 185 454> 635 75<334 334> 690 20G<276 392 392 392>
VStem: 20 628<0 0>
AnchorPoint: "Anchor-3" 334 710 basechar 0
AnchorPoint: "Anchor-2" 648 0 basechar 0
AnchorPoint: "Anchor-0" 334 0 basechar 0
LayerCount: 2
Fore
SplineSet
20 0 m 1xd8
 276 710 l 1
 392 710 l 1
 648 0 l 1
 554 0 l 1
 483 202 l 1
 185 202 l 1
 114 0 l 1
 20 0 l 1xd8
214 286 m 1
 454 286 l 1
 334 635 l 1xe8
 214 286 l 1
EndSplineSet
Substitution2: "Single Substitution lookup 27 subtable" ordfeminine
Substitution2: "'aalt' Access All Alternates in Latin lookup 0 subtable" ordfeminine
EndChar

StartChar: Aacute
Encoding: 193 193 2
Width: 668
GlyphClass: 2
Flags: MW
HStem: 0 21G<20 20 20 114 554 554 554 648> 202 84<214 454 214 483 185 454> 635 75<334 334> 690 20G<276 392 392 392> 778 128<297 457 363 367>
VStem: 20 628<0 0>
AnchorPoint: "Anchor-3" 334 710 basechar 0
AnchorPoint: "Anchor-2" 648 0 basechar 0
AnchorPoint: "Anchor-0" 334 0 basechar 0
LayerCount: 2
Fore
SplineSet
297 778 m 1xdc
 363 906 l 1
 457 906 l 1
 367 778 l 1
 297 778 l 1xdc
20 0 m 1
 276 710 l 1
 392 710 l 1
 648 0 l 1
 554 0 l 1
 483 202 l 1
 185 202 l 1
 114 0 l 1
 20 0 l 1
214 286 m 1
 454 286 l 1
 334 635 l 1xec
 214 286 l 1
EndSplineSet
EndChar

StartChar: Abreve
Encoding: 258 258 3
Width: 668
GlyphClass: 2
Flags: MW
HStem: 0 21G<20 20 20 114 554 554 554 648> 202 84<214 454 214 483 185 454> 635 75<334 334> 690 20G<276 392 392 392> 783 62<311 357 311 375>
VStem: 20 628<0 0>
AnchorPoint: "Anchor-3" 334 710 basechar 0
AnchorPoint: "Anchor-2" 648 0 basechar 0
AnchorPoint: "Anchor-0" 334 0 basechar 0
LayerCount: 2
Fore
SplineSet
334 783 m 0xdc
 252 783 198 833 194 911 c 1
 252 911 l 1
 258 865 288 845 334 845 c 0
 380 845 409 865 415 911 c 1
 473 911 l 1
 469 833 416 783 334 783 c 0xdc
20 0 m 1
 276 710 l 1
 392 710 l 1
 648 0 l 1
 554 0 l 1
 483 202 l 1
 185 202 l 1
 114 0 l 1
 20 0 l 1
214 286 m 1
 454 286 l 1
 334 635 l 1xec
 214 286 l 1
EndSplineSet
EndChar

StartChar: uni01CD
Encoding: 461 461 4
Width: 668
GlyphClass: 2
Flags: MW
HStem: 0 21G<20 20 20 114 554 554 554 648> 202 84<214 454 214 483 185 454> 635 75<334 334> 690 20G<276 392 392 392> 778 133<197 381 197 287>
VStem: 20 628<0 0>
AnchorPoint: "Anchor-3" 334 710 basechar 0
AnchorPoint: "Anchor-2" 648 0 basechar 0
AnchorPoint: "Anchor-0" 334 0 basechar 0
LayerCount: 2
Fore
SplineSet
197 911 m 1xdc
 267 911 l 1
 334 822 l 1
 401 911 l 1
 471 911 l 1
 381 778 l 1
 287 778 l 1
 197 911 l 1xdc
20 0 m 1
 276 710 l 1
 392 710 l 1
 648 0 l 1
 554 0 l 1
 483 202 l 1
 185 202 l 1
 114 0 l 1
 20 0 l 1
214 286 m 1
 454 286 l 1
 334 635 l 1xec
 214 286 l 1
EndSplineSet
EndChar

StartChar: Acircumflex
Encoding: 194 194 5
Width: 668
GlyphClass: 2
Flags: MW
HStem: 0 21G<20 20 20 114 554 554 554 648> 202 84<214 454 214 483 185 454> 635 75<334 334> 690 20G<276 392 392 392> 778 133<197 381 197 381 287 401 287 471>
VStem: 20 628<0 0>
AnchorPoint: "Anchor-3" 334 710 basechar 0
AnchorPoint: "Anchor-2" 648 0 basechar 0
AnchorPoint: "Anchor-0" 334 0 basechar 0
LayerCount: 2
Fore
SplineSet
197 778 m 1xdc
 287 911 l 1
 381 911 l 1
 471 778 l 1
 401 778 l 1
 334 867 l 1
 267 778 l 1
 197 778 l 1xdc
20 0 m 1
 276 710 l 1
 392 710 l 1
 648 0 l 1
 554 0 l 1
 483 202 l 1
 185 202 l 1
 114 0 l 1
 20 0 l 1
214 286 m 1
 454 286 l 1
 334 635 l 1xec
 214 286 l 1
EndSplineSet
EndChar

StartChar: Adieresis
Encoding: 196 196 6
Width: 668
GlyphClass: 2
Flags: MW
HStem: 0 21G<20 20 20 114 554 554 554 648> 202 84<214 454 214 483 185 454> 635 75<334 334> 690 20G<276 392 392 392> 793 98<203 291 203 291 377 465 203 377>
VStem: 203 88<793 891 793 891> 377 88<793 891 793 891>
AnchorPoint: "Anchor-3" 334 710 basechar 0
AnchorPoint: "Anchor-2" 648 0 basechar 0
AnchorPoint: "Anchor-0" 334 0 basechar 0
LayerCount: 2
Fore
SplineSet
203 793 m 1xde
 203 891 l 1
 291 891 l 1
 291 793 l 1
 203 793 l 1xde
377 793 m 1
 377 891 l 1
 465 891 l 1
 465 793 l 1
 377 793 l 1
20 0 m 1
 276 710 l 1
 392 710 l 1
 648 0 l 1
 554 0 l 1
 483 202 l 1
 185 202 l 1
 114 0 l 1
 20 0 l 1
214 286 m 1
 454 286 l 1
 334 635 l 1xee
 214 286 l 1
EndSplineSet
Substitution2: "'ss08' Style Set 8 in Latin lookup 41 subtable" Adieresis.ss08
Substitution2: "'aalt' Access All Alternates in Latin lookup 0 subtable" Adieresis.ss08
EndChar

StartChar: Agrave
Encoding: 192 192 7
Width: 668
GlyphClass: 2
Flags: MW
HStem: 0 21G<20 20 20 114 554 554 554 648> 202 84<214 454 214 483 185 454> 635 75<334 334> 690 20G<276 392 392 392> 783 128<303 303 303 307 213 373>
VStem: 20 628<0 0>
AnchorPoint: "Anchor-3" 334 710 basechar 0
AnchorPoint: "Anchor-2" 648 0 basechar 0
AnchorPoint: "Anchor-0" 334 0 basechar 0
LayerCount: 2
Fore
SplineSet
303 783 m 1xdc
 213 911 l 1
 307 911 l 1
 373 783 l 1
 303 783 l 1xdc
20 0 m 1
 276 710 l 1
 392 710 l 1
 648 0 l 1
 554 0 l 1
 483 202 l 1
 185 202 l 1
 114 0 l 1
 20 0 l 1
214 286 m 1
 454 286 l 1
 334 635 l 1xec
 214 286 l 1
EndSplineSet
EndChar

StartChar: Amacron
Encoding: 256 256 8
Width: 668
GlyphClass: 2
Flags: MW
HStem: 0 21G<20 20 20 114 554 554 554 648> 202 84<214 454 214 483 185 454> 635 75<334 334> 690 20G<276 392 392 392> 805 72<200 468 200 468>
VStem: 20 628<0 0> 200 268<805 877 805 877>
AnchorPoint: "Anchor-3" 334 710 basechar 0
AnchorPoint: "Anchor-2" 648 0 basechar 0
AnchorPoint: "Anchor-0" 334 0 basechar 0
LayerCount: 2
Fore
SplineSet
200 805 m 1xda
 200 877 l 1
 468 877 l 1
 468 805 l 1
 200 805 l 1xda
20 0 m 1
 276 710 l 1
 392 710 l 1
 648 0 l 1
 554 0 l 1
 483 202 l 1
 185 202 l 1
 114 0 l 1xdc
 20 0 l 1
214 286 m 1
 454 286 l 1
 334 635 l 1xec
 214 286 l 1
EndSplineSet
EndChar

StartChar: Aogonek
Encoding: 260 260 9
Width: 668
GlyphClass: 2
Flags: MW
HStem: -210 68<602.5 614.5> 0 21G<20 20 20 114 554 554 554 578 648 648> 202 84<214 454 214 483 185 454> 635 75<334 334> 690 20G<276 392 392 392>
VStem: 504 78<-124 -121>
AnchorPoint: "Anchor-3" 334 710 basechar 0
AnchorPoint: "Anchor-2" 648 0 basechar 0
AnchorPoint: "Anchor-0" 334 0 basechar 0
LayerCount: 2
Fore
SplineSet
20 0 m 1xec
 276 710 l 1
 392 710 l 1
 648 0 l 1
 613 -48 l 2
 588 -83 582 -100 582 -116 c 0
 582 -132 594 -142 611 -142 c 0
 630 -142 646 -137 659 -128 c 1
 683 -184 l 1
 668 -199 632 -210 597 -210 c 0
 540 -210 504 -186 504 -140 c 0
 504 -102 534 -59 561 -22 c 2
 578 0 l 1
 554 0 l 1
 483 202 l 1
 185 202 l 1
 114 0 l 1
 20 0 l 1xec
214 286 m 1
 454 286 l 1
 334 635 l 1xf4
 214 286 l 1
EndSplineSet
EndChar

StartChar: Aring
Encoding: 197 197 10
Width: 669
GlyphClass: 2
Flags: MW
HStem: 0 21G<19 19 19 113 553 553 553 647> 202 84<213 453 213 482 184 453> 635 75<333 333> 690 20G<275 391 391 391> 756 50<318 342 318 356> 890 50<318 342>
VStem: 238 50<836 860 836 874> 372 50<836 860>
AnchorPoint: "Anchor-3" 333 710 basechar 0
AnchorPoint: "Anchor-2" 647 0 basechar 0
AnchorPoint: "Anchor-0" 333 0 basechar 0
LayerCount: 2
Fore
SplineSet
330 756 m 0xdf
 278 756 238 796 238 848 c 0
 238 900 278 940 330 940 c 0
 382 940 422 900 422 848 c 0
 422 796 382 756 330 756 c 0xdf
330 806 m 0
 354 806 372 824 372 848 c 0
 372 872 354 890 330 890 c 0
 306 890 288 872 288 848 c 0
 288 824 306 806 330 806 c 0
19 0 m 1
 275 710 l 1
 391 710 l 1
 647 0 l 1
 553 0 l 1
 482 202 l 1
 184 202 l 1
 113 0 l 1
 19 0 l 1
213 286 m 1
 453 286 l 1
 333 635 l 1xef
 213 286 l 1
EndSplineSet
EndChar

StartChar: Atilde
Encoding: 195 195 11
Width: 669
GlyphClass: 2
Flags: MW
HStem: 0 21G<19 19 19 113 553 553 553 647> 202 84<213 453 213 482 184 453> 635 75<333 333> 690 20G<275 391 391 391> 790 56<376 396.5 376 408.5> 844 56<246 268>
VStem: 163 52<783 783> 426 52<910 910>
AnchorPoint: "Anchor-3" 333 710 basechar 0
AnchorPoint: "Anchor-2" 647 0 basechar 0
AnchorPoint: "Anchor-0" 333 0 basechar 0
LayerCount: 2
Fore
SplineSet
380 790 m 0xdb
 354 790 332 800 310 818 c 0
 287 837 278 844 258 844 c 0
 234 844 217 831 215 783 c 1
 163 783 l 1
 165 860 204 900 258 900 c 0xd7
 290 900 311 889 334 870 c 0
 355 853 368 846 384 846 c 0
 409 846 422 860 426 910 c 1
 478 910 l 1
 474 834 437 790 380 790 c 0xdb
19 0 m 1
 275 710 l 1
 391 710 l 1
 647 0 l 1
 553 0 l 1
 482 202 l 1
 184 202 l 1
 113 0 l 1
 19 0 l 1
213 286 m 1
 453 286 l 1
 333 635 l 1xe7
 213 286 l 1
EndSplineSet
EndChar

StartChar: AE
Encoding: 198 198 12
Width: 972
GlyphClass: 2
Flags: MW
HStem: 0 84<579 915 579 915> 202 84<265 493 265 493 221 493> 315 82<579 895 579 895> 626 84<579 907 579 579> 629 81<442 493 442 442>
VStem: 493 86<84 202 202 202 286 315 397 626>
AnchorPoint: "Anchor-3" 509 710 basechar 0
AnchorPoint: "Anchor-0" 509 0 basechar 0
LayerCount: 2
Fore
SplineSet
20 0 m 1xd4
 400 710 l 1
 907 710 l 1
 907 626 l 1
 579 626 l 1
 579 397 l 1
 895 397 l 1
 895 315 l 1
 579 315 l 1xb4
 579 84 l 1
 915 84 l 1
 915 0 l 1
 493 0 l 1
 493 202 l 1
 221 202 l 1
 117 0 l 1
 20 0 l 1xd4
493 629 m 1xcc
 442 629 l 1
 265 286 l 1
 493 286 l 1
 493 629 l 1xcc
EndSplineSet
EndChar

StartChar: B
Encoding: 66 66 13
Width: 680
GlyphClass: 2
Flags: MW
HStem: 0 84<178 376 178 376> 319 84<178 336 336 376 178 336> 626 84<178 336 178 178>
VStem: 92 86<84 84 84 319 403 626> 498 90<479.5 552.5> 528 90<162.5 237.5>
AnchorPoint: "Anchor-3" 340 710 basechar 0
AnchorPoint: "Anchor-0" 340 0 basechar 0
LayerCount: 2
Fore
SplineSet
92 0 m 1xf4
 92 710 l 1
 336 710 l 2
 504 710 588 651 588 519 c 0xf8
 588 439 541 381 462 367 c 1
 559 353 618 287 618 195 c 0
 618 66 531 0 376 0 c 2
 92 0 l 1xf4
178 403 m 1
 336 403 l 2
 440 403 498 444 498 515 c 0
 498 590 444 626 336 626 c 2
 178 626 l 1
 178 403 l 1
178 84 m 1
 376 84 l 2
 473 84 528 125 528 200 c 0xf4
 528 275 473 319 376 319 c 2
 178 319 l 1
 178 84 l 1
EndSplineSet
EndChar

StartChar: C
Encoding: 67 67 14
Width: 703
GlyphClass: 2
Flags: MW
HStem: -16 84<296 426 296 449> 642 84<296 423>
VStem: 45 90<264 444 264 469>
AnchorPoint: "Anchor-3" 362 710 basechar 0
AnchorPoint: "Anchor-0" 366 0 basechar 0
LayerCount: 2
Fore
SplineSet
364 -16 m 0
 174 -16 45 124 45 354 c 0
 45 584 174 726 364 726 c 0
 536 726 627 633 657 484 c 1
 566 478 l 1
 546 579 482 642 364 642 c 0
 228 642 135 534 135 354 c 0
 135 174 228 68 364 68 c 0
 488 68 554 137 572 248 c 1
 663 242 l 1
 637 88 534 -16 364 -16 c 0
EndSplineSet
EndChar

StartChar: Cacute
Encoding: 262 262 15
Width: 703
GlyphClass: 2
Flags: MW
HStem: -16 84<296 426 296 449> 642 84<296 423> 778 128<325 485 391 395>
VStem: 45 90<264 444 264 469>
AnchorPoint: "Anchor-3" 362 710 basechar 0
AnchorPoint: "Anchor-0" 366 0 basechar 0
LayerCount: 2
Fore
SplineSet
325 778 m 1
 391 906 l 1
 485 906 l 1
 395 778 l 1
 325 778 l 1
364 -16 m 0
 174 -16 45 124 45 354 c 0
 45 584 174 726 364 726 c 0
 536 726 627 633 657 484 c 1
 566 478 l 1
 546 579 482 642 364 642 c 0
 228 642 135 534 135 354 c 0
 135 174 228 68 364 68 c 0
 488 68 554 137 572 248 c 1
 663 242 l 1
 637 88 534 -16 364 -16 c 0
EndSplineSet
EndChar

StartChar: Ccaron
Encoding: 268 268 16
Width: 703
GlyphClass: 2
Flags: MW
HStem: -16 84<296 426 296 449> 642 84<296 423> 778 133<225 409 225 315>
VStem: 45 90<264 444 264 469>
AnchorPoint: "Anchor-3" 362 710 basechar 0
AnchorPoint: "Anchor-0" 366 0 basechar 0
LayerCount: 2
Fore
SplineSet
225 911 m 1
 295 911 l 1
 362 822 l 1
 429 911 l 1
 499 911 l 1
 409 778 l 1
 315 778 l 1
 225 911 l 1
364 -16 m 0
 174 -16 45 124 45 354 c 0
 45 584 174 726 364 726 c 0
 536 726 627 633 657 484 c 1
 566 478 l 1
 546 579 482 642 364 642 c 0
 228 642 135 534 135 354 c 0
 135 174 228 68 364 68 c 0
 488 68 554 137 572 248 c 1
 663 242 l 1
 637 88 534 -16 364 -16 c 0
EndSplineSet
EndChar

StartChar: Ccedilla
Encoding: 199 199 17
Width: 703
GlyphClass: 2
Flags: MW
HStem: -220 56<337.5 371 337.5 388.5> -80 44<332 372> -80 148<332 364> -14 21G<327 327> -14 82<327 327> 642 84<296 423>
VStem: 45 90<264 444 264 469> 408 60<-136.5 -111.5>
AnchorPoint: "Anchor-3" 362 710 basechar 0
AnchorPoint: "Anchor-0" 366 0 basechar 0
LayerCount: 2
Fore
SplineSet
356 -220 m 0xc7
 292 -220 253 -186 239 -142 c 1
 290 -122 l 1
 302 -152 321 -164 354 -164 c 0
 388 -164 408 -149 408 -124 c 0
 408 -99 396 -80 332 -80 c 1xa7
 304 -50 l 1
 327 -14 l 1x97
 157 3 45 139 45 354 c 0
 45 584 174 726 364 726 c 0
 536 726 627 633 657 484 c 1
 566 478 l 1
 546 579 482 642 364 642 c 0
 228 642 135 534 135 354 c 0
 135 174 228 68 364 68 c 0x8f
 488 68 554 137 572 248 c 1
 663 242 l 1
 638 95 543 -6 387 -15 c 1
 372 -36 l 1
 437 -39 468 -74 468 -126 c 0
 468 -182 421 -220 356 -220 c 0xc7
EndSplineSet
EndChar

StartChar: Ccircumflex
Encoding: 264 264 18
Width: 703
GlyphClass: 2
Flags: MW
HStem: -16 84<296 426 296 449> 642 84<296 423> 778 133<225 409 225 409 315 429 315 499>
VStem: 45 90<264 444 264 469>
AnchorPoint: "Anchor-3" 362 710 basechar 0
AnchorPoint: "Anchor-0" 366 0 basechar 0
LayerCount: 2
Fore
SplineSet
225 778 m 1
 315 911 l 1
 409 911 l 1
 499 778 l 1
 429 778 l 1
 362 867 l 1
 295 778 l 1
 225 778 l 1
364 -16 m 0
 174 -16 45 124 45 354 c 0
 45 584 174 726 364 726 c 0
 536 726 627 633 657 484 c 1
 566 478 l 1
 546 579 482 642 364 642 c 0
 228 642 135 534 135 354 c 0
 135 174 228 68 364 68 c 0
 488 68 554 137 572 248 c 1
 663 242 l 1
 637 88 534 -16 364 -16 c 0
EndSplineSet
EndChar

StartChar: Cdotaccent
Encoding: 266 266 19
Width: 703
GlyphClass: 2
Flags: MW
HStem: -16 84<296 426 296 449> 642 84<296 423> 793 98<318 406 318 406>
VStem: 45 90<264 444 264 469> 318 88<793 891 793 891>
AnchorPoint: "Anchor-3" 362 710 basechar 0
AnchorPoint: "Anchor-0" 366 0 basechar 0
LayerCount: 2
Fore
SplineSet
318 793 m 1
 318 891 l 1
 406 891 l 1
 406 793 l 1
 318 793 l 1
364 -16 m 0
 174 -16 45 124 45 354 c 0
 45 584 174 726 364 726 c 0
 536 726 627 633 657 484 c 1
 566 478 l 1
 546 579 482 642 364 642 c 0
 228 642 135 534 135 354 c 0
 135 174 228 68 364 68 c 0
 488 68 554 137 572 248 c 1
 663 242 l 1
 637 88 534 -16 364 -16 c 0
EndSplineSet
Substitution2: "'ss08' Style Set 8 in Latin lookup 41 subtable" Cdotaccent.ss08
Substitution2: "'aalt' Access All Alternates in Latin lookup 0 subtable" Cdotaccent.ss08
EndChar

StartChar: D
Encoding: 68 68 20
Width: 698
GlyphClass: 2
Flags: MW
HStem: 0 84<178 312 312 318> 626 84<178 312 178 178>
VStem: 92 86<84 84 84 626> 563 90<264 445>
AnchorPoint: "Anchor-3" 323 710 basechar 0
AnchorPoint: "Anchor-1" 200 355 basechar 0
AnchorPoint: "Anchor-0" 323 0 basechar 0
LayerCount: 2
Fore
SplineSet
92 0 m 1
 92 710 l 1
 312 710 l 2
 530 710 653 582 653 354 c 0
 653 127 533 0 318 0 c 2
 92 0 l 1
178 84 m 1
 312 84 l 2
 479 84 563 174 563 354 c 0
 563 536 479 626 312 626 c 2
 178 626 l 1
 178 84 l 1
EndSplineSet
EndChar

StartChar: Dcaron
Encoding: 270 270 21
Width: 698
GlyphClass: 2
Flags: MW
HStem: 0 84<178 312 312 318> 626 84<178 312 178 178> 778 133<186 370 186 276>
VStem: 92 86<84 84 84 626> 563 90<264 445>
AnchorPoint: "Anchor-3" 323 710 basechar 0
AnchorPoint: "Anchor-1" 200 355 basechar 0
AnchorPoint: "Anchor-0" 323 0 basechar 0
LayerCount: 2
Fore
SplineSet
186 911 m 1
 256 911 l 1
 323 822 l 1
 390 911 l 1
 460 911 l 1
 370 778 l 1
 276 778 l 1
 186 911 l 1
92 0 m 1
 92 710 l 1
 312 710 l 2
 530 710 653 582 653 354 c 0
 653 127 533 0 318 0 c 2
 92 0 l 1
178 84 m 1
 312 84 l 2
 479 84 563 174 563 354 c 0
 563 536 479 626 312 626 c 2
 178 626 l 1
 178 84 l 1
EndSplineSet
EndChar

StartChar: Dcroat
Encoding: 272 272 22
Width: 698
GlyphClass: 2
Flags: MW
HStem: 0 84<178 312 312 318> 316 78<20 92 20 92 178 380> 626 84<178 312 178 178>
VStem: 92 86<84 84 84 316 394 626> 563 90<264 445>
AnchorPoint: "Anchor-3" 323 710 basechar 0
AnchorPoint: "Anchor-1" 200 355 basechar 0
AnchorPoint: "Anchor-0" 323 0 basechar 0
LayerCount: 2
Fore
SplineSet
92 0 m 1
 92 316 l 1
 20 316 l 1
 20 394 l 1
 92 394 l 1
 92 710 l 1
 312 710 l 2
 530 710 653 582 653 354 c 0
 653 127 533 0 318 0 c 2
 92 0 l 1
178 84 m 1
 312 84 l 2
 479 84 563 174 563 354 c 0
 563 536 479 626 312 626 c 2
 178 626 l 1
 178 394 l 1
 380 394 l 1
 380 316 l 1
 178 316 l 1
 178 84 l 1
EndSplineSet
EndChar

StartChar: Eth
Encoding: 208 208 23
Width: 698
GlyphClass: 2
Flags: MW
HStem: 0 84<178 312 312 318> 316 78<20 92 20 92 178 380> 626 84<178 312 178 178>
VStem: 92 86<84 84 84 316 394 626> 563 90<264 445>
AnchorPoint: "Anchor-3" 323 710 basechar 0
AnchorPoint: "Anchor-1" 200 355 basechar 0
AnchorPoint: "Anchor-0" 323 0 basechar 0
LayerCount: 2
Fore
SplineSet
92 0 m 1
 92 316 l 1
 20 316 l 1
 20 394 l 1
 92 394 l 1
 92 710 l 1
 312 710 l 2
 530 710 653 582 653 354 c 0
 653 127 533 0 318 0 c 2
 92 0 l 1
178 84 m 1
 312 84 l 2
 479 84 563 174 563 354 c 0
 563 536 479 626 312 626 c 2
 178 626 l 1
 178 394 l 1
 380 394 l 1
 380 316 l 1
 178 316 l 1
 178 84 l 1
EndSplineSet
EndChar

StartChar: E
Encoding: 69 69 24
Width: 603
GlyphClass: 2
Flags: MW
HStem: 0 84<178 546 178 546> 315 82<178 526 178 526> 626 84<178 538 178 178>
VStem: 92 86<84 315 397 626>
AnchorPoint: "Anchor-3" 317 710 basechar 0
AnchorPoint: "Anchor-2" 546 0 basechar 0
AnchorPoint: "Anchor-0" 319 0 basechar 0
LayerCount: 2
Fore
SplineSet
92 0 m 1
 92 710 l 1
 538 710 l 1
 538 626 l 1
 178 626 l 1
 178 397 l 1
 526 397 l 1
 526 315 l 1
 178 315 l 1
 178 84 l 1
 546 84 l 1
 546 0 l 1
 92 0 l 1
EndSplineSet
EndChar

StartChar: Eacute
Encoding: 201 201 25
Width: 603
GlyphClass: 2
Flags: MW
HStem: 0 84<178 546 178 546> 315 82<178 526 178 526> 626 84<178 538 178 178> 778 128<280 440 346 350>
VStem: 92 86<84 315 397 626>
AnchorPoint: "Anchor-3" 317 710 basechar 0
AnchorPoint: "Anchor-2" 546 0 basechar 0
AnchorPoint: "Anchor-0" 319 0 basechar 0
LayerCount: 2
Fore
SplineSet
280 778 m 1
 346 906 l 1
 440 906 l 1
 350 778 l 1
 280 778 l 1
92 0 m 1
 92 710 l 1
 538 710 l 1
 538 626 l 1
 178 626 l 1
 178 397 l 1
 526 397 l 1
 526 315 l 1
 178 315 l 1
 178 84 l 1
 546 84 l 1
 546 0 l 1
 92 0 l 1
EndSplineSet
EndChar

StartChar: Ecaron
Encoding: 282 282 26
Width: 603
GlyphClass: 2
Flags: MW
HStem: 0 84<178 546 178 546> 315 82<178 526 178 526> 626 84<178 538 178 178> 778 133<180 364 180 270>
VStem: 92 86<84 315 397 626>
AnchorPoint: "Anchor-3" 317 710 basechar 0
AnchorPoint: "Anchor-2" 546 0 basechar 0
AnchorPoint: "Anchor-0" 319 0 basechar 0
LayerCount: 2
Fore
SplineSet
180 911 m 1
 250 911 l 1
 317 822 l 1
 384 911 l 1
 454 911 l 1
 364 778 l 1
 270 778 l 1
 180 911 l 1
92 0 m 1
 92 710 l 1
 538 710 l 1
 538 626 l 1
 178 626 l 1
 178 397 l 1
 526 397 l 1
 526 315 l 1
 178 315 l 1
 178 84 l 1
 546 84 l 1
 546 0 l 1
 92 0 l 1
EndSplineSet
EndChar

StartChar: Ecircumflex
Encoding: 202 202 27
Width: 603
GlyphClass: 2
Flags: MW
HStem: 0 84<178 546 178 546> 315 82<178 526 178 526> 626 84<178 538 178 178> 778 133<180 364 180 364 270 384 270 454>
VStem: 92 86<84 315 397 626>
AnchorPoint: "Anchor-3" 317 710 basechar 0
AnchorPoint: "Anchor-2" 546 0 basechar 0
AnchorPoint: "Anchor-0" 319 0 basechar 0
LayerCount: 2
Fore
SplineSet
180 778 m 1
 270 911 l 1
 364 911 l 1
 454 778 l 1
 384 778 l 1
 317 867 l 1
 250 778 l 1
 180 778 l 1
92 0 m 1
 92 710 l 1
 538 710 l 1
 538 626 l 1
 178 626 l 1
 178 397 l 1
 526 397 l 1
 526 315 l 1
 178 315 l 1
 178 84 l 1
 546 84 l 1
 546 0 l 1
 92 0 l 1
EndSplineSet
EndChar

StartChar: Edieresis
Encoding: 203 203 28
Width: 603
GlyphClass: 2
Flags: MW
HStem: 0 84<178 546 178 546> 315 82<178 526 178 526> 626 84<178 538 178 178> 793 98<186 274 186 274 360 448 186 360>
VStem: 92 86<84 315 397 626> 186 88<793 891 793 891> 360 88<793 891 793 891>
AnchorPoint: "Anchor-3" 317 710 basechar 0
AnchorPoint: "Anchor-2" 546 0 basechar 0
AnchorPoint: "Anchor-0" 319 0 basechar 0
LayerCount: 2
Fore
SplineSet
186 793 m 1
 186 891 l 1
 274 891 l 1
 274 793 l 1
 186 793 l 1
360 793 m 1
 360 891 l 1
 448 891 l 1
 448 793 l 1
 360 793 l 1
92 0 m 1xfa
 92 710 l 1
 538 710 l 1
 538 626 l 1
 178 626 l 1
 178 397 l 1
 526 397 l 1
 526 315 l 1
 178 315 l 1
 178 84 l 1
 546 84 l 1
 546 0 l 1
 92 0 l 1xfa
EndSplineSet
Substitution2: "'ss08' Style Set 8 in Latin lookup 41 subtable" Edieresis.ss08
Substitution2: "'aalt' Access All Alternates in Latin lookup 0 subtable" Edieresis.ss08
EndChar

StartChar: Edotaccent
Encoding: 278 278 29
Width: 603
GlyphClass: 2
Flags: MW
HStem: 0 84<178 546 178 546> 315 82<178 526 178 526> 626 84<178 538 178 178> 793 98<273 361 273 361>
VStem: 92 86<84 315 397 626> 273 88<793 891 793 891>
AnchorPoint: "Anchor-3" 317 710 basechar 0
AnchorPoint: "Anchor-2" 546 0 basechar 0
AnchorPoint: "Anchor-0" 319 0 basechar 0
LayerCount: 2
Fore
SplineSet
273 793 m 1
 273 891 l 1
 361 891 l 1
 361 793 l 1
 273 793 l 1
92 0 m 1
 92 710 l 1
 538 710 l 1
 538 626 l 1
 178 626 l 1
 178 397 l 1
 526 397 l 1
 526 315 l 1
 178 315 l 1
 178 84 l 1
 546 84 l 1
 546 0 l 1
 92 0 l 1
EndSplineSet
Substitution2: "'ss08' Style Set 8 in Latin lookup 41 subtable" Edotaccent.ss08
Substitution2: "'aalt' Access All Alternates in Latin lookup 0 subtable" Edotaccent.ss08
EndChar

StartChar: Egrave
Encoding: 200 200 30
Width: 603
GlyphClass: 2
Flags: MW
HStem: 0 84<178 546 178 546> 315 82<178 526 178 526> 626 84<178 538 178 178> 783 128<286 286 286 290 196 356>
VStem: 92 86<84 315 397 626>
AnchorPoint: "Anchor-3" 317 710 basechar 0
AnchorPoint: "Anchor-2" 546 0 basechar 0
AnchorPoint: "Anchor-0" 319 0 basechar 0
LayerCount: 2
Fore
SplineSet
286 783 m 1
 196 911 l 1
 290 911 l 1
 356 783 l 1
 286 783 l 1
92 0 m 1
 92 710 l 1
 538 710 l 1
 538 626 l 1
 178 626 l 1
 178 397 l 1
 526 397 l 1
 526 315 l 1
 178 315 l 1
 178 84 l 1
 546 84 l 1
 546 0 l 1
 92 0 l 1
EndSplineSet
EndChar

StartChar: Emacron
Encoding: 274 274 31
Width: 603
GlyphClass: 2
Flags: MW
HStem: 0 84<178 546 178 546> 315 82<178 526 178 526> 626 84<178 538 178 178> 805 72<183 451 183 451>
VStem: 92 86<84 315 397 626> 183 268<805 877 805 877>
AnchorPoint: "Anchor-3" 317 710 basechar 0
AnchorPoint: "Anchor-2" 546 0 basechar 0
AnchorPoint: "Anchor-0" 319 0 basechar 0
LayerCount: 2
Fore
SplineSet
183 805 m 1
 183 877 l 1
 451 877 l 1
 451 805 l 1
 183 805 l 1
92 0 m 1xf8
 92 710 l 1
 538 710 l 1
 538 626 l 1
 178 626 l 1
 178 397 l 1
 526 397 l 1
 526 315 l 1
 178 315 l 1
 178 84 l 1
 546 84 l 1
 546 0 l 1
 92 0 l 1xf8
EndSplineSet
EndChar

StartChar: Eogonek
Encoding: 280 280 32
Width: 603
GlyphClass: 2
Flags: MW
HStem: -210 68<500.5 512.5> 0 84<178 476 178 546> 315 82<178 526 178 526> 626 84<178 538 178 178>
VStem: 92 86<84 315 397 626> 402 78<-124 -121>
AnchorPoint: "Anchor-3" 317 710 basechar 0
AnchorPoint: "Anchor-2" 546 0 basechar 0
AnchorPoint: "Anchor-0" 319 0 basechar 0
LayerCount: 2
Fore
SplineSet
92 0 m 1
 92 710 l 1
 538 710 l 1
 538 626 l 1
 178 626 l 1
 178 397 l 1
 526 397 l 1
 526 315 l 1
 178 315 l 1
 178 84 l 1
 546 84 l 1
 546 0 l 1
 511 -48 l 2
 486 -83 480 -100 480 -116 c 0
 480 -132 492 -142 509 -142 c 0
 528 -142 544 -137 557 -128 c 1
 581 -184 l 1
 566 -199 530 -210 495 -210 c 0
 438 -210 402 -186 402 -140 c 0
 402 -102 432 -59 459 -22 c 2
 476 0 l 1
 92 0 l 1
EndSplineSet
EndChar

StartChar: uni1EBC
Encoding: 7868 7868 33
Width: 603
GlyphClass: 2
Flags: MW
HStem: 0 84<178 546 178 546> 315 82<178 526 178 526> 626 84<178 538 178 178> 790 56<372 392.5 372 404.5> 844 56<242 264>
VStem: 92 86<84 315 397 626> 159 52<783 783> 422 52<910 910>
AnchorPoint: "Anchor-3" 317 710 basechar 0
AnchorPoint: "Anchor-2" 546 0 basechar 0
AnchorPoint: "Anchor-0" 319 0 basechar 0
LayerCount: 2
Fore
SplineSet
376 790 m 0xf5
 350 790 328 800 306 818 c 0
 283 837 274 844 254 844 c 0
 230 844 213 831 211 783 c 1
 159 783 l 1
 161 860 200 900 254 900 c 0xea
 286 900 307 889 330 870 c 0
 351 853 364 846 380 846 c 0
 405 846 418 860 422 910 c 1
 474 910 l 1
 470 834 433 790 376 790 c 0xf5
92 0 m 1xe4
 92 710 l 1
 538 710 l 1
 538 626 l 1
 178 626 l 1
 178 397 l 1
 526 397 l 1
 526 315 l 1
 178 315 l 1
 178 84 l 1
 546 84 l 1
 546 0 l 1
 92 0 l 1xe4
EndSplineSet
EndChar

StartChar: uni018F
Encoding: 399 399 34
Width: 713
GlyphClass: 1
Flags: MW
HStem: -16 84<290 408 290 442> 306 84<137 577 137 137> 642 84<306 408>
VStem: 45 92<306 390 306 390> 577 91<306 306 390 390>
LayerCount: 2
Fore
SplineSet
668 355 m 0
 668 121 536 -16 348 -16 c 0
 192 -16 45 104 45 340 c 2
 45 390 l 1
 577 390 l 1
 569 551 468 642 348 642 c 0
 264 642 195 595 158 501 c 1
 67 510 l 1
 108 643 214 726 348 726 c 0
 544 726 668 581 668 355 c 0
348 68 m 0
 468 68 565 150 577 306 c 1
 137 306 l 1
 155 152 232 68 348 68 c 0
EndSplineSet
EndChar

StartChar: F
Encoding: 70 70 35
Width: 590
GlyphClass: 1
Flags: MW
HStem: 0 21G<92 92 92 178> 306 82<178 520 178 520> 626 84<178 538 178 178>
VStem: 92 86<0 306 388 626>
LayerCount: 2
Fore
SplineSet
92 0 m 1
 92 710 l 1
 538 710 l 1
 538 626 l 1
 178 626 l 1
 178 388 l 1
 520 388 l 1
 520 306 l 1
 178 306 l 1
 178 0 l 1
 92 0 l 1
EndSplineSet
EndChar

StartChar: G
Encoding: 71 71 36
Width: 700
GlyphClass: 2
Flags: MW
HStem: -16 84<284.5 410.5> 0 21G<586 650 586 586> 277 82<366 570 366 650> 642 84<283 424.5>
VStem: 45 90<273 431 273 460.5> 570 80<277 277> 584 66
AnchorPoint: "Anchor-3" 364 710 basechar 0
AnchorPoint: "Anchor-0" 366 0 basechar 0
LayerCount: 2
Fore
SplineSet
362 -16 m 0xba
 162 -16 45 140 45 354 c 0
 45 567 164 726 364 726 c 0
 534 726 622 624 648 492 c 1
 558 486 l 1
 540 578 485 642 364 642 c 0
 202 642 135 508 135 354 c 0
 135 192 205 68 364 68 c 0
 490 68 568 164 570 277 c 1xbc
 366 277 l 1
 366 359 l 1
 650 359 l 1
 650 0 l 1
 586 0 l 1x7a
 582 119 l 1
 547 39 459 -16 362 -16 c 0xba
EndSplineSet
Substitution2: "'ss06' Style Set 6 in Latin lookup 39 subtable" G.ss06
Substitution2: "'aalt' Access All Alternates in Latin lookup 0 subtable" G.ss06
EndChar

StartChar: Gbreve
Encoding: 286 286 37
Width: 700
GlyphClass: 2
Flags: MW
HStem: -16 84<284.5 410.5> 0 21G<586 650 586 586> 277 82<366 570 366 650> 642 84<283 424.5> 783 62<341 387 341 405>
VStem: 45 90<273 431 273 460.5> 570 80<277 277> 584 66
AnchorPoint: "Anchor-3" 364 710 basechar 0
AnchorPoint: "Anchor-0" 366 0 basechar 0
LayerCount: 2
Fore
SplineSet
364 783 m 0xbd
 282 783 228 833 224 911 c 1
 282 911 l 1
 288 865 318 845 364 845 c 0
 410 845 439 865 445 911 c 1
 503 911 l 1
 499 833 446 783 364 783 c 0xbd
362 -16 m 0
 162 -16 45 140 45 354 c 0
 45 567 164 726 364 726 c 0
 534 726 622 624 648 492 c 1
 558 486 l 1
 540 578 485 642 364 642 c 0
 202 642 135 508 135 354 c 0
 135 192 205 68 364 68 c 0
 490 68 568 164 570 277 c 1xbe
 366 277 l 1
 366 359 l 1
 650 359 l 1
 650 0 l 1
 586 0 l 1x7d
 582 119 l 1
 547 39 459 -16 362 -16 c 0
EndSplineSet
Substitution2: "'ss06' Style Set 6 in Latin lookup 39 subtable" Gbreve.ss06
Substitution2: "'aalt' Access All Alternates in Latin lookup 0 subtable" Gbreve.ss06
EndChar

StartChar: Gcaron
Encoding: 486 486 38
Width: 700
GlyphClass: 2
Flags: MW
HStem: -16 84<284.5 410.5> 0 21G<586 650 586 586> 277 82<366 570 366 650> 642 84<283 424.5> 778 133<227 411 227 317>
VStem: 45 90<273 431 273 460.5> 570 80<277 277> 584 66
AnchorPoint: "Anchor-3" 364 710 basechar 0
AnchorPoint: "Anchor-0" 366 0 basechar 0
LayerCount: 2
Fore
SplineSet
227 911 m 1xbd
 297 911 l 1
 364 822 l 1
 431 911 l 1
 501 911 l 1
 411 778 l 1
 317 778 l 1
 227 911 l 1xbd
362 -16 m 0
 162 -16 45 140 45 354 c 0
 45 567 164 726 364 726 c 0
 534 726 622 624 648 492 c 1
 558 486 l 1
 540 578 485 642 364 642 c 0
 202 642 135 508 135 354 c 0
 135 192 205 68 364 68 c 0
 490 68 568 164 570 277 c 1xbe
 366 277 l 1
 366 359 l 1
 650 359 l 1
 650 0 l 1
 586 0 l 1x7d
 582 119 l 1
 547 39 459 -16 362 -16 c 0
EndSplineSet
EndChar

StartChar: Gcircumflex
Encoding: 284 284 39
Width: 700
GlyphClass: 2
Flags: MW
HStem: -16 84<284.5 410.5> 0 21G<586 650 586 586> 277 82<366 570 366 650> 642 84<283 424.5> 778 133<227 411 227 411 317 431 317 501>
VStem: 45 90<273 431 273 460.5> 570 80<277 277> 584 66
AnchorPoint: "Anchor-3" 364 710 basechar 0
AnchorPoint: "Anchor-0" 366 0 basechar 0
LayerCount: 2
Fore
SplineSet
227 778 m 1xbd
 317 911 l 1
 411 911 l 1
 501 778 l 1
 431 778 l 1
 364 867 l 1
 297 778 l 1
 227 778 l 1xbd
362 -16 m 0
 162 -16 45 140 45 354 c 0
 45 567 164 726 364 726 c 0
 534 726 622 624 648 492 c 1
 558 486 l 1
 540 578 485 642 364 642 c 0
 202 642 135 508 135 354 c 0
 135 192 205 68 364 68 c 0
 490 68 568 164 570 277 c 1xbe
 366 277 l 1
 366 359 l 1
 650 359 l 1
 650 0 l 1
 586 0 l 1x7d
 582 119 l 1
 547 39 459 -16 362 -16 c 0
EndSplineSet
Substitution2: "'ss06' Style Set 6 in Latin lookup 39 subtable" Gcircumflex.ss06
Substitution2: "'aalt' Access All Alternates in Latin lookup 0 subtable" Gcircumflex.ss06
EndChar

StartChar: uni0122
Encoding: 290 290 40
Width: 700
GlyphClass: 2
Flags: MW
HStem: -143 90<316 352 316 416> -16 84<284.5 410.5> 0 21G<586 650 586 586> 277 82<366 570 366 650> 642 84<283 424.5>
VStem: 45 90<273 431 273 460.5> 316 100<-135 -53 -135 -53 -135 -53> 570 80<277 277> 584 66
AnchorPoint: "Anchor-3" 364 710 basechar 0
AnchorPoint: "Anchor-0" 366 -240 basechar 0
LayerCount: 2
Fore
SplineSet
362 -16 m 0xde80
 162 -16 45 140 45 354 c 0
 45 567 164 726 364 726 c 0
 534 726 622 624 648 492 c 1
 558 486 l 1
 540 578 485 642 364 642 c 0
 202 642 135 508 135 354 c 0
 135 192 205 68 364 68 c 0
 490 68 568 164 570 277 c 1xdf
 366 277 l 1
 366 359 l 1
 650 359 l 1
 650 0 l 1
 586 0 l 1xbe80
 582 119 l 1
 547 39 459 -16 362 -16 c 0xde80
297 -240 m 1
 352 -143 l 1
 316 -143 l 1
 316 -53 l 1
 416 -53 l 1
 416 -135 l 1
 355 -240 l 1
 297 -240 l 1
EndSplineSet
Substitution2: "'ss06' Style Set 6 in Latin lookup 39 subtable" uni0122.ss06
Substitution2: "'aalt' Access All Alternates in Latin lookup 0 subtable" uni0122.ss06
EndChar

StartChar: Gdotaccent
Encoding: 288 288 41
Width: 700
GlyphClass: 2
Flags: MW
HStem: -16 84<284.5 410.5> 0 21G<586 650 586 586> 277 82<366 570 366 650> 642 84<283 424.5> 793 98<320 408 320 408>
VStem: 45 90<273 431 273 460.5> 320 88<793 891 793 891> 570 80<277 277> 584 66
AnchorPoint: "Anchor-3" 364 710 basechar 0
AnchorPoint: "Anchor-0" 366 0 basechar 0
LayerCount: 2
Fore
SplineSet
320 793 m 1xbe80
 320 891 l 1
 408 891 l 1
 408 793 l 1
 320 793 l 1xbe80
362 -16 m 0
 162 -16 45 140 45 354 c 0
 45 567 164 726 364 726 c 0
 534 726 622 624 648 492 c 1
 558 486 l 1
 540 578 485 642 364 642 c 0
 202 642 135 508 135 354 c 0
 135 192 205 68 364 68 c 0
 490 68 568 164 570 277 c 1xbf
 366 277 l 1
 366 359 l 1
 650 359 l 1
 650 0 l 1
 586 0 l 1x7e80
 582 119 l 1
 547 39 459 -16 362 -16 c 0
EndSplineSet
Substitution2: "'ss08' Style Set 8 in Latin lookup 41 subtable" Gdotaccent.ss08
Substitution2: "'ss06' Style Set 6 in Latin lookup 39 subtable" Gdotaccent.ss06
AlternateSubs2: "'aalt' Access All Alternates in Latin lookup 1 subtable" Gdotaccent.ss06 Gdotaccent.ss08
EndChar

StartChar: uni1E20
Encoding: 7712 7712 42
Width: 700
GlyphClass: 2
Flags: MW
HStem: -16 84<284.5 410.5> 0 21G<586 650 586 586> 277 82<366 570 366 650> 642 84<283 424.5> 805 72<230 498 230 498>
VStem: 45 90<273 431 273 460.5> 230 268<805 877 805 877> 570 80<277 277> 584 66
AnchorPoint: "Anchor-3" 364 710 basechar 0
AnchorPoint: "Anchor-0" 366 0 basechar 0
LayerCount: 2
Fore
SplineSet
230 805 m 1xbe80
 230 877 l 1
 498 877 l 1
 498 805 l 1
 230 805 l 1xbe80
362 -16 m 0
 162 -16 45 140 45 354 c 0
 45 567 164 726 364 726 c 0
 534 726 622 624 648 492 c 1
 558 486 l 1
 540 578 485 642 364 642 c 0
 202 642 135 508 135 354 c 0
 135 192 205 68 364 68 c 0
 490 68 568 164 570 277 c 1xbd
 366 277 l 1
 366 359 l 1
 650 359 l 1
 650 0 l 1
 586 0 l 1x7c80
 582 119 l 1
 547 39 459 -16 362 -16 c 0
EndSplineSet
Substitution2: "'ss06' Style Set 6 in Latin lookup 39 subtable" uni1E20.ss06
Substitution2: "'aalt' Access All Alternates in Latin lookup 0 subtable" uni1E20.ss06
EndChar

StartChar: uni01E4
Encoding: 484 484 43
Width: 744
GlyphClass: 2
Flags: MW
HStem: -16 84<283.5 401 283.5 426.5> 149 70<366 531 366 562 366 622 642 704> 277 82<366 570 366 650> 642 84<283.5 426.5>
VStem: 45 90<272.5 431 272.5 457.5> 570 80<277 315>
AnchorPoint: "Anchor-3" 365 710 basechar 0
AnchorPoint: "Anchor-0" 367 0 basechar 0
LayerCount: 2
Fore
SplineSet
362 -16 m 0
 156 -16 45 148 45 354 c 0
 45 561 161 726 366 726 c 0
 527 726 620 632 648 492 c 1
 558 486 l 1
 541 574 487 642 366 642 c 0
 201 642 135 508 135 354 c 0
 135 191 205 68 362 68 c 0
 440 68 497 99 531 149 c 1
 366 149 l 1
 366 219 l 1
 562 219 l 1
 567 237 569 257 570 277 c 1
 366 277 l 1
 366 359 l 1
 650 359 l 1
 650 315 l 2
 650 281 647 249 642 219 c 1
 704 219 l 1
 704 149 l 1
 622 149 l 1
 580 43 491 -16 362 -16 c 0
EndSplineSet
EndChar

StartChar: H
Encoding: 72 72 44
Width: 713
GlyphClass: 2
Flags: MW
HStem: 0 21G<92 92 92 178 535 535 535 621> 315 84<178 535 178 535> 690 20G<92 178 178 178 535 621 621 621>
VStem: 92 86<0 315 399 710> 535 86<0 315 315 315 399 710 0 710>
AnchorPoint: "Anchor-3" 357 710 basechar 0
AnchorPoint: "Anchor-1" 357 568 basechar 0
AnchorPoint: "Anchor-0" 357 0 basechar 0
LayerCount: 2
Fore
SplineSet
92 0 m 1
 92 710 l 1
 178 710 l 1
 178 399 l 1
 535 399 l 1
 535 710 l 1
 621 710 l 1
 621 0 l 1
 535 0 l 1
 535 315 l 1
 178 315 l 1
 178 0 l 1
 92 0 l 1
EndSplineSet
EndChar

StartChar: Hbar
Encoding: 294 294 45
Width: 713
GlyphClass: 2
Flags: MW
HStem: 0 21G<92 92 92 178 535 535 535 621> 315 84<178 535 178 535> 528 80<17 92 17 92 178 535 621 697> 528 182<17 178 17 178 92 178 92 535>
VStem: 92 86<0 315 399 528 608 710> 535 86<0 315 315 315 399 528 0 528 608 710>
AnchorPoint: "Anchor-3" 357 710 basechar 0
AnchorPoint: "Anchor-1" 357 568 basechar 0
AnchorPoint: "Anchor-0" 357 0 basechar 0
LayerCount: 2
Fore
SplineSet
92 0 m 1xdc
 92 528 l 1
 17 528 l 1xdc
 17 608 l 1
 92 608 l 1xec
 92 710 l 1
 178 710 l 1xdc
 178 608 l 1
 535 608 l 1xec
 535 710 l 1
 621 710 l 1xdc
 621 608 l 1
 697 608 l 1xec
 697 528 l 1
 621 528 l 1
 621 0 l 1
 535 0 l 1
 535 315 l 1
 178 315 l 1
 178 0 l 1
 92 0 l 1xdc
178 399 m 1
 535 399 l 1
 535 528 l 1
 178 528 l 1
 178 399 l 1
EndSplineSet
EndChar

StartChar: Hcircumflex
Encoding: 292 292 46
Width: 713
GlyphClass: 2
Flags: MW
HStem: 0 21G<92 92 92 178 535 535 535 621> 315 84<178 535 178 535> 690 20G<92 178 178 178 535 621 621 621> 778 133<220 404 220 404 310 424 310 494>
VStem: 92 86<0 315 399 710> 535 86<0 315 315 315 399 710 0 710>
AnchorPoint: "Anchor-3" 357 710 basechar 0
AnchorPoint: "Anchor-1" 357 568 basechar 0
AnchorPoint: "Anchor-0" 357 0 basechar 0
LayerCount: 2
Fore
SplineSet
220 778 m 1
 310 911 l 1
 404 911 l 1
 494 778 l 1
 424 778 l 1
 357 867 l 1
 290 778 l 1
 220 778 l 1
92 0 m 1
 92 710 l 1
 178 710 l 1
 178 399 l 1
 535 399 l 1
 535 710 l 1
 621 710 l 1
 621 0 l 1
 535 0 l 1
 535 315 l 1
 178 315 l 1
 178 0 l 1
 92 0 l 1
EndSplineSet
EndChar

StartChar: I
Encoding: 73 73 47
Width: 270
GlyphClass: 2
Flags: MW
HStem: 0 21G<92 92 92 178> 690 20G<92 178 178 178>
VStem: 92 86<0 710 0 710>
AnchorPoint: "Anchor-3" 135 710 basechar 0
AnchorPoint: "Anchor-2" 178 0 basechar 0
AnchorPoint: "Anchor-0" 135 0 basechar 0
LayerCount: 2
Fore
SplineSet
92 0 m 1
 92 710 l 1
 178 710 l 1
 178 0 l 1
 92 0 l 1
EndSplineSet
Substitution2: "'ss05' Style Set 5 in Latin lookup 38 subtable" I.ss05
Substitution2: "'aalt' Access All Alternates in Latin lookup 0 subtable" I.ss05
EndChar

StartChar: IJ
Encoding: 306 306 48
Width: 847
GlyphClass: 2
Flags: MW
HStem: -16 84<499.5 588 499.5 612.5> 0 21G<92 92 92 178> 690 20G<92 178 178 178 684 770 770 770>
VStem: 92 86<0 710 0 710> 317 88<232 238> 684 86<248 710>
AnchorPoint: "Anchor-3" 728 710 basechar 0
AnchorPoint: "Anchor-2" 178 0 basechar 0
AnchorPoint: "Anchor-0" 135 0 basechar 0
LayerCount: 2
Fore
SplineSet
92 0 m 1x7c
 92 710 l 1
 178 710 l 1
 178 0 l 1
 92 0 l 1x7c
543 -16 m 0
 411 -16 318 86 317 232 c 1
 405 238 l 1
 406 129 456 68 543 68 c 0
 633 68 684 133 684 248 c 2
 684 710 l 1
 770 710 l 1
 770 248 l 2xbc
 770 86 682 -16 543 -16 c 0
EndSplineSet
EndChar

StartChar: Iacute
Encoding: 205 205 49
Width: 270
GlyphClass: 2
Flags: MW
HStem: 0 21G<92 92 92 178> 690 20G<92 178 178 178> 778 128<98 258 164 168>
VStem: 92 86<0 710 0 710>
AnchorPoint: "Anchor-3" 135 710 basechar 0
AnchorPoint: "Anchor-2" 178 0 basechar 0
AnchorPoint: "Anchor-0" 135 0 basechar 0
LayerCount: 2
Fore
SplineSet
98 778 m 1
 164 906 l 1
 258 906 l 1
 168 778 l 1
 98 778 l 1
92 0 m 1
 92 710 l 1
 178 710 l 1
 178 0 l 1
 92 0 l 1
EndSplineSet
Substitution2: "'ss05' Style Set 5 in Latin lookup 38 subtable" Iacute.ss05
Substitution2: "'aalt' Access All Alternates in Latin lookup 0 subtable" Iacute.ss05
EndChar

StartChar: Icircumflex
Encoding: 206 206 50
Width: 270
GlyphClass: 2
Flags: MW
HStem: 0 21G<92 92 92 178> 690 20G<92 178 178 178> 778 133<-2 182 -2 182 88 202 88 272>
VStem: 92 86<0 710 0 710>
AnchorPoint: "Anchor-3" 135 710 basechar 0
AnchorPoint: "Anchor-2" 178 0 basechar 0
AnchorPoint: "Anchor-0" 135 0 basechar 0
LayerCount: 2
Fore
SplineSet
-2 778 m 1
 88 911 l 1
 182 911 l 1
 272 778 l 1
 202 778 l 1
 135 867 l 1
 68 778 l 1
 -2 778 l 1
92 0 m 1
 92 710 l 1
 178 710 l 1
 178 0 l 1
 92 0 l 1
EndSplineSet
Substitution2: "'ss05' Style Set 5 in Latin lookup 38 subtable" Icircumflex.ss05
Substitution2: "'aalt' Access All Alternates in Latin lookup 0 subtable" Icircumflex.ss05
EndChar

StartChar: Idieresis
Encoding: 207 207 51
Width: 270
GlyphClass: 2
Flags: MW
HStem: 0 21G<92 92 92 178> 690 20G<92 178 178 178> 793 98<4 92 4 92 178 266 4 178>
VStem: 4 88<793 891> 92 86<0 710 0 710 793 891 0 793> 178 88<0 891 793 891 793 891>
AnchorPoint: "Anchor-3" 135 710 basechar 0
AnchorPoint: "Anchor-2" 178 0 basechar 0
AnchorPoint: "Anchor-0" 135 0 basechar 0
LayerCount: 2
Fore
SplineSet
4 793 m 1xf4
 4 891 l 1
 92 891 l 1
 92 793 l 1
 4 793 l 1xf4
178 793 m 1
 178 891 l 1
 266 891 l 1
 266 793 l 1
 178 793 l 1
92 0 m 1xe8
 92 710 l 1
 178 710 l 1
 178 0 l 1
 92 0 l 1xe8
EndSplineSet
Substitution2: "'ss08' Style Set 8 in Latin lookup 41 subtable" Idieresis.ss08
Substitution2: "'ss05' Style Set 5 in Latin lookup 38 subtable" Idieresis.ss05
AlternateSubs2: "'aalt' Access All Alternates in Latin lookup 1 subtable" Idieresis.ss05 Idieresis.ss08
EndChar

StartChar: Idotaccent
Encoding: 304 304 52
Width: 270
GlyphClass: 2
Flags: MW
HStem: 0 21G<92 92 92 178> 690 20G<92 178 178 178> 793 98<91 179 91 179>
VStem: 91 88<793 891 793 891> 92 86<0 710 0 710>
AnchorPoint: "Anchor-3" 135 710 basechar 0
AnchorPoint: "Anchor-2" 178 0 basechar 0
AnchorPoint: "Anchor-0" 135 0 basechar 0
LayerCount: 2
Fore
SplineSet
91 793 m 1xf0
 91 891 l 1
 179 891 l 1
 179 793 l 1
 91 793 l 1xf0
92 0 m 1xe8
 92 710 l 1
 178 710 l 1
 178 0 l 1
 92 0 l 1xe8
EndSplineSet
Substitution2: "'ss08' Style Set 8 in Latin lookup 41 subtable" Idotaccent.ss08
Substitution2: "'ss05' Style Set 5 in Latin lookup 38 subtable" Idotaccent.ss05
AlternateSubs2: "'aalt' Access All Alternates in Latin lookup 1 subtable" Idotaccent.ss05 Idotaccent.ss08
EndChar

StartChar: Igrave
Encoding: 204 204 53
Width: 270
GlyphClass: 2
Flags: MW
HStem: 0 21G<92 92 92 178> 690 20G<92 178 178 178> 783 128<104 104 104 108 14 174>
VStem: 92 86<0 710 0 710>
AnchorPoint: "Anchor-3" 135 710 basechar 0
AnchorPoint: "Anchor-2" 178 0 basechar 0
AnchorPoint: "Anchor-0" 135 0 basechar 0
LayerCount: 2
Fore
SplineSet
104 783 m 1
 14 911 l 1
 108 911 l 1
 174 783 l 1
 104 783 l 1
92 0 m 1
 92 710 l 1
 178 710 l 1
 178 0 l 1
 92 0 l 1
EndSplineSet
Substitution2: "'ss05' Style Set 5 in Latin lookup 38 subtable" Igrave.ss05
Substitution2: "'aalt' Access All Alternates in Latin lookup 0 subtable" Igrave.ss05
EndChar

StartChar: Imacron
Encoding: 298 298 54
Width: 270
GlyphClass: 2
Flags: MW
HStem: 0 21G<92 92 92 178> 690 20G<92 178 178 178> 805 72<1 269 1 269>
VStem: 92 86<0 710 0 710>
AnchorPoint: "Anchor-3" 135 710 basechar 0
AnchorPoint: "Anchor-2" 178 0 basechar 0
AnchorPoint: "Anchor-0" 135 0 basechar 0
LayerCount: 2
Fore
SplineSet
1 805 m 1
 1 877 l 1
 269 877 l 1
 269 805 l 1
 1 805 l 1
92 0 m 1
 92 710 l 1
 178 710 l 1
 178 0 l 1
 92 0 l 1
EndSplineSet
Substitution2: "'ss05' Style Set 5 in Latin lookup 38 subtable" Imacron.ss05
Substitution2: "'aalt' Access All Alternates in Latin lookup 0 subtable" Imacron.ss05
EndChar

StartChar: Iogonek
Encoding: 302 302 55
Width: 270
GlyphClass: 2
Flags: MW
HStem: -210 68<132.5 144.5> 0 21G<92 92 92 108 178 178> 690 20G<92 178 178 178>
VStem: 34 78<-124 -121> 92 86<0 710 0 710>
AnchorPoint: "Anchor-3" 135 710 basechar 0
AnchorPoint: "Anchor-2" 178 0 basechar 0
AnchorPoint: "Anchor-0" 135 0 basechar 0
LayerCount: 2
Fore
SplineSet
92 0 m 1xe8
 92 710 l 1
 178 710 l 1
 178 0 l 1xe8
 143 -48 l 2
 118 -83 112 -100 112 -116 c 0
 112 -132 124 -142 141 -142 c 0
 160 -142 176 -137 189 -128 c 1
 213 -184 l 1
 198 -199 162 -210 127 -210 c 0
 70 -210 34 -186 34 -140 c 0xf0
 34 -102 64 -59 91 -22 c 2
 108 0 l 1
 92 0 l 1xe8
EndSplineSet
Substitution2: "'ss05' Style Set 5 in Latin lookup 38 subtable" Iogonek.ss05
Substitution2: "'aalt' Access All Alternates in Latin lookup 0 subtable" Iogonek.ss05
EndChar

StartChar: Itilde
Encoding: 296 296 56
Width: 270
GlyphClass: 2
Flags: MW
HStem: 0 21G<92 92 92 178> 690 20G<92 178 178 178> 790 56<190 210.5 190 222.5> 844 56<60 82>
VStem: -23 52<783 783> 92 86<0 710 0 710> 240 52<910 910>
AnchorPoint: "Anchor-3" 135 710 basechar 0
AnchorPoint: "Anchor-2" 178 0 basechar 0
AnchorPoint: "Anchor-0" 135 0 basechar 0
LayerCount: 2
Fore
SplineSet
194 790 m 0xe6
 168 790 146 800 124 818 c 0
 101 837 92 844 72 844 c 0
 48 844 31 831 29 783 c 1
 -23 783 l 1
 -21 860 18 900 72 900 c 0xdc
 104 900 125 889 148 870 c 0
 169 853 182 846 198 846 c 0
 223 846 236 860 240 910 c 1
 292 910 l 1
 288 834 251 790 194 790 c 0xe6
92 0 m 1
 92 710 l 1
 178 710 l 1
 178 0 l 1
 92 0 l 1
EndSplineSet
Substitution2: "'ss05' Style Set 5 in Latin lookup 38 subtable" Itilde.ss05
Substitution2: "'aalt' Access All Alternates in Latin lookup 0 subtable" Itilde.ss05
EndChar

StartChar: J
Encoding: 74 74 57
Width: 597
GlyphClass: 2
Flags: MW
HStem: -16 84<249.5 338 249.5 362.5> 690 20G<434 520 520 520>
VStem: 67 88<232 238> 434 86<248 710>
AnchorPoint: "Anchor-3" 478 710 basechar 0
LayerCount: 2
Fore
SplineSet
293 -16 m 0
 161 -16 68 86 67 232 c 1
 155 238 l 1
 156 129 206 68 293 68 c 0
 383 68 434 133 434 248 c 2
 434 710 l 1
 520 710 l 1
 520 248 l 2
 520 86 432 -16 293 -16 c 0
EndSplineSet
Substitution2: "Single Substitution lookup 16 subtable" uni004A0301
Substitution2: "'aalt' Access All Alternates in Latin lookup 0 subtable" uni004A0301
EndChar

StartChar: uni004A0301
Encoding: 65537 -1 58
Width: 597
GlyphClass: 2
Flags: MW
HStem: -16 84<249.5 338 249.5 362.5> 690 20G<434 520 520 520> 778 128<441 601 507 511>
VStem: 67 88<232 238> 434 86<248 710>
AnchorPoint: "Anchor-3" 478 710 basechar 0
LayerCount: 2
Fore
SplineSet
441 778 m 1
 507 906 l 1
 601 906 l 1
 511 778 l 1
 441 778 l 1
293 -16 m 0
 161 -16 68 86 67 232 c 1
 155 238 l 1
 156 129 206 68 293 68 c 0
 383 68 434 133 434 248 c 2
 434 710 l 1
 520 710 l 1
 520 248 l 2
 520 86 432 -16 293 -16 c 0
EndSplineSet
EndChar

StartChar: Jcircumflex
Encoding: 308 308 59
Width: 597
GlyphClass: 2
Flags: MW
HStem: -16 84<249.5 338 249.5 362.5> 690 20G<434 520 520 520> 778 133<341 525 341 525 431 545 431 615>
VStem: 67 88<232 238> 434 86<248 710>
AnchorPoint: "Anchor-3" 478 710 basechar 0
LayerCount: 2
Fore
SplineSet
341 778 m 1
 431 911 l 1
 525 911 l 1
 615 778 l 1
 545 778 l 1
 478 867 l 1
 411 778 l 1
 341 778 l 1
293 -16 m 0
 161 -16 68 86 67 232 c 1
 155 238 l 1
 156 129 206 68 293 68 c 0
 383 68 434 133 434 248 c 2
 434 710 l 1
 520 710 l 1
 520 248 l 2
 520 86 432 -16 293 -16 c 0
EndSplineSet
EndChar

StartChar: K
Encoding: 75 75 60
Width: 640
GlyphClass: 2
Flags: MW
HStem: 0 21G<92 92 92 178 520 520 520 625> 690 20G<92 178 178 178 497 606 606 606>
VStem: 92 86<0 237 357 710>
AnchorPoint: "Anchor-3" 328 710 basechar 0
AnchorPoint: "Anchor-0" 347 0 basechar 0
LayerCount: 2
Fore
SplineSet
92 0 m 1
 92 710 l 1
 178 710 l 1
 178 357 l 1
 497 710 l 1
 606 710 l 1
 328 402 l 1
 625 0 l 1
 520 0 l 1
 270 338 l 1
 178 237 l 1
 178 0 l 1
 92 0 l 1
EndSplineSet
EndChar

StartChar: uni01E8
Encoding: 488 488 61
Width: 640
GlyphClass: 2
Flags: MW
HStem: 0 21G<92 92 92 178 520 520 520 625> 690 20G<92 178 178 178 497 606 606 606> 778 133<191 375 191 281>
VStem: 92 86<0 237 357 710>
AnchorPoint: "Anchor-3" 328 710 basechar 0
AnchorPoint: "Anchor-0" 347 0 basechar 0
LayerCount: 2
Fore
SplineSet
191 911 m 1
 261 911 l 1
 328 822 l 1
 395 911 l 1
 465 911 l 1
 375 778 l 1
 281 778 l 1
 191 911 l 1
92 0 m 1
 92 710 l 1
 178 710 l 1
 178 357 l 1
 497 710 l 1
 606 710 l 1
 328 402 l 1
 625 0 l 1
 520 0 l 1
 270 338 l 1
 178 237 l 1
 178 0 l 1
 92 0 l 1
EndSplineSet
EndChar

StartChar: uni0136
Encoding: 310 310 62
Width: 640
GlyphClass: 2
Flags: MW
HStem: -143 90<297 333 297 397> 0 21G<92 92 92 178 520 520 520 625> 690 20G<92 178 178 178 497 606 606 606>
VStem: 92 86<0 237 357 710> 297 100<-135 -53 -135 -53 -135 -53>
AnchorPoint: "Anchor-3" 328 710 basechar 0
AnchorPoint: "Anchor-0" 347 -240 basechar 0
LayerCount: 2
Fore
SplineSet
92 0 m 1
 92 710 l 1
 178 710 l 1
 178 357 l 1
 497 710 l 1
 606 710 l 1
 328 402 l 1
 625 0 l 1
 520 0 l 1
 270 338 l 1
 178 237 l 1
 178 0 l 1
 92 0 l 1
278 -240 m 1
 333 -143 l 1
 297 -143 l 1
 297 -53 l 1
 397 -53 l 1
 397 -135 l 1
 336 -240 l 1
 278 -240 l 1
EndSplineSet
EndChar

StartChar: L
Encoding: 76 76 63
Width: 580
GlyphClass: 2
Flags: MW
HStem: 0 84<178 533 178 533> 690 20G<92 178 178 178>
VStem: 92 86<84 710 84 710 84 710>
AnchorPoint: "Anchor-4" 380 530 basechar 0
AnchorPoint: "Anchor-3" 135 710 basechar 0
AnchorPoint: "Anchor-1" 174 380 basechar 0
AnchorPoint: "Anchor-0" 313 0 basechar 0
LayerCount: 2
Fore
SplineSet
92 0 m 1
 92 710 l 1
 178 710 l 1
 178 84 l 1
 533 84 l 1
 533 0 l 1
 92 0 l 1
EndSplineSet
EndChar

StartChar: Lacute
Encoding: 313 313 64
Width: 580
GlyphClass: 2
Flags: MW
HStem: 0 84<178 533 178 533> 690 20G<92 178 178 178> 778 128<98 258 164 168>
VStem: 92 86<84 710 84 710 84 710>
AnchorPoint: "Anchor-4" 380 530 basechar 0
AnchorPoint: "Anchor-3" 135 710 basechar 0
AnchorPoint: "Anchor-1" 174 380 basechar 0
AnchorPoint: "Anchor-0" 313 0 basechar 0
LayerCount: 2
Fore
SplineSet
98 778 m 1
 164 906 l 1
 258 906 l 1
 168 778 l 1
 98 778 l 1
92 0 m 1
 92 710 l 1
 178 710 l 1
 178 84 l 1
 533 84 l 1
 533 0 l 1
 92 0 l 1
EndSplineSet
EndChar

StartChar: Lcaron
Encoding: 317 317 65
Width: 580
GlyphClass: 2
Flags: MW
HStem: 0 84<178 533 178 533> 690 20G<92 178 178 178 430 514 514 514>
VStem: 92 86<84 710 84 710 84 710>
AnchorPoint: "Anchor-4" 380 530 basechar 0
AnchorPoint: "Anchor-3" 135 710 basechar 0
AnchorPoint: "Anchor-1" 174 380 basechar 0
AnchorPoint: "Anchor-0" 313 0 basechar 0
LayerCount: 2
Fore
SplineSet
92 0 m 1
 92 710 l 1
 178 710 l 1
 178 84 l 1
 533 84 l 1
 533 0 l 1
 92 0 l 1
400 455 m 1
 430 710 l 1
 514 710 l 1
 462 455 l 1
 400 455 l 1
EndSplineSet
EndChar

StartChar: uni013B
Encoding: 315 315 66
Width: 580
GlyphClass: 2
Flags: MW
HStem: -143 90<263 299 263 363> 0 84<178 533 178 533> 690 20G<92 178 178 178>
VStem: 92 86<84 710 84 710 84 710> 263 100<-135 -53 -135 -53 -135 -53>
AnchorPoint: "Anchor-4" 380 530 basechar 0
AnchorPoint: "Anchor-3" 135 710 basechar 0
AnchorPoint: "Anchor-1" 174 380 basechar 0
AnchorPoint: "Anchor-0" 313 -240 basechar 0
LayerCount: 2
Fore
SplineSet
92 0 m 1
 92 710 l 1
 178 710 l 1
 178 84 l 1
 533 84 l 1
 533 0 l 1
 92 0 l 1
244 -240 m 1
 299 -143 l 1
 263 -143 l 1
 263 -53 l 1
 363 -53 l 1
 363 -135 l 1
 302 -240 l 1
 244 -240 l 1
EndSplineSet
Substitution2: "'locl' Localized Forms in Latin lookup 11 subtable" uni013B.loclMAH
Substitution2: "'aalt' Access All Alternates in Latin lookup 0 subtable" uni013B.loclMAH
EndChar

StartChar: Lslash
Encoding: 321 321 67
Width: 580
GlyphClass: 2
Flags: MW
HStem: 0 84<178 533 178 533> 690 20G<92 178 178 178>
VStem: 92 86<84 299 299 299 420 710>
AnchorPoint: "Anchor-4" 380 530 basechar 0
AnchorPoint: "Anchor-3" 135 710 basechar 0
AnchorPoint: "Anchor-1" 174 380 basechar 0
AnchorPoint: "Anchor-0" 313 0 basechar 0
LayerCount: 2
Fore
SplineSet
92 0 m 1
 92 299 l 1
 20 262 l 1
 20 338 l 1
 92 375 l 1
 92 710 l 1
 178 710 l 1
 178 420 l 1
 328 498 l 1
 328 422 l 1
 178 344 l 1
 178 84 l 1
 533 84 l 1
 533 0 l 1
 92 0 l 1
EndSplineSet
EndChar

StartChar: M
Encoding: 77 77 68
Width: 877
GlyphClass: 2
Flags: MW
HStem: 0 21G<92 92 92 178 381 381 381 496 699 699 699 785> 0 94<381 439 439 439 439 496> 550 160<178 178 699 699> 690 20G<92 212 212 212 665 785 785 785>
VStem: 92 86<0 550 0 710> 699 86<0 550 550 550>
AnchorPoint: "Anchor-3" 439 710 basechar 0
AnchorPoint: "Anchor-0" 439 0 basechar 0
LayerCount: 2
Fore
SplineSet
92 0 m 1xac
 92 710 l 1
 212 710 l 1
 439 94 l 1x5c
 665 710 l 1
 785 710 l 1
 785 0 l 1
 699 0 l 1
 699 550 l 1
 496 0 l 1
 381 0 l 1
 178 550 l 1
 178 0 l 1
 92 0 l 1xac
EndSplineSet
EndChar

StartChar: N
Encoding: 78 78 69
Width: 743
GlyphClass: 2
Flags: MW
HStem: 0 21G<92 92 92 178 523 523 523 651> 0 86<523 565 565 565 565 651> 612 98<178 178> 690 20G<92 214 214 214 565 651 651 651>
VStem: 92 86<0 612 0 710> 565 86<86 710 0 710>
AnchorPoint: "Anchor-3" 386 710 basechar 0
AnchorPoint: "Anchor-0" 373 0 basechar 0
LayerCount: 2
Fore
SplineSet
92 0 m 1xac
 92 710 l 1
 214 710 l 1
 565 86 l 1x5c
 565 710 l 1
 651 710 l 1
 651 0 l 1
 523 0 l 1
 178 612 l 1
 178 0 l 1
 92 0 l 1xac
EndSplineSet
EndChar

StartChar: Nacute
Encoding: 323 323 70
Width: 743
GlyphClass: 2
Flags: MW
HStem: 0 21G<92 92 92 178 523 523 523 651> 0 86<523 565 565 565 565 651> 612 98<178 178> 690 20G<92 214 214 214 565 651 651 651> 778 128<349 509 415 419>
VStem: 92 86<0 612 0 710> 565 86<86 710 0 710>
AnchorPoint: "Anchor-3" 386 710 basechar 0
AnchorPoint: "Anchor-0" 373 0 basechar 0
LayerCount: 2
Fore
SplineSet
349 778 m 1xae
 415 906 l 1
 509 906 l 1
 419 778 l 1
 349 778 l 1xae
92 0 m 1
 92 710 l 1
 214 710 l 1
 565 86 l 1x5e
 565 710 l 1
 651 710 l 1
 651 0 l 1
 523 0 l 1
 178 612 l 1
 178 0 l 1
 92 0 l 1
EndSplineSet
EndChar

StartChar: Ncaron
Encoding: 327 327 71
Width: 743
GlyphClass: 2
Flags: MW
HStem: 0 21G<92 92 92 178 523 523 523 651> 0 86<523 565 565 565 565 651> 612 98<178 178> 690 20G<92 214 214 214 565 651 651 651> 778 133<249 433 249 339>
VStem: 92 86<0 612 0 710> 565 86<86 710 0 710>
AnchorPoint: "Anchor-3" 386 710 basechar 0
AnchorPoint: "Anchor-0" 373 0 basechar 0
LayerCount: 2
Fore
SplineSet
249 911 m 1xae
 319 911 l 1
 386 822 l 1
 453 911 l 1
 523 911 l 1
 433 778 l 1
 339 778 l 1
 249 911 l 1xae
92 0 m 1
 92 710 l 1
 214 710 l 1
 565 86 l 1x5e
 565 710 l 1
 651 710 l 1
 651 0 l 1
 523 0 l 1
 178 612 l 1
 178 0 l 1
 92 0 l 1
EndSplineSet
EndChar

StartChar: uni0145
Encoding: 325 325 72
Width: 743
GlyphClass: 2
Flags: MW
HStem: -143 90<323 359 323 423> 0 21G<92 92 92 178 523 523 523 651> 0 86<523 565 565 565 565 651> 612 98<178 178> 690 20G<92 214 214 214 565 651 651 651>
VStem: 92 86<0 612 0 710> 323 100<-135 -53 -135 -53 -135 -53> 565 86<86 710 0 710>
AnchorPoint: "Anchor-3" 386 710 basechar 0
AnchorPoint: "Anchor-0" 373 -240 basechar 0
LayerCount: 2
Fore
SplineSet
92 0 m 1xd7
 92 710 l 1
 214 710 l 1
 565 86 l 1xaf
 565 710 l 1
 651 710 l 1
 651 0 l 1
 523 0 l 1
 178 612 l 1
 178 0 l 1
 92 0 l 1xd7
304 -240 m 1
 359 -143 l 1
 323 -143 l 1
 323 -53 l 1
 423 -53 l 1
 423 -135 l 1
 362 -240 l 1
 304 -240 l 1
EndSplineSet
Substitution2: "'locl' Localized Forms in Latin lookup 11 subtable" uni0145.loclMAH
Substitution2: "'aalt' Access All Alternates in Latin lookup 0 subtable" uni0145.loclMAH
EndChar

StartChar: Ntilde
Encoding: 209 209 73
Width: 743
GlyphClass: 2
Flags: MW
HStem: 0 21G<92 92 92 178 523 523 523 651> 0 86<523 565 565 565 565 651> 612 98<178 178> 690 20G<92 214 214 214 565 651 651 651> 790 56<441 461.5 441 473.5> 844 56<311 333>
VStem: 92 86<0 612 0 710> 228 52<783 783> 491 52<910 910> 565 86<86 710 0 710>
AnchorPoint: "Anchor-3" 386 710 basechar 0
AnchorPoint: "Anchor-0" 373 0 basechar 0
LayerCount: 2
Fore
SplineSet
445 790 m 0x9a80
 419 790 397 800 375 818 c 0
 352 837 343 844 323 844 c 0
 299 844 282 831 280 783 c 1
 228 783 l 1
 230 860 269 900 323 900 c 0xa740
 355 900 376 889 399 870 c 0
 420 853 433 846 449 846 c 0
 474 846 487 860 491 910 c 1
 543 910 l 1
 539 834 502 790 445 790 c 0x9a80
92 0 m 1
 92 710 l 1
 214 710 l 1
 565 86 l 1x5640
 565 710 l 1
 651 710 l 1
 651 0 l 1
 523 0 l 1
 178 612 l 1
 178 0 l 1
 92 0 l 1
EndSplineSet
EndChar

StartChar: Eng
Encoding: 330 330 74
Width: 743
GlyphClass: 2
Flags: MW
HStem: -150 80<398 501 398 502> 0 21G<92 92 92 178 523 523 523 565> 611 99<178 178>
VStem: 92 86<0 611 0 710> 565 86<-8 -7 -7 0 0 0 87 710>
AnchorPoint: "Anchor-3" 372 710 basechar 0
AnchorPoint: "Anchor-0" 372 -150 basechar 0
LayerCount: 2
Fore
SplineSet
92 0 m 1
 92 710 l 1
 214 710 l 1
 565 87 l 1
 565 710 l 1
 651 710 l 1
 651 -7 l 2
 651 -94 593 -150 501 -150 c 2
 398 -150 l 1
 398 -70 l 1
 502 -70 l 2
 544 -70 565 -46 565 -8 c 2
 565 0 l 1
 523 0 l 1
 178 611 l 1
 178 0 l 1
 92 0 l 1
EndSplineSet
EndChar

StartChar: O
Encoding: 79 79 75
Width: 739
GlyphClass: 2
Flags: MW
HStem: -16 84<296 442.5 296 470.5> 642 84<296 442.5>
VStem: 45 90<264 444 264 469> 604 90<264 444>
AnchorPoint: "Anchor-3" 369 710 basechar 0
AnchorPoint: "Anchor-1" 370 355 basechar 0
AnchorPoint: "Anchor-0" 369 0 basechar 0
LayerCount: 2
Fore
SplineSet
369 -16 m 0
 167 -16 45 124 45 354 c 0
 45 584 167 726 369 726 c 0
 572 726 694 584 694 354 c 0
 694 124 572 -16 369 -16 c 0
369 68 m 0
 516 68 604 174 604 354 c 0
 604 534 516 642 369 642 c 0
 223 642 135 534 135 354 c 0
 135 174 223 68 369 68 c 0
EndSplineSet
Substitution2: "Single Substitution lookup 27 subtable" ordmasculine
Substitution2: "'aalt' Access All Alternates in Latin lookup 0 subtable" ordmasculine
EndChar

StartChar: Oacute
Encoding: 211 211 76
Width: 739
GlyphClass: 2
Flags: MW
HStem: -16 84<296 442.5 296 470.5> 642 84<296 442.5> 778 128<332 492 398 402>
VStem: 45 90<264 444 264 469> 604 90<264 444>
AnchorPoint: "Anchor-3" 369 710 basechar 0
AnchorPoint: "Anchor-1" 370 355 basechar 0
AnchorPoint: "Anchor-0" 369 0 basechar 0
LayerCount: 2
Fore
SplineSet
332 778 m 1
 398 906 l 1
 492 906 l 1
 402 778 l 1
 332 778 l 1
369 -16 m 0
 167 -16 45 124 45 354 c 0
 45 584 167 726 369 726 c 0
 572 726 694 584 694 354 c 0
 694 124 572 -16 369 -16 c 0
369 68 m 0
 516 68 604 174 604 354 c 0
 604 534 516 642 369 642 c 0
 223 642 135 534 135 354 c 0
 135 174 223 68 369 68 c 0
EndSplineSet
EndChar

StartChar: Ocircumflex
Encoding: 212 212 77
Width: 739
GlyphClass: 2
Flags: MW
HStem: -16 84<296 442.5 296 470.5> 642 84<296 442.5> 778 133<232 416 232 416 322 436 322 506>
VStem: 45 90<264 444 264 469> 604 90<264 444>
AnchorPoint: "Anchor-3" 369 710 basechar 0
AnchorPoint: "Anchor-1" 370 355 basechar 0
AnchorPoint: "Anchor-0" 369 0 basechar 0
LayerCount: 2
Fore
SplineSet
232 778 m 1
 322 911 l 1
 416 911 l 1
 506 778 l 1
 436 778 l 1
 369 867 l 1
 302 778 l 1
 232 778 l 1
369 -16 m 0
 167 -16 45 124 45 354 c 0
 45 584 167 726 369 726 c 0
 572 726 694 584 694 354 c 0
 694 124 572 -16 369 -16 c 0
369 68 m 0
 516 68 604 174 604 354 c 0
 604 534 516 642 369 642 c 0
 223 642 135 534 135 354 c 0
 135 174 223 68 369 68 c 0
EndSplineSet
EndChar

StartChar: Odieresis
Encoding: 214 214 78
Width: 739
GlyphClass: 2
Flags: MW
HStem: -16 84<296 442.5 296 470.5> 642 84<296 442.5> 793 98<238 326 238 326 412 500 238 412>
VStem: 45 90<264 444 264 469> 238 88<793 891 793 891> 412 88<793 891 793 891> 604 90<264 444>
AnchorPoint: "Anchor-3" 369 710 basechar 0
AnchorPoint: "Anchor-1" 370 355 basechar 0
AnchorPoint: "Anchor-0" 369 0 basechar 0
LayerCount: 2
Fore
SplineSet
238 793 m 1
 238 891 l 1
 326 891 l 1
 326 793 l 1
 238 793 l 1
412 793 m 1
 412 891 l 1
 500 891 l 1
 500 793 l 1
 412 793 l 1
369 -16 m 0
 167 -16 45 124 45 354 c 0
 45 584 167 726 369 726 c 0
 572 726 694 584 694 354 c 0
 694 124 572 -16 369 -16 c 0
369 68 m 0
 516 68 604 174 604 354 c 0
 604 534 516 642 369 642 c 0
 223 642 135 534 135 354 c 0
 135 174 223 68 369 68 c 0
EndSplineSet
Substitution2: "'ss08' Style Set 8 in Latin lookup 41 subtable" Odieresis.ss08
Substitution2: "'aalt' Access All Alternates in Latin lookup 0 subtable" Odieresis.ss08
EndChar

StartChar: Ograve
Encoding: 210 210 79
Width: 739
GlyphClass: 2
Flags: MW
HStem: -16 84<296 442.5 296 470.5> 642 84<296 442.5> 783 128<338 338 338 342 248 408>
VStem: 45 90<264 444 264 469> 604 90<264 444>
AnchorPoint: "Anchor-3" 369 710 basechar 0
AnchorPoint: "Anchor-1" 370 355 basechar 0
AnchorPoint: "Anchor-0" 369 0 basechar 0
LayerCount: 2
Fore
SplineSet
338 783 m 1
 248 911 l 1
 342 911 l 1
 408 783 l 1
 338 783 l 1
369 -16 m 0
 167 -16 45 124 45 354 c 0
 45 584 167 726 369 726 c 0
 572 726 694 584 694 354 c 0
 694 124 572 -16 369 -16 c 0
369 68 m 0
 516 68 604 174 604 354 c 0
 604 534 516 642 369 642 c 0
 223 642 135 534 135 354 c 0
 135 174 223 68 369 68 c 0
EndSplineSet
EndChar

StartChar: Ohungarumlaut
Encoding: 336 336 80
Width: 739
GlyphClass: 2
Flags: MW
HStem: -16 84<296 442.5 296 470.5> 642 84<296 442.5> 778 128<265 425 331 335 396 425 462 466 396 396>
VStem: 45 90<264 444 264 469> 604 90<264 444>
AnchorPoint: "Anchor-3" 369 710 basechar 0
AnchorPoint: "Anchor-1" 370 355 basechar 0
AnchorPoint: "Anchor-0" 369 0 basechar 0
LayerCount: 2
Fore
SplineSet
265 778 m 1
 331 906 l 1
 425 906 l 1
 335 778 l 1
 265 778 l 1
396 778 m 1
 462 906 l 1
 556 906 l 1
 466 778 l 1
 396 778 l 1
369 -16 m 0
 167 -16 45 124 45 354 c 0
 45 584 167 726 369 726 c 0
 572 726 694 584 694 354 c 0
 694 124 572 -16 369 -16 c 0
369 68 m 0
 516 68 604 174 604 354 c 0
 604 534 516 642 369 642 c 0
 223 642 135 534 135 354 c 0
 135 174 223 68 369 68 c 0
EndSplineSet
EndChar

StartChar: Omacron
Encoding: 332 332 81
Width: 739
GlyphClass: 2
Flags: MW
HStem: -16 84<296 442.5 296 470.5> 642 84<296 442.5> 805 72<235 503 235 503>
VStem: 45 90<264 444 264 469> 235 268<805 877 805 877> 604 90<264 444>
AnchorPoint: "Anchor-3" 369 710 basechar 0
AnchorPoint: "Anchor-1" 370 355 basechar 0
AnchorPoint: "Anchor-0" 369 0 basechar 0
LayerCount: 2
Fore
SplineSet
235 805 m 1
 235 877 l 1
 503 877 l 1
 503 805 l 1
 235 805 l 1
369 -16 m 0
 167 -16 45 124 45 354 c 0
 45 584 167 726 369 726 c 0
 572 726 694 584 694 354 c 0
 694 124 572 -16 369 -16 c 0
369 68 m 0
 516 68 604 174 604 354 c 0
 604 534 516 642 369 642 c 0
 223 642 135 534 135 354 c 0
 135 174 223 68 369 68 c 0
EndSplineSet
EndChar

StartChar: Oslash
Encoding: 216 216 82
Width: 739
GlyphClass: 2
Flags: MW
HStem: -16 84<344 442.5 344 470.5> 642 84<296 394>
VStem: 45 90<312 444 312 469> 604 90<264 396.5>
AnchorPoint: "Anchor-3" 369 710 basechar 0
AnchorPoint: "Anchor-1" 370 355 basechar 0
AnchorPoint: "Anchor-0" 369 0 basechar 0
LayerCount: 2
Fore
SplineSet
75 -16 m 1
 138 76 l 1
 78 140 45 235 45 354 c 0
 45 584 167 726 369 726 c 0
 439 726 499 709 547 678 c 1
 580 726 l 1
 664 726 l 1
 601 634 l 1
 661 569 694 473 694 354 c 0
 694 124 572 -16 369 -16 c 0
 300 -16 240 0 191 31 c 1
 159 -16 l 1
 75 -16 l 1
135 354 m 0
 135 270 154 201 190 153 c 1
 498 606 l 1
 463 629 419 642 369 642 c 0
 223 642 135 534 135 354 c 0
369 68 m 0
 516 68 604 174 604 354 c 0
 604 439 585 507 549 556 c 1
 241 104 l 1
 276 80 319 68 369 68 c 0
EndSplineSet
EndChar

StartChar: Otilde
Encoding: 213 213 83
Width: 739
GlyphClass: 2
Flags: MW
HStem: -16 84<296 442.5 296 470.5> 642 84<296 442.5> 790 56<424 444.5 424 456.5> 844 56<294 316>
VStem: 45 90<264 444 264 469> 211 52<783 783> 474 52<910 910> 604 90<264 444>
AnchorPoint: "Anchor-3" 369 710 basechar 0
AnchorPoint: "Anchor-1" 370 355 basechar 0
AnchorPoint: "Anchor-0" 369 0 basechar 0
LayerCount: 2
Fore
SplineSet
428 790 m 0xeb
 402 790 380 800 358 818 c 0
 335 837 326 844 306 844 c 0
 282 844 265 831 263 783 c 1
 211 783 l 1
 213 860 252 900 306 900 c 0xdd
 338 900 359 889 382 870 c 0
 403 853 416 846 432 846 c 0
 457 846 470 860 474 910 c 1
 526 910 l 1
 522 834 485 790 428 790 c 0xeb
369 -16 m 0
 167 -16 45 124 45 354 c 0
 45 584 167 726 369 726 c 0
 572 726 694 584 694 354 c 0
 694 124 572 -16 369 -16 c 0
369 68 m 0
 516 68 604 174 604 354 c 0
 604 534 516 642 369 642 c 0
 223 642 135 534 135 354 c 0
 135 174 223 68 369 68 c 0
EndSplineSet
EndChar

StartChar: OE
Encoding: 338 338 84
Width: 1088
GlyphClass: 2
Flags: MW
HStem: -16 84<290 421> 0 84<693 1031 693 1031> 315 82<693 1011 693 1011> 626 84<693 1023 693 693> 642 84<289.5 421 264.5 447>
VStem: 45 90<269.5 437 269.5 463.5> 604 89<269.5 315 397 436.5> 607 86<84 100 100 100 609 626>
AnchorPoint: "Anchor-3" 542 710 basechar 0
AnchorPoint: "Anchor-0" 542 0 basechar 0
LayerCount: 2
Fore
SplineSet
368 -16 m 0xb5
 162 -16 45 135 45 354 c 0
 45 573 161 726 368 726 c 0xae
 474 726 555 684 607 609 c 1
 607 710 l 1x75
 1023 710 l 1
 1023 626 l 1
 693 626 l 1
 693 397 l 1
 1011 397 l 1
 1011 315 l 1
 693 315 l 1
 693 84 l 1x76
 1031 84 l 1
 1031 0 l 1
 607 0 l 1x75
 607 100 l 1
 555 27 474 -16 368 -16 c 0xb5
368 68 m 0
 525 68 604 185 604 354 c 0
 604 519 526 642 368 642 c 0
 211 642 135 520 135 354 c 0
 135 185 212 68 368 68 c 0
EndSplineSet
EndChar

StartChar: P
Encoding: 80 80 85
Width: 650
GlyphClass: 2
Flags: MW
HStem: 0 21G<92 92 92 178> 276 84<178 347 178 347> 626 84<178 347 178 178>
VStem: 92 86<0 276 360 626> 508 90<450.5 538.5>
AnchorPoint: "Anchor-3" 325 710 basechar 0
AnchorPoint: "Anchor-0" 325 0 basechar 0
LayerCount: 2
Fore
SplineSet
92 0 m 1
 92 710 l 1
 347 710 l 2
 505 710 598 630 598 495 c 0
 598 358 505 276 347 276 c 2
 178 276 l 1
 178 0 l 1
 92 0 l 1
178 360 m 1
 347 360 l 2
 454 360 508 406 508 495 c 0
 508 582 454 626 347 626 c 2
 178 626 l 1
 178 360 l 1
EndSplineSet
EndChar

StartChar: Thorn
Encoding: 222 222 86
Width: 620
GlyphClass: 2
Flags: MW
HStem: 0 21G<92 92 92 178> 150 84<178 316 178 316> 498 84<178 316 178 316> 690 20G<92 178 178 178>
VStem: 92 86<0 150 0 234 234 498 582 710> 478 90<322 410>
AnchorPoint: "Anchor-3" 310 710 basechar 0
AnchorPoint: "Anchor-0" 310 0 basechar 0
LayerCount: 2
Fore
SplineSet
92 0 m 1
 92 710 l 1
 178 710 l 1
 178 582 l 1
 316 582 l 2
 475 582 568 502 568 366 c 0
 568 230 475 150 316 150 c 2
 178 150 l 1
 178 0 l 1
 92 0 l 1
316 498 m 2
 178 498 l 1
 178 234 l 1
 316 234 l 2
 424 234 478 278 478 366 c 0
 478 454 424 498 316 498 c 2
EndSplineSet
EndChar

StartChar: Q
Encoding: 81 81 87
Width: 733
GlyphClass: 2
Flags: MW
HStem: -16 84<289 380.5 289 389> 642 84<288 444>
VStem: 45 90<276 432.5 276 457.5> 598 90<299 432.5>
AnchorPoint: "Anchor-3" 366 710 basechar 0
AnchorPoint: "Anchor-0" 366 0 basechar 0
LayerCount: 2
Fore
SplineSet
548 -69 m 1
 489 7 l 1
 457 -7 412 -16 366 -16 c 0
 162 -16 45 148 45 354 c 0
 45 561 161 726 366 726 c 0
 574 726 688 561 688 354 c 0
 688 223 640 108 552 42 c 1
 640 -69 l 1
 548 -69 l 1
366 68 m 0
 395 68 418 71 435 79 c 1
 332 208 l 1
 424 208 l 1
 500 108 l 1
 565 160 598 244 598 354 c 0
 598 511 522 642 366 642 c 0
 210 642 135 511 135 354 c 0
 135 198 212 68 366 68 c 0
EndSplineSet
EndChar

StartChar: R
Encoding: 82 82 88
Width: 672
GlyphClass: 2
Flags: MW
HStem: 0 21G<92 92 92 178 523 523 523 610> 286 84<178 372 372 384 178 372> 626 84<178 361 178 178>
VStem: 92 86<0 286 370 626> 513 90<456 538>
AnchorPoint: "Anchor-3" 337 710 basechar 0
AnchorPoint: "Anchor-0" 350 0 basechar 0
LayerCount: 2
Fore
SplineSet
92 0 m 1
 92 710 l 1
 361 710 l 2
 510 710 603 627 603 495 c 0
 603 413 546 351 483 332 c 1
 546 321 583 283 590 209 c 2
 610 0 l 1
 523 0 l 1
 505 200 l 2
 500 259 466 286 384 286 c 2
 178 286 l 1
 178 0 l 1
 92 0 l 1
178 370 m 1
 372 370 l 2
 458 370 513 415 513 497 c 0
 513 579 459 626 361 626 c 2
 178 626 l 1
 178 370 l 1
EndSplineSet
Substitution2: "'ss04' Style Set 4 in Latin lookup 37 subtable" R.ss04
Substitution2: "'aalt' Access All Alternates in Latin lookup 0 subtable" R.ss04
EndChar

StartChar: Racute
Encoding: 340 340 89
Width: 672
GlyphClass: 2
Flags: MW
HStem: 0 21G<92 92 92 178 523 523 523 610> 286 84<178 372 372 384 178 372> 626 84<178 361 178 178> 778 128<300 460 366 370>
VStem: 92 86<0 286 370 626> 513 90<456 538>
AnchorPoint: "Anchor-3" 337 710 basechar 0
AnchorPoint: "Anchor-0" 350 0 basechar 0
LayerCount: 2
Fore
SplineSet
300 778 m 1
 366 906 l 1
 460 906 l 1
 370 778 l 1
 300 778 l 1
92 0 m 1
 92 710 l 1
 361 710 l 2
 510 710 603 627 603 495 c 0
 603 413 546 351 483 332 c 1
 546 321 583 283 590 209 c 2
 610 0 l 1
 523 0 l 1
 505 200 l 2
 500 259 466 286 384 286 c 2
 178 286 l 1
 178 0 l 1
 92 0 l 1
178 370 m 1
 372 370 l 2
 458 370 513 415 513 497 c 0
 513 579 459 626 361 626 c 2
 178 626 l 1
 178 370 l 1
EndSplineSet
Substitution2: "'ss04' Style Set 4 in Latin lookup 37 subtable" Racute.ss04
Substitution2: "'aalt' Access All Alternates in Latin lookup 0 subtable" Racute.ss04
EndChar

StartChar: Rcaron
Encoding: 344 344 90
Width: 672
GlyphClass: 2
Flags: MW
HStem: 0 21G<92 92 92 178 523 523 523 610> 286 84<178 372 372 384 178 372> 626 84<178 361 178 178> 778 133<200 384 200 290>
VStem: 92 86<0 286 370 626> 513 90<456 538>
AnchorPoint: "Anchor-3" 337 710 basechar 0
AnchorPoint: "Anchor-0" 350 0 basechar 0
LayerCount: 2
Fore
SplineSet
200 911 m 1
 270 911 l 1
 337 822 l 1
 404 911 l 1
 474 911 l 1
 384 778 l 1
 290 778 l 1
 200 911 l 1
92 0 m 1
 92 710 l 1
 361 710 l 2
 510 710 603 627 603 495 c 0
 603 413 546 351 483 332 c 1
 546 321 583 283 590 209 c 2
 610 0 l 1
 523 0 l 1
 505 200 l 2
 500 259 466 286 384 286 c 2
 178 286 l 1
 178 0 l 1
 92 0 l 1
178 370 m 1
 372 370 l 2
 458 370 513 415 513 497 c 0
 513 579 459 626 361 626 c 2
 178 626 l 1
 178 370 l 1
EndSplineSet
Substitution2: "'ss04' Style Set 4 in Latin lookup 37 subtable" Rcaron.ss04
Substitution2: "'aalt' Access All Alternates in Latin lookup 0 subtable" Rcaron.ss04
EndChar

StartChar: uni0156
Encoding: 342 342 91
Width: 672
GlyphClass: 2
Flags: MW
HStem: -143 90<300 336 300 400> 0 21G<92 92 92 178 523 523 523 610> 286 84<178 372 372 384 178 372> 626 84<178 361 178 178>
VStem: 92 86<0 286 370 626> 300 100<-135 -53 -135 -53 -135 -53> 513 90<456 538>
AnchorPoint: "Anchor-3" 337 710 basechar 0
AnchorPoint: "Anchor-0" 350 -240 basechar 0
LayerCount: 2
Fore
SplineSet
92 0 m 1
 92 710 l 1
 361 710 l 2
 510 710 603 627 603 495 c 0
 603 413 546 351 483 332 c 1
 546 321 583 283 590 209 c 2
 610 0 l 1
 523 0 l 1
 505 200 l 2
 500 259 466 286 384 286 c 2
 178 286 l 1
 178 0 l 1
 92 0 l 1
178 370 m 1
 372 370 l 2
 458 370 513 415 513 497 c 0
 513 579 459 626 361 626 c 2
 178 626 l 1
 178 370 l 1
281 -240 m 1
 336 -143 l 1
 300 -143 l 1
 300 -53 l 1
 400 -53 l 1
 400 -135 l 1
 339 -240 l 1
 281 -240 l 1
EndSplineSet
Substitution2: "'ss04' Style Set 4 in Latin lookup 37 subtable" uni0156.ss04
Substitution2: "'aalt' Access All Alternates in Latin lookup 0 subtable" uni0156.ss04
EndChar

StartChar: S
Encoding: 83 83 92
Width: 640
GlyphClass: 2
Flags: MW
HStem: -16 84<281 387.5 281 408.5> 642 84<260 357>
VStem: 70 90<494.5 562 494.5 583.5> 495 90<143.5 213>
AnchorPoint: "Anchor-3" 306 710 basechar 0
AnchorPoint: "Anchor-0" 327 0 basechar 0
LayerCount: 2
Fore
SplineSet
336 -16 m 0
 172 -16 67 83 55 227 c 1
 145 233 l 1
 159 127 224 68 338 68 c 0
 437 68 495 107 495 180 c 0
 495 246 462 286 292 328 c 0
 128 369 70 418 70 524 c 0
 70 643 160 726 306 726 c 0
 462 726 554 630 570 500 c 1
 480 494 l 1
 468 580 410 642 304 642 c 0
 216 642 160 596 160 528 c 0
 160 461 196 437 346 400 c 0
 524 356 585 288 585 186 c 0
 585 62 481 -16 336 -16 c 0
EndSplineSet
EndChar

StartChar: Sacute
Encoding: 346 346 93
Width: 640
GlyphClass: 2
Flags: MW
HStem: -16 84<281 387.5 281 408.5> 642 84<260 357> 778 128<269 429 335 339>
VStem: 70 90<494.5 562 494.5 583.5> 495 90<143.5 213>
AnchorPoint: "Anchor-3" 306 710 basechar 0
AnchorPoint: "Anchor-0" 327 0 basechar 0
LayerCount: 2
Fore
SplineSet
269 778 m 1
 335 906 l 1
 429 906 l 1
 339 778 l 1
 269 778 l 1
336 -16 m 0
 172 -16 67 83 55 227 c 1
 145 233 l 1
 159 127 224 68 338 68 c 0
 437 68 495 107 495 180 c 0
 495 246 462 286 292 328 c 0
 128 369 70 418 70 524 c 0
 70 643 160 726 306 726 c 0
 462 726 554 630 570 500 c 1
 480 494 l 1
 468 580 410 642 304 642 c 0
 216 642 160 596 160 528 c 0
 160 461 196 437 346 400 c 0
 524 356 585 288 585 186 c 0
 585 62 481 -16 336 -16 c 0
EndSplineSet
EndChar

StartChar: Scaron
Encoding: 352 352 94
Width: 640
GlyphClass: 2
Flags: MW
HStem: -16 84<281 387.5 281 408.5> 642 84<260 357> 778 133<169 353 169 259>
VStem: 70 90<494.5 562 494.5 583.5> 495 90<143.5 213>
AnchorPoint: "Anchor-3" 306 710 basechar 0
AnchorPoint: "Anchor-0" 327 0 basechar 0
LayerCount: 2
Fore
SplineSet
169 911 m 1
 239 911 l 1
 306 822 l 1
 373 911 l 1
 443 911 l 1
 353 778 l 1
 259 778 l 1
 169 911 l 1
336 -16 m 0
 172 -16 67 83 55 227 c 1
 145 233 l 1
 159 127 224 68 338 68 c 0
 437 68 495 107 495 180 c 0
 495 246 462 286 292 328 c 0
 128 369 70 418 70 524 c 0
 70 643 160 726 306 726 c 0
 462 726 554 630 570 500 c 1
 480 494 l 1
 468 580 410 642 304 642 c 0
 216 642 160 596 160 528 c 0
 160 461 196 437 346 400 c 0
 524 356 585 288 585 186 c 0
 585 62 481 -16 336 -16 c 0
EndSplineSet
EndChar

StartChar: Scedilla
Encoding: 350 350 95
Width: 640
GlyphClass: 2
Flags: MW
HStem: -220 56<298.5 332 298.5 349.5> -80 44<293 333> -80 148<293 325> -13 21G<288 288> 642 84<260 357>
VStem: 70 90<494.5 562 494.5 583.5> 369 60<-136.5 -111.5> 495 90<143.5 213>
AnchorPoint: "Anchor-3" 306 710 basechar 0
AnchorPoint: "Anchor-0" 327 0 basechar 0
LayerCount: 2
Fore
SplineSet
317 -220 m 0xcf
 253 -220 214 -186 200 -142 c 1
 251 -122 l 1
 263 -152 282 -164 315 -164 c 0
 349 -164 369 -149 369 -124 c 0
 369 -99 357 -80 293 -80 c 1xcf
 265 -50 l 1
 288 -13 l 1x9f
 152 4 66 97 55 227 c 1
 145 233 l 1
 159 127 224 68 338 68 c 0xaf
 437 68 495 107 495 180 c 0
 495 246 462 286 292 328 c 0
 128 369 70 418 70 524 c 0
 70 643 160 726 306 726 c 0
 462 726 554 630 570 500 c 1
 480 494 l 1
 468 580 410 642 304 642 c 0
 216 642 160 596 160 528 c 0
 160 461 196 437 346 400 c 0
 524 356 585 288 585 186 c 0
 585 65 487 -12 348 -16 c 1
 333 -36 l 1
 398 -39 429 -74 429 -126 c 0
 429 -182 382 -220 317 -220 c 0xcf
EndSplineSet
Substitution2: "'locl' Localized Forms in Latin lookup 10 subtable" uni0218
Substitution2: "'aalt' Access All Alternates in Latin lookup 0 subtable" uni0218
EndChar

StartChar: Scircumflex
Encoding: 348 348 96
Width: 640
GlyphClass: 2
Flags: MW
HStem: -16 84<281 387.5 281 408.5> 642 84<260 357> 778 133<169 353 169 353 259 373 259 443>
VStem: 70 90<494.5 562 494.5 583.5> 495 90<143.5 213>
AnchorPoint: "Anchor-3" 306 710 basechar 0
AnchorPoint: "Anchor-0" 327 0 basechar 0
LayerCount: 2
Fore
SplineSet
169 778 m 1
 259 911 l 1
 353 911 l 1
 443 778 l 1
 373 778 l 1
 306 867 l 1
 239 778 l 1
 169 778 l 1
336 -16 m 0
 172 -16 67 83 55 227 c 1
 145 233 l 1
 159 127 224 68 338 68 c 0
 437 68 495 107 495 180 c 0
 495 246 462 286 292 328 c 0
 128 369 70 418 70 524 c 0
 70 643 160 726 306 726 c 0
 462 726 554 630 570 500 c 1
 480 494 l 1
 468 580 410 642 304 642 c 0
 216 642 160 596 160 528 c 0
 160 461 196 437 346 400 c 0
 524 356 585 288 585 186 c 0
 585 62 481 -16 336 -16 c 0
EndSplineSet
EndChar

StartChar: uni0218
Encoding: 536 536 97
Width: 640
GlyphClass: 2
Flags: MW
HStem: -143 90<277 313 277 377> -16 84<281 387.5 281 408.5> 642 84<260 357>
VStem: 70 90<494.5 562 494.5 583.5> 277 100<-135 -53 -135 -53 -135 -53> 495 90<143.5 213>
AnchorPoint: "Anchor-3" 306 710 basechar 0
AnchorPoint: "Anchor-0" 327 -240 basechar 0
LayerCount: 2
Fore
SplineSet
336 -16 m 0
 172 -16 67 83 55 227 c 1
 145 233 l 1
 159 127 224 68 338 68 c 0
 437 68 495 107 495 180 c 0
 495 246 462 286 292 328 c 0
 128 369 70 418 70 524 c 0
 70 643 160 726 306 726 c 0
 462 726 554 630 570 500 c 1
 480 494 l 1
 468 580 410 642 304 642 c 0
 216 642 160 596 160 528 c 0
 160 461 196 437 346 400 c 0
 524 356 585 288 585 186 c 0
 585 62 481 -16 336 -16 c 0
258 -240 m 1
 313 -143 l 1
 277 -143 l 1
 277 -53 l 1
 377 -53 l 1
 377 -135 l 1
 316 -240 l 1
 258 -240 l 1
EndSplineSet
EndChar

StartChar: uni1E9E
Encoding: 7838 7838 98
Width: 692
GlyphClass: 2
Flags: MW
HStem: 0 84<92 379 245 379 245 379> 353 75<265 374> 626 84<255.5 583 292 473>
VStem: 92 86<0 501 0 565.5> 540 90<176.5 261>
AnchorPoint: "Anchor-3" 346 710 basechar 0
AnchorPoint: "Anchor-0" 346 0 basechar 0
LayerCount: 2
Fore
SplineSet
92 0 m 1
 92 501 l 2
 92 630 169 710 292 710 c 2
 583 710 l 1
 583 618 l 1
 374 428 l 1
 546 421 630 348 630 221 c 0
 630 87 531 0 379 0 c 2
 245 0 l 1
 245 84 l 1
 379 84 l 2
 478 84 540 135 540 218 c 0
 540 304 472 353 367 353 c 2
 265 353 l 1
 265 430 l 1
 473 626 l 1
 292 626 l 2
 219 626 178 582 178 501 c 2
 178 0 l 1
 92 0 l 1
EndSplineSet
EndChar

StartChar: T
Encoding: 84 84 99
Width: 552
GlyphClass: 2
Flags: MW
HStem: 0 21G<233 233 233 319> 626 84<12 233 12 540 319 319 319 540>
VStem: 233 86<0 626 0 626>
AnchorPoint: "Anchor-3" 276 710 basechar 0
AnchorPoint: "Anchor-1" 276 348 basechar 0
AnchorPoint: "Anchor-0" 276 0 basechar 0
LayerCount: 2
Fore
SplineSet
233 0 m 1
 233 626 l 1
 12 626 l 1
 12 710 l 1
 540 710 l 1
 540 626 l 1
 319 626 l 1
 319 0 l 1
 233 0 l 1
EndSplineSet
EndChar

StartChar: Tbar
Encoding: 358 358 100
Width: 552
GlyphClass: 2
Flags: MW
HStem: 0 21G<233 233 233 319> 309 78<96 233 96 233 319 456> 626 84<12 233 12 540 319 319 319 540>
VStem: 233 86<0 309 0 309 387 626>
AnchorPoint: "Anchor-3" 276 710 basechar 0
AnchorPoint: "Anchor-1" 276 348 basechar 0
AnchorPoint: "Anchor-0" 276 0 basechar 0
LayerCount: 2
Fore
SplineSet
233 0 m 1
 233 309 l 1
 96 309 l 1
 96 387 l 1
 233 387 l 1
 233 626 l 1
 12 626 l 1
 12 710 l 1
 540 710 l 1
 540 626 l 1
 319 626 l 1
 319 387 l 1
 456 387 l 1
 456 309 l 1
 319 309 l 1
 319 0 l 1
 233 0 l 1
EndSplineSet
EndChar

StartChar: Tcaron
Encoding: 356 356 101
Width: 552
GlyphClass: 2
Flags: MW
HStem: 0 21G<233 233 233 319> 626 84<12 233 12 540 319 319 319 540> 778 133<139 323 139 229>
VStem: 233 86<0 626 0 626>
AnchorPoint: "Anchor-3" 276 710 basechar 0
AnchorPoint: "Anchor-1" 276 348 basechar 0
AnchorPoint: "Anchor-0" 276 0 basechar 0
LayerCount: 2
Fore
SplineSet
139 911 m 1
 209 911 l 1
 276 822 l 1
 343 911 l 1
 413 911 l 1
 323 778 l 1
 229 778 l 1
 139 911 l 1
233 0 m 1
 233 626 l 1
 12 626 l 1
 12 710 l 1
 540 710 l 1
 540 626 l 1
 319 626 l 1
 319 0 l 1
 233 0 l 1
EndSplineSet
EndChar

StartChar: uni0162
Encoding: 354 354 102
Width: 552
GlyphClass: 2
Flags: MW
HStem: -220 56<247.5 281 247.5 298.5> -80 44<242 282> 0 21G<233 233 233 246 309 309 309 319> 626 84<12 233 12 540 319 319 319 540>
VStem: 233 86<0 626 0 626> 318 60<-136.5 -111.5>
AnchorPoint: "Anchor-3" 276 710 basechar 0
AnchorPoint: "Anchor-1" 276 348 basechar 0
AnchorPoint: "Anchor-0" 276 0 basechar 0
LayerCount: 2
Fore
SplineSet
233 0 m 1xf8
 233 626 l 1
 12 626 l 1
 12 710 l 1
 540 710 l 1
 540 626 l 1
 319 626 l 1
 319 0 l 1
 309 0 l 1xf8
 282 -36 l 1
 347 -39 378 -74 378 -126 c 0
 378 -182 331 -220 266 -220 c 0
 202 -220 163 -186 149 -142 c 1
 200 -122 l 1
 212 -152 231 -164 264 -164 c 0
 298 -164 318 -149 318 -124 c 0xf4
 318 -99 306 -80 242 -80 c 1
 214 -50 l 1
 246 0 l 1
 233 0 l 1xf8
EndSplineSet
Substitution2: "'locl' Localized Forms in Latin lookup 10 subtable" uni021A
Substitution2: "'aalt' Access All Alternates in Latin lookup 0 subtable" uni021A
EndChar

StartChar: uni021A
Encoding: 538 538 103
Width: 552
GlyphClass: 2
Flags: MW
HStem: -143 90<226 262 226 326> 0 21G<233 233 233 319> 626 84<12 233 12 540 319 319 319 540>
VStem: 226 93<-143 626 -53 626> 233 86<0 626 0 626> 233 93<-135 626>
AnchorPoint: "Anchor-3" 276 710 basechar 0
AnchorPoint: "Anchor-1" 276 348 basechar 0
AnchorPoint: "Anchor-0" 276 -240 basechar 0
LayerCount: 2
Fore
SplineSet
233 0 m 1xe8
 233 626 l 1
 12 626 l 1
 12 710 l 1
 540 710 l 1
 540 626 l 1
 319 626 l 1
 319 0 l 1
 233 0 l 1xe8
207 -240 m 1
 262 -143 l 1
 226 -143 l 1
 226 -53 l 1xf0
 326 -53 l 1
 326 -135 l 1xe4
 265 -240 l 1
 207 -240 l 1
EndSplineSet
EndChar

StartChar: U
Encoding: 85 85 104
Width: 689
GlyphClass: 2
Flags: MW
HStem: -16 84<287 402.5 287 427> 691 20G<77 163 163 163 526 612 612 612>
VStem: 77 86<248 711> 526 86<248 711>
AnchorPoint: "Anchor-3" 345 710 basechar 0
AnchorPoint: "Anchor-2" 457 3 basechar 0
AnchorPoint: "Anchor-0" 345 0 basechar 0
LayerCount: 2
Fore
SplineSet
345 -16 m 0
 180 -16 77 86 77 248 c 2
 77 711 l 1
 163 711 l 1
 163 248 l 2
 163 133 229 68 345 68 c 0
 460 68 526 133 526 248 c 2
 526 711 l 1
 612 711 l 1
 612 248 l 2
 612 86 509 -16 345 -16 c 0
EndSplineSet
EndChar

StartChar: Uacute
Encoding: 218 218 105
Width: 689
GlyphClass: 2
Flags: MW
HStem: -16 84<287 402.5 287 427> 691 20G<77 163 163 163 526 612 612 612> 778 128<308 468 374 378>
VStem: 77 86<248 711> 526 86<248 711>
AnchorPoint: "Anchor-3" 345 710 basechar 0
AnchorPoint: "Anchor-2" 457 3 basechar 0
AnchorPoint: "Anchor-0" 345 0 basechar 0
LayerCount: 2
Fore
SplineSet
308 778 m 1
 374 906 l 1
 468 906 l 1
 378 778 l 1
 308 778 l 1
345 -16 m 0
 180 -16 77 86 77 248 c 2
 77 711 l 1
 163 711 l 1
 163 248 l 2
 163 133 229 68 345 68 c 0
 460 68 526 133 526 248 c 2
 526 711 l 1
 612 711 l 1
 612 248 l 2
 612 86 509 -16 345 -16 c 0
EndSplineSet
EndChar

StartChar: Ubreve
Encoding: 364 364 106
Width: 689
GlyphClass: 2
Flags: MW
HStem: -16 84<287 402.5 287 427> 691 20G<77 163 163 163 526 612 612 612> 783 62<322 368 322 386>
VStem: 77 86<248 711> 526 86<248 711>
AnchorPoint: "Anchor-3" 345 710 basechar 0
AnchorPoint: "Anchor-2" 457 3 basechar 0
AnchorPoint: "Anchor-0" 345 0 basechar 0
LayerCount: 2
Fore
SplineSet
345 783 m 0
 263 783 209 833 205 911 c 1
 263 911 l 1
 269 865 299 845 345 845 c 0
 391 845 420 865 426 911 c 1
 484 911 l 1
 480 833 427 783 345 783 c 0
345 -16 m 0
 180 -16 77 86 77 248 c 2
 77 711 l 1
 163 711 l 1
 163 248 l 2
 163 133 229 68 345 68 c 0
 460 68 526 133 526 248 c 2
 526 711 l 1
 612 711 l 1
 612 248 l 2
 612 86 509 -16 345 -16 c 0
EndSplineSet
EndChar

StartChar: Ucircumflex
Encoding: 219 219 107
Width: 689
GlyphClass: 2
Flags: MW
HStem: -16 84<287 402.5 287 427> 691 20G<77 163 163 163 526 612 612 612> 778 133<208 392 208 392 298 412 298 482>
VStem: 77 86<248 711> 526 86<248 711>
AnchorPoint: "Anchor-3" 345 710 basechar 0
AnchorPoint: "Anchor-2" 457 3 basechar 0
AnchorPoint: "Anchor-0" 345 0 basechar 0
LayerCount: 2
Fore
SplineSet
208 778 m 1
 298 911 l 1
 392 911 l 1
 482 778 l 1
 412 778 l 1
 345 867 l 1
 278 778 l 1
 208 778 l 1
345 -16 m 0
 180 -16 77 86 77 248 c 2
 77 711 l 1
 163 711 l 1
 163 248 l 2
 163 133 229 68 345 68 c 0
 460 68 526 133 526 248 c 2
 526 711 l 1
 612 711 l 1
 612 248 l 2
 612 86 509 -16 345 -16 c 0
EndSplineSet
EndChar

StartChar: Udieresis
Encoding: 220 220 108
Width: 689
GlyphClass: 2
Flags: MW
HStem: -16 84<287 402.5 287 427> 691 20G<77 163 163 163 526 612 612 612> 793 98<214 302 214 302 388 476 214 388>
VStem: 77 86<248 711> 214 88<793 891 793 891> 388 88<793 891 793 891> 526 86<248 711>
AnchorPoint: "Anchor-3" 345 710 basechar 0
AnchorPoint: "Anchor-2" 457 3 basechar 0
AnchorPoint: "Anchor-0" 345 0 basechar 0
LayerCount: 2
Fore
SplineSet
214 793 m 1
 214 891 l 1
 302 891 l 1
 302 793 l 1
 214 793 l 1
388 793 m 1
 388 891 l 1
 476 891 l 1
 476 793 l 1
 388 793 l 1
345 -16 m 0
 180 -16 77 86 77 248 c 2
 77 711 l 1
 163 711 l 1
 163 248 l 2
 163 133 229 68 345 68 c 0
 460 68 526 133 526 248 c 2
 526 711 l 1
 612 711 l 1
 612 248 l 2
 612 86 509 -16 345 -16 c 0
EndSplineSet
Substitution2: "'ss08' Style Set 8 in Latin lookup 41 subtable" Udieresis.ss08
Substitution2: "'aalt' Access All Alternates in Latin lookup 0 subtable" Udieresis.ss08
EndChar

StartChar: Ugrave
Encoding: 217 217 109
Width: 689
GlyphClass: 2
Flags: MW
HStem: -16 84<287 402.5 287 427> 691 20G<77 163 163 163 526 612 612 612> 783 128<314 314 314 318 224 384>
VStem: 77 86<248 711> 526 86<248 711>
AnchorPoint: "Anchor-3" 345 710 basechar 0
AnchorPoint: "Anchor-2" 457 3 basechar 0
AnchorPoint: "Anchor-0" 345 0 basechar 0
LayerCount: 2
Fore
SplineSet
314 783 m 1
 224 911 l 1
 318 911 l 1
 384 783 l 1
 314 783 l 1
345 -16 m 0
 180 -16 77 86 77 248 c 2
 77 711 l 1
 163 711 l 1
 163 248 l 2
 163 133 229 68 345 68 c 0
 460 68 526 133 526 248 c 2
 526 711 l 1
 612 711 l 1
 612 248 l 2
 612 86 509 -16 345 -16 c 0
EndSplineSet
EndChar

StartChar: Uhungarumlaut
Encoding: 368 368 110
Width: 689
GlyphClass: 2
Flags: MW
HStem: -16 84<287 402.5 287 427> 691 20G<77 163 163 163 526 612 612 612> 778 128<241 401 307 311 372 401 438 442 372 372>
VStem: 77 86<248 711> 526 86<248 711>
AnchorPoint: "Anchor-3" 345 710 basechar 0
AnchorPoint: "Anchor-2" 457 3 basechar 0
AnchorPoint: "Anchor-0" 345 0 basechar 0
LayerCount: 2
Fore
SplineSet
241 778 m 1
 307 906 l 1
 401 906 l 1
 311 778 l 1
 241 778 l 1
372 778 m 1
 438 906 l 1
 532 906 l 1
 442 778 l 1
 372 778 l 1
345 -16 m 0
 180 -16 77 86 77 248 c 2
 77 711 l 1
 163 711 l 1
 163 248 l 2
 163 133 229 68 345 68 c 0
 460 68 526 133 526 248 c 2
 526 711 l 1
 612 711 l 1
 612 248 l 2
 612 86 509 -16 345 -16 c 0
EndSplineSet
EndChar

StartChar: Umacron
Encoding: 362 362 111
Width: 689
GlyphClass: 2
Flags: MW
HStem: -16 84<287 402.5 287 427> 691 20G<77 163 163 163 526 612 612 612> 805 72<211 479 211 479>
VStem: 77 86<248 711> 211 268<805 877 805 877> 526 86<248 711>
AnchorPoint: "Anchor-3" 345 710 basechar 0
AnchorPoint: "Anchor-2" 457 3 basechar 0
AnchorPoint: "Anchor-0" 345 0 basechar 0
LayerCount: 2
Fore
SplineSet
211 805 m 1
 211 877 l 1
 479 877 l 1
 479 805 l 1
 211 805 l 1
345 -16 m 0
 180 -16 77 86 77 248 c 2
 77 711 l 1
 163 711 l 1
 163 248 l 2
 163 133 229 68 345 68 c 0
 460 68 526 133 526 248 c 2
 526 711 l 1
 612 711 l 1
 612 248 l 2
 612 86 509 -16 345 -16 c 0
EndSplineSet
EndChar

StartChar: Uogonek
Encoding: 370 370 112
Width: 689
GlyphClass: 2
Flags: MW
HStem: -207 68<411.5 423.5> -16 84<287 350> 691 20G<77 163 163 163 526 612 612 612>
VStem: 77 86<248 711> 313 78<-121 -118> 526 86<248 711>
AnchorPoint: "Anchor-3" 345 710 basechar 0
AnchorPoint: "Anchor-2" 457 3 basechar 0
AnchorPoint: "Anchor-0" 345 0 basechar 0
LayerCount: 2
Fore
SplineSet
345 -16 m 0
 180 -16 77 86 77 248 c 2
 77 711 l 1
 163 711 l 1
 163 248 l 2
 163 133 229 68 345 68 c 0
 460 68 526 133 526 248 c 2
 526 711 l 1
 612 711 l 1
 612 248 l 2
 612 127 554 39 457 3 c 1
 422 -45 l 2
 397 -80 391 -97 391 -113 c 0
 391 -129 403 -139 420 -139 c 0
 439 -139 455 -134 468 -125 c 1
 492 -181 l 1
 477 -196 441 -207 406 -207 c 0
 349 -207 313 -183 313 -137 c 0
 313 -99 343 -56 370 -19 c 2
 373 -15 l 1
 364 -16 355 -16 345 -16 c 0
EndSplineSet
EndChar

StartChar: Uring
Encoding: 366 366 113
Width: 689
GlyphClass: 2
Flags: MW
HStem: -16 84<287 402.5 287 427> 691 20G<77 163 163 163 526 612 612 612> 756 50<333 357 333 371> 890 50<333 357>
VStem: 77 86<248 711> 253 50<836 860 836 874> 387 50<836 860> 526 86<248 711>
AnchorPoint: "Anchor-3" 345 710 basechar 0
AnchorPoint: "Anchor-2" 457 3 basechar 0
AnchorPoint: "Anchor-0" 345 0 basechar 0
LayerCount: 2
Fore
SplineSet
345 756 m 0
 293 756 253 796 253 848 c 0
 253 900 293 940 345 940 c 0
 397 940 437 900 437 848 c 0
 437 796 397 756 345 756 c 0
345 806 m 0
 369 806 387 824 387 848 c 0
 387 872 369 890 345 890 c 0
 321 890 303 872 303 848 c 0
 303 824 321 806 345 806 c 0
345 -16 m 0
 180 -16 77 86 77 248 c 2
 77 711 l 1
 163 711 l 1
 163 248 l 2
 163 133 229 68 345 68 c 0
 460 68 526 133 526 248 c 2
 526 711 l 1
 612 711 l 1
 612 248 l 2
 612 86 509 -16 345 -16 c 0
EndSplineSet
EndChar

StartChar: Utilde
Encoding: 360 360 114
Width: 689
GlyphClass: 2
Flags: MW
HStem: -16 84<287 402.5 287 427> 691 20G<77 163 163 163 526 612 612 612> 790 56<400 420.5 400 432.5> 844 56<270 292>
VStem: 77 86<248 711> 187 52<783 783> 450 52<910 910> 526 86<248 711>
AnchorPoint: "Anchor-3" 345 710 basechar 0
AnchorPoint: "Anchor-2" 457 3 basechar 0
AnchorPoint: "Anchor-0" 345 0 basechar 0
LayerCount: 2
Fore
SplineSet
404 790 m 0xea
 378 790 356 800 334 818 c 0
 311 837 302 844 282 844 c 0
 258 844 241 831 239 783 c 1
 187 783 l 1
 189 860 228 900 282 900 c 0xd5
 314 900 335 889 358 870 c 0
 379 853 392 846 408 846 c 0
 433 846 446 860 450 910 c 1
 502 910 l 1
 498 834 461 790 404 790 c 0xea
345 -16 m 0
 180 -16 77 86 77 248 c 2
 77 711 l 1
 163 711 l 1
 163 248 l 2xd9
 163 133 229 68 345 68 c 0
 460 68 526 133 526 248 c 2
 526 711 l 1
 612 711 l 1
 612 248 l 2
 612 86 509 -16 345 -16 c 0
EndSplineSet
EndChar

StartChar: V
Encoding: 86 86 115
Width: 667
GlyphClass: 2
Flags: MW
HStem: 0 21G<277 277 277 390> 0 94<277 334 334 334 334 390> 690 20G<20 114 114 114 553 647 647 647>
VStem: 20 627<710 710>
AnchorPoint: "Anchor-3" 334 710 basechar 0
AnchorPoint: "Anchor-0" 334 0 basechar 0
LayerCount: 2
Fore
SplineSet
277 0 m 1xb0
 20 710 l 1
 114 710 l 1
 334 94 l 1x70
 553 710 l 1
 647 710 l 1
 390 0 l 1
 277 0 l 1xb0
EndSplineSet
EndChar

StartChar: W
Encoding: 87 87 116
Width: 945
GlyphClass: 2
Flags: MW
HStem: 0 21G<225 225 225 332 612 612 612 720> 0 118<225 278 278 278 278 332> 690 20G<38 132 132 132 423 521 521 521 812 907 907 907>
VStem: 38 869<710 710>
AnchorPoint: "Anchor-3" 472 710 basechar 0
AnchorPoint: "Anchor-0" 472 0 basechar 0
LayerCount: 2
Fore
SplineSet
225 0 m 1xb0
 38 710 l 1
 132 710 l 1
 278 118 l 1
 423 710 l 1
 521 710 l 1
 667 118 l 1x70
 812 710 l 1
 907 710 l 1
 720 0 l 1
 612 0 l 1
 472 550 l 1
 332 0 l 1
 225 0 l 1xb0
EndSplineSet
EndChar

StartChar: Wacute
Encoding: 7810 7810 117
Width: 945
GlyphClass: 2
Flags: MW
HStem: 0 21G<225 225 225 332 612 612 612 720> 0 118<225 278 278 278 278 332> 690 20G<38 132 132 132 423 521 521 521 812 907 907 907> 778 128<435 595 501 505>
VStem: 38 869<710 710>
AnchorPoint: "Anchor-3" 472 710 basechar 0
AnchorPoint: "Anchor-0" 472 0 basechar 0
LayerCount: 2
Fore
SplineSet
435 778 m 1xb8
 501 906 l 1
 595 906 l 1
 505 778 l 1
 435 778 l 1xb8
225 0 m 1
 38 710 l 1
 132 710 l 1
 278 118 l 1
 423 710 l 1
 521 710 l 1
 667 118 l 1x78
 812 710 l 1
 907 710 l 1
 720 0 l 1
 612 0 l 1
 472 550 l 1
 332 0 l 1
 225 0 l 1
EndSplineSet
EndChar

StartChar: Wcircumflex
Encoding: 372 372 118
Width: 945
GlyphClass: 2
Flags: MW
HStem: 0 21G<225 225 225 332 612 612 612 720> 0 118<225 278 278 278 278 332> 690 20G<38 132 132 132 423 521 521 521 812 907 907 907> 778 133<335 519 335 519 425 539 425 609>
VStem: 38 869<710 710>
AnchorPoint: "Anchor-3" 472 710 basechar 0
AnchorPoint: "Anchor-0" 472 0 basechar 0
LayerCount: 2
Fore
SplineSet
335 778 m 1xb8
 425 911 l 1
 519 911 l 1
 609 778 l 1
 539 778 l 1
 472 867 l 1
 405 778 l 1
 335 778 l 1xb8
225 0 m 1
 38 710 l 1
 132 710 l 1
 278 118 l 1
 423 710 l 1
 521 710 l 1
 667 118 l 1x78
 812 710 l 1
 907 710 l 1
 720 0 l 1
 612 0 l 1
 472 550 l 1
 332 0 l 1
 225 0 l 1
EndSplineSet
EndChar

StartChar: Wdieresis
Encoding: 7812 7812 119
Width: 945
GlyphClass: 2
Flags: MW
HStem: 0 21G<225 225 225 332 612 612 612 720> 0 118<225 278 278 278 278 332> 690 20G<38 132 132 132 423 521 521 521 812 907 907 907> 793 98<341 429 341 429 515 603 341 515>
VStem: 341 88<793 891 793 891> 515 88<793 891 793 891>
AnchorPoint: "Anchor-3" 472 710 basechar 0
AnchorPoint: "Anchor-0" 472 0 basechar 0
LayerCount: 2
Fore
SplineSet
341 793 m 1xbc
 341 891 l 1
 429 891 l 1
 429 793 l 1
 341 793 l 1xbc
515 793 m 1
 515 891 l 1
 603 891 l 1
 603 793 l 1
 515 793 l 1
225 0 m 1
 38 710 l 1
 132 710 l 1
 278 118 l 1
 423 710 l 1
 521 710 l 1
 667 118 l 1x7c
 812 710 l 1
 907 710 l 1
 720 0 l 1
 612 0 l 1
 472 550 l 1
 332 0 l 1
 225 0 l 1
EndSplineSet
Substitution2: "'ss08' Style Set 8 in Latin lookup 41 subtable" Wdieresis.ss08
Substitution2: "'aalt' Access All Alternates in Latin lookup 0 subtable" Wdieresis.ss08
EndChar

StartChar: Wgrave
Encoding: 7808 7808 120
Width: 945
GlyphClass: 2
Flags: MW
HStem: 0 21G<225 225 225 332 612 612 612 720> 0 118<225 278 278 278 278 332> 690 20G<38 132 132 132 423 521 521 521 812 907 907 907> 783 128<441 441 441 445 351 511>
VStem: 38 869<710 710>
AnchorPoint: "Anchor-3" 472 710 basechar 0
AnchorPoint: "Anchor-0" 472 0 basechar 0
LayerCount: 2
Fore
SplineSet
441 783 m 1xb8
 351 911 l 1
 445 911 l 1
 511 783 l 1
 441 783 l 1xb8
225 0 m 1
 38 710 l 1
 132 710 l 1
 278 118 l 1
 423 710 l 1
 521 710 l 1
 667 118 l 1x78
 812 710 l 1
 907 710 l 1
 720 0 l 1
 612 0 l 1
 472 550 l 1
 332 0 l 1
 225 0 l 1
EndSplineSet
EndChar

StartChar: X
Encoding: 88 88 121
Width: 606
GlyphClass: 2
Flags: MW
HStem: 0 21G<15 15 15 115 489 489 489 591> 690 20G<17 119 119 119 487 587 587 587>
VStem: 15 576<0 0>
AnchorPoint: "Anchor-3" 303 710 basechar 0
AnchorPoint: "Anchor-0" 303 0 basechar 0
LayerCount: 2
Fore
SplineSet
15 0 m 1
 248 356 l 1
 17 710 l 1
 119 710 l 1
 304 424 l 1
 487 710 l 1
 587 710 l 1
 356 358 l 1
 591 0 l 1
 489 0 l 1
 302 290 l 1
 115 0 l 1
 15 0 l 1
EndSplineSet
EndChar

StartChar: Y
Encoding: 89 89 122
Width: 576
GlyphClass: 2
Flags: MW
HStem: 0 21G<245 245 245 331> 690 20G<-6 96 96 96 480 582 582 582>
VStem: 245 86<0 290 0 290>
AnchorPoint: "Anchor-3" 288 710 basechar 0
AnchorPoint: "Anchor-0" 288 0 basechar 0
LayerCount: 2
Fore
SplineSet
245 0 m 1
 245 290 l 1
 -6 710 l 1
 96 710 l 1
 288 378 l 1
 480 710 l 1
 582 710 l 1
 331 290 l 1
 331 0 l 1
 245 0 l 1
EndSplineSet
EndChar

StartChar: Yacute
Encoding: 221 221 123
Width: 576
GlyphClass: 2
Flags: MW
HStem: 0 21G<245 245 245 331> 690 20G<-6 96 96 96 480 582 582 582> 778 128<251 411 317 321>
VStem: 245 86<0 290 0 290>
AnchorPoint: "Anchor-3" 288 710 basechar 0
AnchorPoint: "Anchor-0" 288 0 basechar 0
LayerCount: 2
Fore
SplineSet
251 778 m 1
 317 906 l 1
 411 906 l 1
 321 778 l 1
 251 778 l 1
245 0 m 1
 245 290 l 1
 -6 710 l 1
 96 710 l 1
 288 378 l 1
 480 710 l 1
 582 710 l 1
 331 290 l 1
 331 0 l 1
 245 0 l 1
EndSplineSet
EndChar

StartChar: Ycircumflex
Encoding: 374 374 124
Width: 576
GlyphClass: 2
Flags: MW
HStem: 0 21G<245 245 245 331> 690 20G<-6 96 96 96 480 582 582 582> 778 133<151 335 151 335 241 355 241 425>
VStem: 245 86<0 290 0 290>
AnchorPoint: "Anchor-3" 288 710 basechar 0
AnchorPoint: "Anchor-0" 288 0 basechar 0
LayerCount: 2
Fore
SplineSet
151 778 m 1
 241 911 l 1
 335 911 l 1
 425 778 l 1
 355 778 l 1
 288 867 l 1
 221 778 l 1
 151 778 l 1
245 0 m 1
 245 290 l 1
 -6 710 l 1
 96 710 l 1
 288 378 l 1
 480 710 l 1
 582 710 l 1
 331 290 l 1
 331 0 l 1
 245 0 l 1
EndSplineSet
EndChar

StartChar: Ydieresis
Encoding: 376 376 125
Width: 576
GlyphClass: 2
Flags: MW
HStem: 0 21G<245 245 245 331> 690 20G<-6 96 96 96 480 582 582 582> 793 98<157 245 157 245 331 419 157 331>
VStem: 157 88<793 891> 245 86<0 290 0 290 793 891> 331 88<793 891 793 891>
AnchorPoint: "Anchor-3" 288 710 basechar 0
AnchorPoint: "Anchor-0" 288 0 basechar 0
LayerCount: 2
Fore
SplineSet
157 793 m 1xf4
 157 891 l 1
 245 891 l 1
 245 793 l 1
 157 793 l 1xf4
331 793 m 1
 331 891 l 1
 419 891 l 1
 419 793 l 1
 331 793 l 1
245 0 m 1xe8
 245 290 l 1
 -6 710 l 1
 96 710 l 1
 288 378 l 1
 480 710 l 1
 582 710 l 1
 331 290 l 1
 331 0 l 1
 245 0 l 1xe8
EndSplineSet
Substitution2: "'ss08' Style Set 8 in Latin lookup 41 subtable" Ydieresis.ss08
Substitution2: "'aalt' Access All Alternates in Latin lookup 0 subtable" Ydieresis.ss08
EndChar

StartChar: Ygrave
Encoding: 7922 7922 126
Width: 576
GlyphClass: 2
Flags: MW
HStem: 0 21G<245 245 245 331> 690 20G<-6 96 96 96 480 582 582 582> 783 128<257 257 257 261 167 327>
VStem: 245 86<0 290 0 290>
AnchorPoint: "Anchor-3" 288 710 basechar 0
AnchorPoint: "Anchor-0" 288 0 basechar 0
LayerCount: 2
Fore
SplineSet
257 783 m 1
 167 911 l 1
 261 911 l 1
 327 783 l 1
 257 783 l 1
245 0 m 1
 245 290 l 1
 -6 710 l 1
 96 710 l 1
 288 378 l 1
 480 710 l 1
 582 710 l 1
 331 290 l 1
 331 0 l 1
 245 0 l 1
EndSplineSet
EndChar

StartChar: uni1EF8
Encoding: 7928 7928 127
Width: 576
GlyphClass: 2
Flags: MW
HStem: 0 21G<245 245 245 331> 690 20G<-6 96 96 96 480 582 582 582> 790 56<343 363.5 343 375.5> 844 56<213 235>
VStem: 130 52<783 783> 245 86<0 290 0 290> 393 52<910 910>
AnchorPoint: "Anchor-3" 288 710 basechar 0
AnchorPoint: "Anchor-0" 288 0 basechar 0
LayerCount: 2
Fore
SplineSet
347 790 m 0xe6
 321 790 299 800 277 818 c 0
 254 837 245 844 225 844 c 0
 201 844 184 831 182 783 c 1
 130 783 l 1
 132 860 171 900 225 900 c 0xdc
 257 900 278 889 301 870 c 0
 322 853 335 846 351 846 c 0
 376 846 389 860 393 910 c 1
 445 910 l 1
 441 834 404 790 347 790 c 0xe6
245 0 m 1
 245 290 l 1
 -6 710 l 1
 96 710 l 1
 288 378 l 1
 480 710 l 1
 582 710 l 1
 331 290 l 1
 331 0 l 1
 245 0 l 1
EndSplineSet
EndChar

StartChar: Z
Encoding: 90 90 128
Width: 544
GlyphClass: 2
Flags: MW
HStem: 0 84<126 516 126 516> 626 84<41 408 41 506>
VStem: 28 488<0 84 0 88 0 88>
AnchorPoint: "Anchor-3" 280 710 basechar 0
AnchorPoint: "Anchor-0" 280 0 basechar 0
LayerCount: 2
Fore
SplineSet
28 0 m 1
 28 88 l 1
 408 626 l 1
 41 626 l 1
 41 710 l 1
 506 710 l 1
 506 622 l 1
 126 84 l 1
 516 84 l 1
 516 0 l 1
 28 0 l 1
EndSplineSet
EndChar

StartChar: Zacute
Encoding: 377 377 129
Width: 544
GlyphClass: 2
Flags: MW
HStem: 0 84<126 516 126 516> 626 84<41 408 41 506> 778 128<243 403 309 313>
VStem: 28 488<0 84 0 88 0 88>
AnchorPoint: "Anchor-3" 280 710 basechar 0
AnchorPoint: "Anchor-0" 280 0 basechar 0
LayerCount: 2
Fore
SplineSet
243 778 m 1
 309 906 l 1
 403 906 l 1
 313 778 l 1
 243 778 l 1
28 0 m 1
 28 88 l 1
 408 626 l 1
 41 626 l 1
 41 710 l 1
 506 710 l 1
 506 622 l 1
 126 84 l 1
 516 84 l 1
 516 0 l 1
 28 0 l 1
EndSplineSet
EndChar

StartChar: Zcaron
Encoding: 381 381 130
Width: 544
GlyphClass: 2
Flags: MW
HStem: 0 84<126 516 126 516> 626 84<41 408 41 506> 778 133<143 327 143 233>
VStem: 28 488<0 84 0 88 0 88>
AnchorPoint: "Anchor-3" 280 710 basechar 0
AnchorPoint: "Anchor-0" 280 0 basechar 0
LayerCount: 2
Fore
SplineSet
143 911 m 1
 213 911 l 1
 280 822 l 1
 347 911 l 1
 417 911 l 1
 327 778 l 1
 233 778 l 1
 143 911 l 1
28 0 m 1
 28 88 l 1
 408 626 l 1
 41 626 l 1
 41 710 l 1
 506 710 l 1
 506 622 l 1
 126 84 l 1
 516 84 l 1
 516 0 l 1
 28 0 l 1
EndSplineSet
EndChar

StartChar: Zdotaccent
Encoding: 379 379 131
Width: 544
GlyphClass: 2
Flags: MW
HStem: 0 84<126 516 126 516> 626 84<41 408 41 506> 793 98<236 324 236 324>
VStem: 236 88<793 891 793 891>
AnchorPoint: "Anchor-3" 280 710 basechar 0
AnchorPoint: "Anchor-0" 280 0 basechar 0
LayerCount: 2
Fore
SplineSet
236 793 m 1
 236 891 l 1
 324 891 l 1
 324 793 l 1
 236 793 l 1
28 0 m 1
 28 88 l 1
 408 626 l 1
 41 626 l 1
 41 710 l 1
 506 710 l 1
 506 622 l 1
 126 84 l 1
 516 84 l 1
 516 0 l 1
 28 0 l 1
EndSplineSet
Substitution2: "'ss08' Style Set 8 in Latin lookup 41 subtable" Zdotaccent.ss08
Substitution2: "'aalt' Access All Alternates in Latin lookup 0 subtable" Zdotaccent.ss08
EndChar

StartChar: uniA78B
Encoding: 42891 42891 132
Width: 176
GlyphClass: 1
Flags: MW
HStem: 690 20G<45 131 131 131>
VStem: 45 86<590 710 590 710>
LayerCount: 2
Fore
SplineSet
57 350 m 1
 45 590 l 1
 45 710 l 1
 131 710 l 1
 131 590 l 1
 119 350 l 1
 57 350 l 1
EndSplineSet
EndChar

StartChar: uni013B.loclMAH
Encoding: 65538 -1 133
Width: 580
GlyphClass: 2
Flags: MW
HStem: -143 90<263 299 263 363> 0 84<178 533 178 533> 690 20G<92 178 178 178>
VStem: 92 86<84 710 84 710 84 710> 263 100<-135 -53 -135 -53 -135 -53>
AnchorPoint: "Anchor-4" 380 530 basechar 0
AnchorPoint: "Anchor-3" 135 710 basechar 0
AnchorPoint: "Anchor-1" 174 380 basechar 0
AnchorPoint: "Anchor-0" 313 -240 basechar 0
LayerCount: 2
Fore
SplineSet
92 0 m 1
 92 710 l 1
 178 710 l 1
 178 84 l 1
 533 84 l 1
 533 0 l 1
 92 0 l 1
244 -240 m 1
 299 -143 l 1
 263 -143 l 1
 263 -53 l 1
 363 -53 l 1
 363 -135 l 1
 302 -240 l 1
 244 -240 l 1
EndSplineSet
EndChar

StartChar: uni0145.loclMAH
Encoding: 65539 -1 134
Width: 743
GlyphClass: 2
Flags: MW
HStem: -143 90<320 356 320 420> 0 21G<92 92 92 178 523 523 523 651> 0 86<523 565 565 565 565 651> 612 98<178 178> 690 20G<92 214 214 214 565 651 651 651>
VStem: 92 86<0 612 0 710> 320 100<-135 -53 -135 -53 -135 -53> 565 86<86 710 0 710>
AnchorPoint: "Anchor-3" 386 710 basechar 0
AnchorPoint: "Anchor-0" 370 -240 basechar 0
LayerCount: 2
Fore
SplineSet
92 0 m 1xd7
 92 710 l 1
 214 710 l 1
 565 86 l 1xaf
 565 710 l 1
 651 710 l 1
 651 0 l 1
 523 0 l 1
 178 612 l 1
 178 0 l 1
 92 0 l 1xd7
301 -240 m 1
 356 -143 l 1
 320 -143 l 1
 320 -53 l 1
 420 -53 l 1
 420 -135 l 1
 359 -240 l 1
 301 -240 l 1
EndSplineSet
EndChar

StartChar: R.ss04
Encoding: 65540 -1 135
Width: 678
GlyphClass: 2
Flags: MW
HStem: 0 21G<92 92 92 178 521 521 521 616> 286 84<178 347 347 358 178 347> 626 84<178 347 178 178>
VStem: 92 86<0 286 370 626> 508 90<456 538>
AnchorPoint: "Anchor-3" 332 710 basechar 0
AnchorPoint: "Anchor-0" 332 0 basechar 0
LayerCount: 2
Fore
SplineSet
92 0 m 1
 92 710 l 1
 347 710 l 2
 505 710 598 630 598 495 c 0
 598 396 544 325 446 299 c 1
 616 0 l 1
 521 0 l 1
 358 286 l 1
 178 286 l 1
 178 0 l 1
 92 0 l 1
178 370 m 1
 347 370 l 2
 451 370 508 415 508 497 c 0
 508 579 451 626 347 626 c 2
 178 626 l 1
 178 370 l 1
EndSplineSet
EndChar

StartChar: Racute.ss04
Encoding: 65541 -1 136
Width: 678
GlyphClass: 2
Flags: MW
HStem: 0 21G<92 92 92 178 521 521 521 616> 286 84<178 347 347 358 178 347> 626 84<178 347 178 178> 778 128<295 455 361 365>
VStem: 92 86<0 286 370 626> 508 90<456 538>
AnchorPoint: "Anchor-3" 332 710 basechar 0
AnchorPoint: "Anchor-0" 332 0 basechar 0
LayerCount: 2
Fore
SplineSet
295 778 m 1
 361 906 l 1
 455 906 l 1
 365 778 l 1
 295 778 l 1
92 0 m 1
 92 710 l 1
 347 710 l 2
 505 710 598 630 598 495 c 0
 598 396 544 325 446 299 c 1
 616 0 l 1
 521 0 l 1
 358 286 l 1
 178 286 l 1
 178 0 l 1
 92 0 l 1
178 370 m 1
 347 370 l 2
 451 370 508 415 508 497 c 0
 508 579 451 626 347 626 c 2
 178 626 l 1
 178 370 l 1
EndSplineSet
EndChar

StartChar: Rcaron.ss04
Encoding: 65542 -1 137
Width: 678
GlyphClass: 2
Flags: MW
HStem: 0 21G<92 92 92 178 521 521 521 616> 286 84<178 347 347 358 178 347> 626 84<178 347 178 178> 778 133<195 379 195 285>
VStem: 92 86<0 286 370 626> 508 90<456 538>
AnchorPoint: "Anchor-3" 332 710 basechar 0
AnchorPoint: "Anchor-0" 332 0 basechar 0
LayerCount: 2
Fore
SplineSet
195 911 m 1
 265 911 l 1
 332 822 l 1
 399 911 l 1
 469 911 l 1
 379 778 l 1
 285 778 l 1
 195 911 l 1
92 0 m 1
 92 710 l 1
 347 710 l 2
 505 710 598 630 598 495 c 0
 598 396 544 325 446 299 c 1
 616 0 l 1
 521 0 l 1
 358 286 l 1
 178 286 l 1
 178 0 l 1
 92 0 l 1
178 370 m 1
 347 370 l 2
 451 370 508 415 508 497 c 0
 508 579 451 626 347 626 c 2
 178 626 l 1
 178 370 l 1
EndSplineSet
EndChar

StartChar: uni0156.ss04
Encoding: 65543 -1 138
Width: 678
GlyphClass: 2
Flags: MW
HStem: -143 90<282 318 282 382> 0 21G<92 92 92 178 521 521 521 616> 286 84<178 347 347 358 178 347> 626 84<178 347 178 178>
VStem: 92 86<0 286 370 626> 282 100<-135 -53 -135 -53 -135 -53> 508 90<456 538>
AnchorPoint: "Anchor-3" 332 710 basechar 0
AnchorPoint: "Anchor-0" 332 -240 basechar 0
LayerCount: 2
Fore
SplineSet
92 0 m 1
 92 710 l 1
 347 710 l 2
 505 710 598 630 598 495 c 0
 598 396 544 325 446 299 c 1
 616 0 l 1
 521 0 l 1
 358 286 l 1
 178 286 l 1
 178 0 l 1
 92 0 l 1
178 370 m 1
 347 370 l 2
 451 370 508 415 508 497 c 0
 508 579 451 626 347 626 c 2
 178 626 l 1
 178 370 l 1
263 -240 m 1
 318 -143 l 1
 282 -143 l 1
 282 -53 l 1
 382 -53 l 1
 382 -135 l 1
 321 -240 l 1
 263 -240 l 1
EndSplineSet
EndChar

StartChar: I.ss05
Encoding: 65544 -1 139
Width: 426
GlyphClass: 2
Flags: MW
HStem: 0 84<45 170 45 170 256 381> 626 84<51 170 51 375 256 256 256 375>
VStem: 170 86<84 626 84 626>
AnchorPoint: "Anchor-3" 213 710 basechar 0
AnchorPoint: "Anchor-2" 381 0 basechar 0
AnchorPoint: "Anchor-0" 213 0 basechar 0
LayerCount: 2
Fore
SplineSet
45 0 m 1
 45 84 l 1
 170 84 l 1
 170 626 l 1
 51 626 l 1
 51 710 l 1
 375 710 l 1
 375 626 l 1
 256 626 l 1
 256 84 l 1
 381 84 l 1
 381 0 l 1
 45 0 l 1
EndSplineSet
EndChar

StartChar: Iacute.ss05
Encoding: 65545 -1 140
Width: 426
GlyphClass: 2
Flags: MW
HStem: 0 84<45 170 45 170 256 381> 626 84<51 170 51 375 256 256 256 375> 778 128<176 336 242 246>
VStem: 170 86<84 626 84 626>
AnchorPoint: "Anchor-3" 213 710 basechar 0
AnchorPoint: "Anchor-2" 381 0 basechar 0
AnchorPoint: "Anchor-0" 213 0 basechar 0
LayerCount: 2
Fore
SplineSet
176 778 m 1
 242 906 l 1
 336 906 l 1
 246 778 l 1
 176 778 l 1
45 0 m 1
 45 84 l 1
 170 84 l 1
 170 626 l 1
 51 626 l 1
 51 710 l 1
 375 710 l 1
 375 626 l 1
 256 626 l 1
 256 84 l 1
 381 84 l 1
 381 0 l 1
 45 0 l 1
EndSplineSet
EndChar

StartChar: Icircumflex.ss05
Encoding: 65546 -1 141
Width: 426
GlyphClass: 2
Flags: MW
HStem: 0 84<45 170 45 170 256 381> 626 84<51 170 51 375 256 256 256 375> 778 133<76 260 76 260 166 280 166 350>
VStem: 170 86<84 626 84 626>
AnchorPoint: "Anchor-3" 213 710 basechar 0
AnchorPoint: "Anchor-2" 381 0 basechar 0
AnchorPoint: "Anchor-0" 213 0 basechar 0
LayerCount: 2
Fore
SplineSet
76 778 m 1
 166 911 l 1
 260 911 l 1
 350 778 l 1
 280 778 l 1
 213 867 l 1
 146 778 l 1
 76 778 l 1
45 0 m 1
 45 84 l 1
 170 84 l 1
 170 626 l 1
 51 626 l 1
 51 710 l 1
 375 710 l 1
 375 626 l 1
 256 626 l 1
 256 84 l 1
 381 84 l 1
 381 0 l 1
 45 0 l 1
EndSplineSet
EndChar

StartChar: Idieresis.ss05
Encoding: 65547 -1 142
Width: 426
GlyphClass: 2
Flags: MW
HStem: 0 84<45 170 45 170 256 381> 626 84<51 170 51 375 256 256 256 375> 793 98<82 170 82 170 256 344 82 256>
VStem: 82 88<793 891> 170 86<84 626 84 626 793 891> 256 88<793 891 793 891>
AnchorPoint: "Anchor-3" 213 710 basechar 0
AnchorPoint: "Anchor-2" 381 0 basechar 0
AnchorPoint: "Anchor-0" 213 0 basechar 0
LayerCount: 2
Fore
SplineSet
82 793 m 1xf4
 82 891 l 1
 170 891 l 1
 170 793 l 1
 82 793 l 1xf4
256 793 m 1
 256 891 l 1
 344 891 l 1
 344 793 l 1
 256 793 l 1
45 0 m 1
 45 84 l 1
 170 84 l 1
 170 626 l 1
 51 626 l 1
 51 710 l 1
 375 710 l 1
 375 626 l 1
 256 626 l 1
 256 84 l 1xe8
 381 84 l 1
 381 0 l 1
 45 0 l 1
EndSplineSet
Substitution2: "'ss08' Style Set 8 in Latin lookup 41 subtable" Idieresis.ss05.ss08
Substitution2: "'aalt' Access All Alternates in Latin lookup 0 subtable" Idieresis.ss05.ss08
EndChar

StartChar: Idotaccent.ss05
Encoding: 65548 -1 143
Width: 426
GlyphClass: 2
Flags: MW
HStem: 0 84<45 170 45 170 256 381> 626 84<51 170 51 375 256 256 256 375> 793 98<169 257 169 257>
VStem: 169 88<793 891 793 891> 170 86<84 626 84 626>
AnchorPoint: "Anchor-3" 213 710 basechar 0
AnchorPoint: "Anchor-2" 381 0 basechar 0
AnchorPoint: "Anchor-0" 213 0 basechar 0
LayerCount: 2
Fore
SplineSet
169 793 m 1xf0
 169 891 l 1
 257 891 l 1
 257 793 l 1
 169 793 l 1xf0
45 0 m 1
 45 84 l 1
 170 84 l 1
 170 626 l 1
 51 626 l 1
 51 710 l 1
 375 710 l 1
 375 626 l 1
 256 626 l 1
 256 84 l 1xe8
 381 84 l 1
 381 0 l 1
 45 0 l 1
EndSplineSet
Substitution2: "'ss08' Style Set 8 in Latin lookup 41 subtable" Idotaccent.ss05.ss08
Substitution2: "'aalt' Access All Alternates in Latin lookup 0 subtable" Idotaccent.ss05.ss08
EndChar

StartChar: Igrave.ss05
Encoding: 65549 -1 144
Width: 426
GlyphClass: 2
Flags: MW
HStem: 0 84<45 170 45 170 256 381> 626 84<51 170 51 375 256 256 256 375> 783 128<182 182 182 186 92 252>
VStem: 170 86<84 626 84 626>
AnchorPoint: "Anchor-3" 213 710 basechar 0
AnchorPoint: "Anchor-2" 381 0 basechar 0
AnchorPoint: "Anchor-0" 213 0 basechar 0
LayerCount: 2
Fore
SplineSet
182 783 m 1
 92 911 l 1
 186 911 l 1
 252 783 l 1
 182 783 l 1
45 0 m 1
 45 84 l 1
 170 84 l 1
 170 626 l 1
 51 626 l 1
 51 710 l 1
 375 710 l 1
 375 626 l 1
 256 626 l 1
 256 84 l 1
 381 84 l 1
 381 0 l 1
 45 0 l 1
EndSplineSet
EndChar

StartChar: Imacron.ss05
Encoding: 65550 -1 145
Width: 426
GlyphClass: 2
Flags: MW
HStem: 0 84<45 170 45 170 256 381> 626 84<51 170 51 375 256 256 256 375> 805 72<79 347 79 347>
VStem: 79 268<805 877 805 877> 170 86<84 626 84 626>
AnchorPoint: "Anchor-3" 213 710 basechar 0
AnchorPoint: "Anchor-2" 381 0 basechar 0
AnchorPoint: "Anchor-0" 213 0 basechar 0
LayerCount: 2
Fore
SplineSet
79 805 m 1xf0
 79 877 l 1
 347 877 l 1
 347 805 l 1
 79 805 l 1xf0
45 0 m 1
 45 84 l 1
 170 84 l 1
 170 626 l 1
 51 626 l 1
 51 710 l 1
 375 710 l 1
 375 626 l 1
 256 626 l 1
 256 84 l 1xe8
 381 84 l 1
 381 0 l 1
 45 0 l 1
EndSplineSet
EndChar

StartChar: Iogonek.ss05
Encoding: 65551 -1 146
Width: 426
GlyphClass: 2
Flags: MW
HStem: -210 68<335.5 347.5> 0 84<45 170 45 170 256 311> 626 84<51 170 51 375 256 256 256 375>
VStem: 170 86<84 626 84 626> 237 78<-124 -121>
AnchorPoint: "Anchor-3" 213 710 basechar 0
AnchorPoint: "Anchor-2" 381 0 basechar 0
AnchorPoint: "Anchor-0" 213 0 basechar 0
LayerCount: 2
Fore
SplineSet
45 0 m 1xe8
 45 84 l 1
 170 84 l 1
 170 626 l 1
 51 626 l 1
 51 710 l 1
 375 710 l 1
 375 626 l 1
 256 626 l 1
 256 84 l 1x70
 381 84 l 1
 381 0 l 1
 346 -48 l 2
 321 -83 315 -100 315 -116 c 0
 315 -132 327 -142 344 -142 c 0
 363 -142 379 -137 392 -128 c 1
 416 -184 l 1
 401 -199 365 -210 330 -210 c 0
 273 -210 237 -186 237 -140 c 0
 237 -102 267 -59 294 -22 c 2
 311 0 l 1
 45 0 l 1xe8
EndSplineSet
EndChar

StartChar: Itilde.ss05
Encoding: 65552 -1 147
Width: 426
GlyphClass: 2
Flags: MW
HStem: 0 84<45 170 45 170 256 381> 626 84<51 170 51 375 256 256 256 375> 790 56<268 288.5 268 300.5> 844 56<138 160>
VStem: 55 52<783 783> 170 86<84 626 84 626> 318 52<910 910>
AnchorPoint: "Anchor-3" 213 710 basechar 0
AnchorPoint: "Anchor-2" 381 0 basechar 0
AnchorPoint: "Anchor-0" 213 0 basechar 0
LayerCount: 2
Fore
SplineSet
272 790 m 0xe6
 246 790 224 800 202 818 c 0
 179 837 170 844 150 844 c 0
 126 844 109 831 107 783 c 1
 55 783 l 1
 57 860 96 900 150 900 c 0xdc
 182 900 203 889 226 870 c 0
 247 853 260 846 276 846 c 0
 301 846 314 860 318 910 c 1
 370 910 l 1
 366 834 329 790 272 790 c 0xe6
45 0 m 1
 45 84 l 1
 170 84 l 1
 170 626 l 1
 51 626 l 1
 51 710 l 1
 375 710 l 1
 375 626 l 1
 256 626 l 1
 256 84 l 1
 381 84 l 1
 381 0 l 1
 45 0 l 1
EndSplineSet
EndChar

StartChar: G.ss06
Encoding: 65553 -1 148
Width: 690
GlyphClass: 2
Flags: MW
HStem: -16 84<283.5 429 283.5 455> 277 82<366 570 366 650> 642 84<283.5 426.5>
VStem: 45 90<272.5 431 272.5 457.5> 570 80<277 277>
AnchorPoint: "Anchor-3" 365 710 basechar 0
AnchorPoint: "Anchor-0" 367 0 basechar 0
LayerCount: 2
Fore
SplineSet
362 -16 m 0
 156 -16 45 148 45 354 c 0
 45 561 161 726 366 726 c 0
 527 726 620 632 648 492 c 1
 558 486 l 1
 541 574 487 642 366 642 c 0
 201 642 135 508 135 354 c 0
 135 191 205 68 362 68 c 0
 496 68 566 160 570 277 c 1
 366 277 l 1
 366 359 l 1
 650 359 l 1
 650 315 l 2
 650 107 548 -16 362 -16 c 0
EndSplineSet
EndChar

StartChar: Gbreve.ss06
Encoding: 65554 -1 149
Width: 690
GlyphClass: 2
Flags: MW
HStem: -16 84<283.5 429 283.5 455> 277 82<366 570 366 650> 642 84<283.5 426.5> 783 62<342 388 342 406>
VStem: 45 90<272.5 431 272.5 457.5> 570 80<277 277>
AnchorPoint: "Anchor-3" 365 710 basechar 0
AnchorPoint: "Anchor-0" 367 0 basechar 0
LayerCount: 2
Fore
SplineSet
365 783 m 0
 283 783 229 833 225 911 c 1
 283 911 l 1
 289 865 319 845 365 845 c 0
 411 845 440 865 446 911 c 1
 504 911 l 1
 500 833 447 783 365 783 c 0
362 -16 m 0
 156 -16 45 148 45 354 c 0
 45 561 161 726 366 726 c 0
 527 726 620 632 648 492 c 1
 558 486 l 1
 541 574 487 642 366 642 c 0
 201 642 135 508 135 354 c 0
 135 191 205 68 362 68 c 0
 496 68 566 160 570 277 c 1
 366 277 l 1
 366 359 l 1
 650 359 l 1
 650 315 l 2
 650 107 548 -16 362 -16 c 0
EndSplineSet
EndChar

StartChar: Gcircumflex.ss06
Encoding: 65555 -1 150
Width: 690
GlyphClass: 2
Flags: MW
HStem: -16 84<283.5 429 283.5 455> 277 82<366 570 366 650> 642 84<283.5 426.5> 778 133<228 412 228 412 318 432 318 502>
VStem: 45 90<272.5 431 272.5 457.5> 570 80<277 277>
AnchorPoint: "Anchor-3" 365 710 basechar 0
AnchorPoint: "Anchor-0" 367 0 basechar 0
LayerCount: 2
Fore
SplineSet
228 778 m 1
 318 911 l 1
 412 911 l 1
 502 778 l 1
 432 778 l 1
 365 867 l 1
 298 778 l 1
 228 778 l 1
362 -16 m 0
 156 -16 45 148 45 354 c 0
 45 561 161 726 366 726 c 0
 527 726 620 632 648 492 c 1
 558 486 l 1
 541 574 487 642 366 642 c 0
 201 642 135 508 135 354 c 0
 135 191 205 68 362 68 c 0
 496 68 566 160 570 277 c 1
 366 277 l 1
 366 359 l 1
 650 359 l 1
 650 315 l 2
 650 107 548 -16 362 -16 c 0
EndSplineSet
EndChar

StartChar: uni0122.ss06
Encoding: 65556 -1 151
Width: 690
GlyphClass: 2
Flags: MW
HStem: -143 90<317 353 317 417> -16 84<283.5 429 283.5 455> 277 82<366 570 366 650> 642 84<283.5 426.5>
VStem: 45 90<272.5 431 272.5 457.5> 317 100<-135 -53 -135 -53 -135 -53> 570 80<277 277>
AnchorPoint: "Anchor-3" 365 710 basechar 0
AnchorPoint: "Anchor-0" 367 -240 basechar 0
LayerCount: 2
Fore
SplineSet
362 -16 m 0
 156 -16 45 148 45 354 c 0
 45 561 161 726 366 726 c 0
 527 726 620 632 648 492 c 1
 558 486 l 1
 541 574 487 642 366 642 c 0
 201 642 135 508 135 354 c 0
 135 191 205 68 362 68 c 0
 496 68 566 160 570 277 c 1
 366 277 l 1
 366 359 l 1
 650 359 l 1
 650 315 l 2
 650 107 548 -16 362 -16 c 0
298 -240 m 1
 353 -143 l 1
 317 -143 l 1
 317 -53 l 1
 417 -53 l 1
 417 -135 l 1
 356 -240 l 1
 298 -240 l 1
EndSplineSet
EndChar

StartChar: Gdotaccent.ss06
Encoding: 65557 -1 152
Width: 690
GlyphClass: 2
Flags: MW
HStem: -16 84<283.5 429 283.5 455> 277 82<366 570 366 650> 642 84<283.5 426.5> 793 98<321 409 321 409>
VStem: 45 90<272.5 431 272.5 457.5> 321 88<793 891 793 891> 570 80<277 277>
AnchorPoint: "Anchor-3" 365 710 basechar 0
AnchorPoint: "Anchor-0" 367 0 basechar 0
LayerCount: 2
Fore
SplineSet
321 793 m 1
 321 891 l 1
 409 891 l 1
 409 793 l 1
 321 793 l 1
362 -16 m 0
 156 -16 45 148 45 354 c 0
 45 561 161 726 366 726 c 0
 527 726 620 632 648 492 c 1
 558 486 l 1
 541 574 487 642 366 642 c 0
 201 642 135 508 135 354 c 0
 135 191 205 68 362 68 c 0
 496 68 566 160 570 277 c 1
 366 277 l 1
 366 359 l 1
 650 359 l 1
 650 315 l 2
 650 107 548 -16 362 -16 c 0
EndSplineSet
Substitution2: "'ss08' Style Set 8 in Latin lookup 41 subtable" Gdotaccent.ss06.ss08
Substitution2: "'aalt' Access All Alternates in Latin lookup 0 subtable" Gdotaccent.ss06.ss08
EndChar

StartChar: uni1E20.ss06
Encoding: 65558 -1 153
Width: 690
GlyphClass: 2
Flags: MW
HStem: -16 84<283.5 429 283.5 455> 277 82<366 570 366 650> 642 84<283.5 426.5> 805 72<231 499 231 499>
VStem: 45 90<272.5 431 272.5 457.5> 231 268<805 877 805 877> 570 80<277 277>
AnchorPoint: "Anchor-3" 365 710 basechar 0
AnchorPoint: "Anchor-0" 367 0 basechar 0
LayerCount: 2
Fore
SplineSet
231 805 m 1
 231 877 l 1
 499 877 l 1
 499 805 l 1
 231 805 l 1
362 -16 m 0
 156 -16 45 148 45 354 c 0
 45 561 161 726 366 726 c 0
 527 726 620 632 648 492 c 1
 558 486 l 1
 541 574 487 642 366 642 c 0
 201 642 135 508 135 354 c 0
 135 191 205 68 362 68 c 0
 496 68 566 160 570 277 c 1
 366 277 l 1
 366 359 l 1
 650 359 l 1
 650 315 l 2
 650 107 548 -16 362 -16 c 0
EndSplineSet
EndChar

StartChar: Adieresis.ss08
Encoding: 65559 -1 154
Width: 668
GlyphClass: 2
Flags: MW
HStem: 0 21G<20 20 20 114 554 554 554 648> 202 84<214 454 214 483 185 454> 635 75<334 334> 690 20G<276 392 392 392> 790 100<230 258 410 438>
VStem: 196 96<824.5 854.5> 376 96<824.5 854.5>
AnchorPoint: "Anchor-3" 334 710 basechar 0
AnchorPoint: "Anchor-2" 648 0 basechar 0
AnchorPoint: "Anchor-0" 334 0 basechar 0
LayerCount: 2
Fore
SplineSet
244 790 m 0xde
 216 790 196 809 196 840 c 0
 196 869 216 890 244 890 c 0
 272 890 292 869 292 840 c 0
 292 809 272 790 244 790 c 0xde
424 790 m 0
 396 790 376 809 376 840 c 0
 376 869 396 890 424 890 c 0
 452 890 472 869 472 840 c 0
 472 809 452 790 424 790 c 0
20 0 m 1
 276 710 l 1
 392 710 l 1
 648 0 l 1
 554 0 l 1
 483 202 l 1
 185 202 l 1
 114 0 l 1
 20 0 l 1
214 286 m 1
 454 286 l 1
 334 635 l 1xee
 214 286 l 1
EndSplineSet
EndChar

StartChar: Cdotaccent.ss08
Encoding: 65560 -1 155
Width: 703
GlyphClass: 2
Flags: MW
HStem: -16 84<296 426 296 449> 642 84<296 423> 790 100<349 377>
VStem: 45 90<264 444 264 469> 315 96<824.5 854.5>
AnchorPoint: "Anchor-3" 362 710 basechar 0
AnchorPoint: "Anchor-0" 366 0 basechar 0
LayerCount: 2
Fore
SplineSet
363 790 m 0
 335 790 315 809 315 840 c 0
 315 869 335 890 363 890 c 0
 391 890 411 869 411 840 c 0
 411 809 391 790 363 790 c 0
364 -16 m 0
 174 -16 45 124 45 354 c 0
 45 584 174 726 364 726 c 0
 536 726 627 633 657 484 c 1
 566 478 l 1
 546 579 482 642 364 642 c 0
 228 642 135 534 135 354 c 0
 135 174 228 68 364 68 c 0
 488 68 554 137 572 248 c 1
 663 242 l 1
 637 88 534 -16 364 -16 c 0
EndSplineSet
EndChar

StartChar: Edieresis.ss08
Encoding: 65561 -1 156
Width: 603
GlyphClass: 2
Flags: MW
HStem: 0 84<178 546 178 546> 315 82<178 526 178 526> 626 84<178 538 178 178> 790 100<213 241 393 421>
VStem: 92 86<84 315 397 626> 179 96<824.5 854.5> 359 96<824.5 854.5>
AnchorPoint: "Anchor-3" 317 710 basechar 0
AnchorPoint: "Anchor-2" 546 0 basechar 0
AnchorPoint: "Anchor-0" 319 0 basechar 0
LayerCount: 2
Fore
SplineSet
227 790 m 0
 199 790 179 809 179 840 c 0
 179 869 199 890 227 890 c 0
 255 890 275 869 275 840 c 0
 275 809 255 790 227 790 c 0
407 790 m 0
 379 790 359 809 359 840 c 0
 359 869 379 890 407 890 c 0
 435 890 455 869 455 840 c 0
 455 809 435 790 407 790 c 0
92 0 m 1xe8
 92 710 l 1
 538 710 l 1
 538 626 l 1
 178 626 l 1
 178 397 l 1
 526 397 l 1
 526 315 l 1
 178 315 l 1
 178 84 l 1
 546 84 l 1
 546 0 l 1
 92 0 l 1xe8
EndSplineSet
EndChar

StartChar: Edotaccent.ss08
Encoding: 65562 -1 157
Width: 603
GlyphClass: 2
Flags: MW
HStem: 0 84<178 546 178 546> 315 82<178 526 178 526> 626 84<178 538 178 178> 790 100<304 332>
VStem: 92 86<84 315 397 626> 270 96<824.5 854.5>
AnchorPoint: "Anchor-3" 317 710 basechar 0
AnchorPoint: "Anchor-2" 546 0 basechar 0
AnchorPoint: "Anchor-0" 319 0 basechar 0
LayerCount: 2
Fore
SplineSet
318 790 m 0
 290 790 270 809 270 840 c 0
 270 869 290 890 318 890 c 0
 346 890 366 869 366 840 c 0
 366 809 346 790 318 790 c 0
92 0 m 1
 92 710 l 1
 538 710 l 1
 538 626 l 1
 178 626 l 1
 178 397 l 1
 526 397 l 1
 526 315 l 1
 178 315 l 1
 178 84 l 1
 546 84 l 1
 546 0 l 1
 92 0 l 1
EndSplineSet
EndChar

StartChar: Gdotaccent.ss08
Encoding: 65563 -1 158
Width: 700
GlyphClass: 2
Flags: MW
HStem: -16 84<284.5 410.5> 0 21G<586 650 586 586> 277 82<366 570 366 650> 642 84<283 424.5> 790 100<351 379>
VStem: 45 90<273 431 273 460.5> 317 96<824.5 854.5> 570 80<277 277> 584 66
AnchorPoint: "Anchor-3" 364 710 basechar 0
AnchorPoint: "Anchor-0" 366 0 basechar 0
LayerCount: 2
Fore
SplineSet
365 790 m 0xbe80
 337 790 317 809 317 840 c 0
 317 869 337 890 365 890 c 0
 393 890 413 869 413 840 c 0
 413 809 393 790 365 790 c 0xbe80
362 -16 m 0
 162 -16 45 140 45 354 c 0
 45 567 164 726 364 726 c 0
 534 726 622 624 648 492 c 1
 558 486 l 1
 540 578 485 642 364 642 c 0
 202 642 135 508 135 354 c 0
 135 192 205 68 364 68 c 0
 490 68 568 164 570 277 c 1xb5
 366 277 l 1
 366 359 l 1
 650 359 l 1
 650 0 l 1
 586 0 l 1x7480
 582 119 l 1
 547 39 459 -16 362 -16 c 0
EndSplineSet
EndChar

StartChar: Idieresis.ss08
Encoding: 65564 -1 159
Width: 270
GlyphClass: 2
Flags: MW
HStem: 0 21G<92 92 92 178> 690 20G<92 178 178 178> 790 100<31 59 211 239>
VStem: -3 96<824.5 854.5> 92 86<0 710 0 710> 177 96<824.5 854.5>
AnchorPoint: "Anchor-3" 135 710 basechar 0
AnchorPoint: "Anchor-2" 178 0 basechar 0
AnchorPoint: "Anchor-0" 135 0 basechar 0
LayerCount: 2
Fore
SplineSet
45 790 m 0xf4
 17 790 -3 809 -3 840 c 0
 -3 869 17 890 45 890 c 0
 73 890 93 869 93 840 c 0
 93 809 73 790 45 790 c 0xf4
225 790 m 0
 197 790 177 809 177 840 c 0
 177 869 197 890 225 890 c 0
 253 890 273 869 273 840 c 0
 273 809 253 790 225 790 c 0
92 0 m 1xe8
 92 710 l 1
 178 710 l 1
 178 0 l 1
 92 0 l 1xe8
EndSplineSet
EndChar

StartChar: Idotaccent.ss08
Encoding: 65565 -1 160
Width: 270
GlyphClass: 2
Flags: MW
HStem: 0 21G<92 92 92 178> 690 20G<92 178 178 178> 790 100<122 150>
VStem: 88 96<824.5 854.5> 92 86<0 710 0 710>
AnchorPoint: "Anchor-3" 135 710 basechar 0
AnchorPoint: "Anchor-2" 178 0 basechar 0
AnchorPoint: "Anchor-0" 135 0 basechar 0
LayerCount: 2
Fore
SplineSet
136 790 m 0xf0
 108 790 88 809 88 840 c 0
 88 869 108 890 136 890 c 0
 164 890 184 869 184 840 c 0
 184 809 164 790 136 790 c 0xf0
92 0 m 1xe8
 92 710 l 1
 178 710 l 1
 178 0 l 1
 92 0 l 1xe8
EndSplineSet
EndChar

StartChar: Odieresis.ss08
Encoding: 65566 -1 161
Width: 739
GlyphClass: 2
Flags: MW
HStem: -16 84<296 442.5 296 470.5> 642 84<296 442.5> 790 100<265 293 445 473>
VStem: 45 90<264 444 264 469> 231 96<824.5 854.5> 411 96<824.5 854.5> 604 90<264 444>
AnchorPoint: "Anchor-3" 369 710 basechar 0
AnchorPoint: "Anchor-1" 370 355 basechar 0
AnchorPoint: "Anchor-0" 369 0 basechar 0
LayerCount: 2
Fore
SplineSet
279 790 m 0
 251 790 231 809 231 840 c 0
 231 869 251 890 279 890 c 0
 307 890 327 869 327 840 c 0
 327 809 307 790 279 790 c 0
459 790 m 0
 431 790 411 809 411 840 c 0
 411 869 431 890 459 890 c 0
 487 890 507 869 507 840 c 0
 507 809 487 790 459 790 c 0
369 -16 m 0
 167 -16 45 124 45 354 c 0
 45 584 167 726 369 726 c 0
 572 726 694 584 694 354 c 0
 694 124 572 -16 369 -16 c 0
369 68 m 0
 516 68 604 174 604 354 c 0
 604 534 516 642 369 642 c 0
 223 642 135 534 135 354 c 0
 135 174 223 68 369 68 c 0
EndSplineSet
EndChar

StartChar: Udieresis.ss08
Encoding: 65567 -1 162
Width: 689
GlyphClass: 2
Flags: MW
HStem: -16 84<287 402.5 287 427> 691 20G<77 163 163 163 526 612 612 612> 790 100<241 269 421 449>
VStem: 77 86<248 711> 207 96<824.5 854.5> 387 96<824.5 854.5> 526 86<248 711>
AnchorPoint: "Anchor-3" 345 710 basechar 0
AnchorPoint: "Anchor-2" 457 3 basechar 0
AnchorPoint: "Anchor-0" 345 0 basechar 0
LayerCount: 2
Fore
SplineSet
255 790 m 0
 227 790 207 809 207 840 c 0
 207 869 227 890 255 890 c 0
 283 890 303 869 303 840 c 0
 303 809 283 790 255 790 c 0
435 790 m 0
 407 790 387 809 387 840 c 0
 387 869 407 890 435 890 c 0
 463 890 483 869 483 840 c 0
 483 809 463 790 435 790 c 0
345 -16 m 0
 180 -16 77 86 77 248 c 2
 77 711 l 1
 163 711 l 1
 163 248 l 2
 163 133 229 68 345 68 c 0
 460 68 526 133 526 248 c 2
 526 711 l 1
 612 711 l 1
 612 248 l 2
 612 86 509 -16 345 -16 c 0
EndSplineSet
EndChar

StartChar: Wdieresis.ss08
Encoding: 65568 -1 163
Width: 945
GlyphClass: 2
Flags: MW
HStem: 0 21G<225 225 225 332 612 612 612 720> 0 118<225 278 278 278 278 332> 690 20G<38 132 132 132 423 521 521 521 812 907 907 907> 790 100<368 396 548 576>
VStem: 334 96<824.5 854.5> 514 96<824.5 854.5>
AnchorPoint: "Anchor-3" 472 710 basechar 0
AnchorPoint: "Anchor-0" 472 0 basechar 0
LayerCount: 2
Fore
SplineSet
382 790 m 0xbc
 354 790 334 809 334 840 c 0
 334 869 354 890 382 890 c 0
 410 890 430 869 430 840 c 0
 430 809 410 790 382 790 c 0xbc
562 790 m 0
 534 790 514 809 514 840 c 0
 514 869 534 890 562 890 c 0
 590 890 610 869 610 840 c 0
 610 809 590 790 562 790 c 0
225 0 m 1
 38 710 l 1
 132 710 l 1
 278 118 l 1
 423 710 l 1
 521 710 l 1
 667 118 l 1x7c
 812 710 l 1
 907 710 l 1
 720 0 l 1
 612 0 l 1
 472 550 l 1
 332 0 l 1
 225 0 l 1
EndSplineSet
EndChar

StartChar: Ydieresis.ss08
Encoding: 65569 -1 164
Width: 576
GlyphClass: 2
Flags: MW
HStem: 0 21G<245 245 245 331> 690 20G<-6 96 96 96 480 582 582 582> 790 100<184 212 364 392>
VStem: 150 96<824.5 854.5> 245 86<0 290 0 290> 330 96<824.5 854.5>
AnchorPoint: "Anchor-3" 288 710 basechar 0
AnchorPoint: "Anchor-0" 288 0 basechar 0
LayerCount: 2
Fore
SplineSet
198 790 m 0xf4
 170 790 150 809 150 840 c 0
 150 869 170 890 198 890 c 0
 226 890 246 869 246 840 c 0
 246 809 226 790 198 790 c 0xf4
378 790 m 0
 350 790 330 809 330 840 c 0
 330 869 350 890 378 890 c 0
 406 890 426 869 426 840 c 0
 426 809 406 790 378 790 c 0
245 0 m 1xe8
 245 290 l 1
 -6 710 l 1
 96 710 l 1
 288 378 l 1
 480 710 l 1
 582 710 l 1
 331 290 l 1
 331 0 l 1
 245 0 l 1xe8
EndSplineSet
EndChar

StartChar: Zdotaccent.ss08
Encoding: 65570 -1 165
Width: 544
GlyphClass: 2
Flags: MW
HStem: 0 84<126 516 126 516> 626 84<41 408 41 506> 790 100<267 295>
VStem: 233 96<824.5 854.5>
AnchorPoint: "Anchor-3" 280 710 basechar 0
AnchorPoint: "Anchor-0" 280 0 basechar 0
LayerCount: 2
Fore
SplineSet
281 790 m 0
 253 790 233 809 233 840 c 0
 233 869 253 890 281 890 c 0
 309 890 329 869 329 840 c 0
 329 809 309 790 281 790 c 0
28 0 m 1
 28 88 l 1
 408 626 l 1
 41 626 l 1
 41 710 l 1
 506 710 l 1
 506 622 l 1
 126 84 l 1
 516 84 l 1
 516 0 l 1
 28 0 l 1
EndSplineSet
EndChar

StartChar: Idieresis.ss05.ss08
Encoding: 65571 -1 166
Width: 426
GlyphClass: 2
Flags: MW
HStem: 0 84<45 170 45 170 256 381> 626 84<51 170 51 375 256 256 256 375> 790 100<109 137 289 317>
VStem: 75 96<824.5 854.5> 170 86<84 626 84 626> 255 96<824.5 854.5>
AnchorPoint: "Anchor-3" 213 710 basechar 0
AnchorPoint: "Anchor-2" 381 0 basechar 0
AnchorPoint: "Anchor-0" 213 0 basechar 0
LayerCount: 2
Fore
SplineSet
123 790 m 0xf4
 95 790 75 809 75 840 c 0
 75 869 95 890 123 890 c 0
 151 890 171 869 171 840 c 0
 171 809 151 790 123 790 c 0xf4
303 790 m 0
 275 790 255 809 255 840 c 0
 255 869 275 890 303 890 c 0
 331 890 351 869 351 840 c 0
 351 809 331 790 303 790 c 0
45 0 m 1
 45 84 l 1
 170 84 l 1
 170 626 l 1
 51 626 l 1
 51 710 l 1
 375 710 l 1
 375 626 l 1
 256 626 l 1
 256 84 l 1xc8
 381 84 l 1
 381 0 l 1
 45 0 l 1
EndSplineSet
EndChar

StartChar: Idotaccent.ss05.ss08
Encoding: 65572 -1 167
Width: 426
GlyphClass: 2
Flags: MW
HStem: 0 84<45 170 45 170 256 381> 626 84<51 170 51 375 256 256 256 375> 790 100<200 228>
VStem: 166 96<824.5 854.5> 170 86<84 626 84 626>
AnchorPoint: "Anchor-3" 213 710 basechar 0
AnchorPoint: "Anchor-2" 381 0 basechar 0
AnchorPoint: "Anchor-0" 213 0 basechar 0
LayerCount: 2
Fore
SplineSet
214 790 m 0xf0
 186 790 166 809 166 840 c 0
 166 869 186 890 214 890 c 0
 242 890 262 869 262 840 c 0
 262 809 242 790 214 790 c 0xf0
45 0 m 1
 45 84 l 1
 170 84 l 1
 170 626 l 1
 51 626 l 1
 51 710 l 1
 375 710 l 1
 375 626 l 1
 256 626 l 1
 256 84 l 1xc8
 381 84 l 1
 381 0 l 1
 45 0 l 1
EndSplineSet
EndChar

StartChar: Gdotaccent.ss06.ss08
Encoding: 65573 -1 168
Width: 690
GlyphClass: 2
Flags: MW
HStem: -16 84<283.5 429 283.5 455> 277 82<366 570 366 650> 642 84<283.5 426.5> 790 100<352 380>
VStem: 45 90<272.5 431 272.5 457.5> 318 96<824.5 854.5> 570 80<277 277>
AnchorPoint: "Anchor-3" 365 710 basechar 0
AnchorPoint: "Anchor-0" 367 0 basechar 0
LayerCount: 2
Fore
SplineSet
366 790 m 0
 338 790 318 809 318 840 c 0
 318 869 338 890 366 890 c 0
 394 890 414 869 414 840 c 0
 414 809 394 790 366 790 c 0
362 -16 m 0
 156 -16 45 148 45 354 c 0
 45 561 161 726 366 726 c 0
 527 726 620 632 648 492 c 1
 558 486 l 1
 541 574 487 642 366 642 c 0
 201 642 135 508 135 354 c 0
 135 191 205 68 362 68 c 0
 496 68 566 160 570 277 c 1
 366 277 l 1
 366 359 l 1
 650 359 l 1
 650 315 l 2
 650 107 548 -16 362 -16 c 0
EndSplineSet
EndChar

StartChar: A_I.dlig
Encoding: 65574 -1 169
Width: 1094
GlyphClass: 3
Flags: MW
HStem: 0 84<554 838 713 838 924 1049 713 838> 202 84<214 454 214 483 185 454> 626 84<719 838 924 924 924 1043>
VStem: 838 86<84 626 84 626>
AnchorPoint: "Anchor-8" 334 710 baselig 0
AnchorPoint: "Anchor-7" 648 0 baselig 0
AnchorPoint: "Anchor-5" 334 0 baselig 0
AnchorPoint: "Anchor-8" 881 710 baselig 1
AnchorPoint: "Anchor-5" 881 0 baselig 1
AnchorPoint: "Anchor-7" 1049 0 baselig 1
LayerCount: 2
Fore
SplineSet
20 0 m 1
 276 710 l 1
 392 710 l 1
 648 0 l 1
 554 0 l 1
 483 202 l 1
 185 202 l 1
 114 0 l 1
 20 0 l 1
713 0 m 1
 713 84 l 1
 838 84 l 1
 838 626 l 1
 719 626 l 1
 719 710 l 1
 1043 710 l 1
 1043 626 l 1
 924 626 l 1
 924 84 l 1
 1049 84 l 1
 1049 0 l 1
 713 0 l 1
214 286 m 1
 454 286 l 1
 334 635 l 1
 214 286 l 1
EndSplineSet
Ligature2: "'dlig' Discretionary Ligatures in Latin lookup 32 subtable" A I
EndChar

StartChar: U_I.dlig
Encoding: 65575 -1 170
Width: 1115
GlyphClass: 3
Flags: MW
HStem: -16 84<287 402.5 287 427> 0 84<734 859 734 859 945 1070> 626 84<740 859 740 1064 945 945 945 1064>
VStem: 77 86<248 711> 526 86<248 711> 859 86<84 626 84 626>
AnchorPoint: "Anchor-8" 345 710 baselig 0
AnchorPoint: "Anchor-7" 457 3 baselig 0
AnchorPoint: "Anchor-5" 345 0 baselig 0
AnchorPoint: "Anchor-8" 902 710 baselig 1
AnchorPoint: "Anchor-5" 902 0 baselig 1
AnchorPoint: "Anchor-7" 1070 0 baselig 1
LayerCount: 2
Fore
SplineSet
345 -16 m 0xbc
 180 -16 77 86 77 248 c 2
 77 711 l 1
 163 711 l 1
 163 248 l 2
 163 133 229 68 345 68 c 0
 460 68 526 133 526 248 c 2
 526 711 l 1
 612 711 l 1
 612 248 l 2
 612 86 509 -16 345 -16 c 0xbc
734 0 m 1x7c
 734 84 l 1
 859 84 l 1
 859 626 l 1
 740 626 l 1
 740 710 l 1
 1064 710 l 1
 1064 626 l 1
 945 626 l 1
 945 84 l 1
 1070 84 l 1
 1070 0 l 1
 734 0 l 1x7c
EndSplineSet
Ligature2: "'dlig' Discretionary Ligatures in Latin lookup 32 subtable" U I
EndChar

StartChar: a
Encoding: 97 97 171
Width: 551
GlyphClass: 2
Flags: MW
HStem: -12 74<200 262> -2 76<468 532> 462 80<236 315>
VStem: 44 88<115 162 115 177> 399 84<218 256 256 256>
AnchorPoint: "Anchor-3" 278 530 basechar 0
AnchorPoint: "Anchor-2" 532 0 basechar 0
AnchorPoint: "Anchor-0" 267 0 basechar 0
LayerCount: 2
Fore
SplineSet
223 -12 m 0xb8
 113 -12 44 41 44 132 c 0
 44 222 95 272 211 294 c 2
 399 329 l 1
 399 418 357 462 273 462 c 0
 199 462 158 428 142 367 c 1
 53 374 l 1
 73 474 153 542 273 542 c 0
 409 542 483 460 483 326 c 2
 483 107 l 2
 483 83 491 74 511 74 c 2
 532 74 l 1
 532 0 l 1
 526 -1 513 -2 500 -2 c 0x78
 436 -2 407 23 400 82 c 1
 374 27 301 -12 223 -12 c 0xb8
231 62 m 0
 337 62 399 130 399 218 c 2
 399 256 l 1
 227 224 l 2
 155 211 132 184 132 140 c 0xb8
 132 90 169 62 231 62 c 0
EndSplineSet
Substitution2: "'ss02' Style Set 2 in Latin lookup 35 subtable" a.ss02
Substitution2: "'ss01' Style Set 1 in Latin lookup 34 subtable" a.ss01
Substitution2: "Single Substitution lookup 27 subtable" ordfeminine
AlternateSubs2: "'aalt' Access All Alternates in Latin lookup 1 subtable" ordfeminine a.ss01 a.ss02
EndChar

StartChar: aacute
Encoding: 225 225 172
Width: 551
GlyphClass: 2
Flags: MW
HStem: -12 74<200 262> -2 76<468 532> 462 80<236 315> 598 128<241 401 307 311>
VStem: 44 88<115 162 115 177> 399 84<218 256 256 256>
AnchorPoint: "Anchor-3" 278 530 basechar 0
AnchorPoint: "Anchor-2" 532 0 basechar 0
AnchorPoint: "Anchor-0" 267 0 basechar 0
LayerCount: 2
Fore
SplineSet
241 598 m 1xbc
 307 726 l 1
 401 726 l 1
 311 598 l 1
 241 598 l 1xbc
223 -12 m 0
 113 -12 44 41 44 132 c 0
 44 222 95 272 211 294 c 2
 399 329 l 1
 399 418 357 462 273 462 c 0
 199 462 158 428 142 367 c 1
 53 374 l 1
 73 474 153 542 273 542 c 0
 409 542 483 460 483 326 c 2
 483 107 l 2
 483 83 491 74 511 74 c 2
 532 74 l 1
 532 0 l 1
 526 -1 513 -2 500 -2 c 0x7c
 436 -2 407 23 400 82 c 1
 374 27 301 -12 223 -12 c 0
231 62 m 0
 337 62 399 130 399 218 c 2
 399 256 l 1
 227 224 l 2
 155 211 132 184 132 140 c 0xbc
 132 90 169 62 231 62 c 0
EndSplineSet
Substitution2: "'ss02' Style Set 2 in Latin lookup 35 subtable" aacute.ss02
Substitution2: "'ss01' Style Set 1 in Latin lookup 34 subtable" aacute.ss01
AlternateSubs2: "'aalt' Access All Alternates in Latin lookup 1 subtable" aacute.ss01 aacute.ss02
EndChar

StartChar: abreve
Encoding: 259 259 173
Width: 551
GlyphClass: 2
Flags: MW
HStem: -12 74<200 262> -2 76<468 532> 462 80<236 315> 603 62<255 301 255 319>
VStem: 44 88<115 162 115 177> 399 84<218 256 256 256>
AnchorPoint: "Anchor-3" 278 530 basechar 0
AnchorPoint: "Anchor-2" 532 0 basechar 0
AnchorPoint: "Anchor-0" 267 0 basechar 0
LayerCount: 2
Fore
SplineSet
278 603 m 0xbc
 196 603 142 653 138 731 c 1
 196 731 l 1
 202 685 232 665 278 665 c 0
 324 665 353 685 359 731 c 1
 417 731 l 1
 413 653 360 603 278 603 c 0xbc
223 -12 m 0
 113 -12 44 41 44 132 c 0
 44 222 95 272 211 294 c 2
 399 329 l 1
 399 418 357 462 273 462 c 0
 199 462 158 428 142 367 c 1
 53 374 l 1
 73 474 153 542 273 542 c 0
 409 542 483 460 483 326 c 2
 483 107 l 2
 483 83 491 74 511 74 c 2
 532 74 l 1
 532 0 l 1
 526 -1 513 -2 500 -2 c 0x7c
 436 -2 407 23 400 82 c 1
 374 27 301 -12 223 -12 c 0
231 62 m 0
 337 62 399 130 399 218 c 2
 399 256 l 1
 227 224 l 2
 155 211 132 184 132 140 c 0xbc
 132 90 169 62 231 62 c 0
EndSplineSet
Substitution2: "'ss02' Style Set 2 in Latin lookup 35 subtable" abreve.ss02
Substitution2: "'ss01' Style Set 1 in Latin lookup 34 subtable" abreve.ss01
AlternateSubs2: "'aalt' Access All Alternates in Latin lookup 1 subtable" abreve.ss01 abreve.ss02
EndChar

StartChar: uni01CE
Encoding: 462 462 174
Width: 551
GlyphClass: 2
Flags: MW
HStem: -12 74<200 262> -2 76<468 532> 462 80<236 315> 598 133<141 325 141 231>
VStem: 44 88<115 162 115 177> 399 84<218 256 256 256>
AnchorPoint: "Anchor-3" 278 530 basechar 0
AnchorPoint: "Anchor-2" 532 0 basechar 0
AnchorPoint: "Anchor-0" 267 0 basechar 0
LayerCount: 2
Fore
SplineSet
141 731 m 1xbc
 211 731 l 1
 278 642 l 1
 345 731 l 1
 415 731 l 1
 325 598 l 1
 231 598 l 1
 141 731 l 1xbc
223 -12 m 0
 113 -12 44 41 44 132 c 0
 44 222 95 272 211 294 c 2
 399 329 l 1
 399 418 357 462 273 462 c 0
 199 462 158 428 142 367 c 1
 53 374 l 1
 73 474 153 542 273 542 c 0
 409 542 483 460 483 326 c 2
 483 107 l 2
 483 83 491 74 511 74 c 2
 532 74 l 1
 532 0 l 1
 526 -1 513 -2 500 -2 c 0x7c
 436 -2 407 23 400 82 c 1
 374 27 301 -12 223 -12 c 0
231 62 m 0
 337 62 399 130 399 218 c 2
 399 256 l 1
 227 224 l 2
 155 211 132 184 132 140 c 0xbc
 132 90 169 62 231 62 c 0
EndSplineSet
Substitution2: "'ss02' Style Set 2 in Latin lookup 35 subtable" uni01CE.ss02
Substitution2: "'ss01' Style Set 1 in Latin lookup 34 subtable" uni01CE.ss01
AlternateSubs2: "'aalt' Access All Alternates in Latin lookup 1 subtable" uni01CE.ss01 uni01CE.ss02
EndChar

StartChar: acircumflex
Encoding: 226 226 175
Width: 551
GlyphClass: 2
Flags: MW
HStem: -12 74<200 262> -2 76<468 532> 462 80<236 315> 598 133<141 325 141 325 231 345 231 415>
VStem: 44 88<115 162 115 177> 399 84<218 256 256 256>
AnchorPoint: "Anchor-3" 278 530 basechar 0
AnchorPoint: "Anchor-2" 532 0 basechar 0
AnchorPoint: "Anchor-0" 267 0 basechar 0
LayerCount: 2
Fore
SplineSet
141 598 m 1xbc
 231 731 l 1
 325 731 l 1
 415 598 l 1
 345 598 l 1
 278 687 l 1
 211 598 l 1
 141 598 l 1xbc
223 -12 m 0
 113 -12 44 41 44 132 c 0
 44 222 95 272 211 294 c 2
 399 329 l 1
 399 418 357 462 273 462 c 0
 199 462 158 428 142 367 c 1
 53 374 l 1
 73 474 153 542 273 542 c 0
 409 542 483 460 483 326 c 2
 483 107 l 2
 483 83 491 74 511 74 c 2
 532 74 l 1
 532 0 l 1
 526 -1 513 -2 500 -2 c 0x7c
 436 -2 407 23 400 82 c 1
 374 27 301 -12 223 -12 c 0
231 62 m 0
 337 62 399 130 399 218 c 2
 399 256 l 1
 227 224 l 2
 155 211 132 184 132 140 c 0xbc
 132 90 169 62 231 62 c 0
EndSplineSet
Substitution2: "'ss02' Style Set 2 in Latin lookup 35 subtable" acircumflex.ss02
Substitution2: "'ss01' Style Set 1 in Latin lookup 34 subtable" acircumflex.ss01
AlternateSubs2: "'aalt' Access All Alternates in Latin lookup 1 subtable" acircumflex.ss01 acircumflex.ss02
EndChar

StartChar: adieresis
Encoding: 228 228 176
Width: 551
GlyphClass: 2
Flags: MW
HStem: -12 74<200 262> -2 76<468 532> 462 80<236 315> 613 98<147 235 147 235 321 409 147 321>
VStem: 44 88<115 162 115 177> 147 88<613 711 613 711> 321 88<613 711 613 711> 399 84<218 256 256 256>
AnchorPoint: "Anchor-3" 278 530 basechar 0
AnchorPoint: "Anchor-2" 532 0 basechar 0
AnchorPoint: "Anchor-0" 267 0 basechar 0
LayerCount: 2
Fore
SplineSet
147 613 m 1xb6
 147 711 l 1
 235 711 l 1
 235 613 l 1
 147 613 l 1xb6
321 613 m 1
 321 711 l 1
 409 711 l 1
 409 613 l 1
 321 613 l 1
223 -12 m 0
 113 -12 44 41 44 132 c 0
 44 222 95 272 211 294 c 2
 399 329 l 1
 399 418 357 462 273 462 c 0
 199 462 158 428 142 367 c 1
 53 374 l 1
 73 474 153 542 273 542 c 0
 409 542 483 460 483 326 c 2
 483 107 l 2
 483 83 491 74 511 74 c 2
 532 74 l 1
 532 0 l 1
 526 -1 513 -2 500 -2 c 0x79
 436 -2 407 23 400 82 c 1
 374 27 301 -12 223 -12 c 0
231 62 m 0
 337 62 399 130 399 218 c 2
 399 256 l 1
 227 224 l 2
 155 211 132 184 132 140 c 0xb9
 132 90 169 62 231 62 c 0
EndSplineSet
Substitution2: "'ss08' Style Set 8 in Latin lookup 41 subtable" adieresis.ss08
Substitution2: "'ss02' Style Set 2 in Latin lookup 35 subtable" adieresis.ss02
Substitution2: "'ss01' Style Set 1 in Latin lookup 34 subtable" adieresis.ss01
AlternateSubs2: "'aalt' Access All Alternates in Latin lookup 1 subtable" adieresis.ss01 adieresis.ss02 adieresis.ss08
EndChar

StartChar: agrave
Encoding: 224 224 177
Width: 551
GlyphClass: 2
Flags: MW
HStem: -12 74<200 262> -2 76<468 532> 462 80<236 315> 603 128<247 247 247 251 157 317>
VStem: 44 88<115 162 115 177> 399 84<218 256 256 256>
AnchorPoint: "Anchor-3" 278 530 basechar 0
AnchorPoint: "Anchor-2" 532 0 basechar 0
AnchorPoint: "Anchor-0" 267 0 basechar 0
LayerCount: 2
Fore
SplineSet
247 603 m 1xbc
 157 731 l 1
 251 731 l 1
 317 603 l 1
 247 603 l 1xbc
223 -12 m 0
 113 -12 44 41 44 132 c 0
 44 222 95 272 211 294 c 2
 399 329 l 1
 399 418 357 462 273 462 c 0
 199 462 158 428 142 367 c 1
 53 374 l 1
 73 474 153 542 273 542 c 0
 409 542 483 460 483 326 c 2
 483 107 l 2
 483 83 491 74 511 74 c 2
 532 74 l 1
 532 0 l 1
 526 -1 513 -2 500 -2 c 0x7c
 436 -2 407 23 400 82 c 1
 374 27 301 -12 223 -12 c 0
231 62 m 0
 337 62 399 130 399 218 c 2
 399 256 l 1
 227 224 l 2
 155 211 132 184 132 140 c 0xbc
 132 90 169 62 231 62 c 0
EndSplineSet
Substitution2: "'ss02' Style Set 2 in Latin lookup 35 subtable" agrave.ss02
Substitution2: "'ss01' Style Set 1 in Latin lookup 34 subtable" agrave.ss01
AlternateSubs2: "'aalt' Access All Alternates in Latin lookup 1 subtable" agrave.ss01 agrave.ss02
EndChar

StartChar: amacron
Encoding: 257 257 178
Width: 551
GlyphClass: 2
Flags: MW
HStem: -12 74<200 262> -2 76<468 532> 462 80<236 315> 625 72<144 412 144 412>
VStem: 44 88<115 162 115 177> 144 268<625 697 625 697> 399 84<218 256 256 256>
AnchorPoint: "Anchor-3" 278 530 basechar 0
AnchorPoint: "Anchor-2" 532 0 basechar 0
AnchorPoint: "Anchor-0" 267 0 basechar 0
LayerCount: 2
Fore
SplineSet
144 625 m 1xb4
 144 697 l 1
 412 697 l 1
 412 625 l 1
 144 625 l 1xb4
223 -12 m 0
 113 -12 44 41 44 132 c 0
 44 222 95 272 211 294 c 2
 399 329 l 1
 399 418 357 462 273 462 c 0
 199 462 158 428 142 367 c 1
 53 374 l 1
 73 474 153 542 273 542 c 0
 409 542 483 460 483 326 c 2
 483 107 l 2
 483 83 491 74 511 74 c 2
 532 74 l 1
 532 0 l 1
 526 -1 513 -2 500 -2 c 0x7a
 436 -2 407 23 400 82 c 1
 374 27 301 -12 223 -12 c 0
231 62 m 0
 337 62 399 130 399 218 c 2
 399 256 l 1
 227 224 l 2
 155 211 132 184 132 140 c 0xba
 132 90 169 62 231 62 c 0
EndSplineSet
Substitution2: "'ss02' Style Set 2 in Latin lookup 35 subtable" amacron.ss02
Substitution2: "'ss01' Style Set 1 in Latin lookup 34 subtable" amacron.ss01
AlternateSubs2: "'aalt' Access All Alternates in Latin lookup 1 subtable" amacron.ss01 amacron.ss02
EndChar

StartChar: aogonek
Encoding: 261 261 179
Width: 551
GlyphClass: 2
Flags: MW
HStem: -210 68<486.5 498.5> -12 74<200 262> 462 80<236 315>
VStem: 44 88<115 162 115 177> 388 78<-124 -121> 399 84<218 256 256 256>
AnchorPoint: "Anchor-3" 278 530 basechar 0
AnchorPoint: "Anchor-2" 532 0 basechar 0
AnchorPoint: "Anchor-0" 267 0 basechar 0
LayerCount: 2
Fore
SplineSet
223 -12 m 0xf8
 113 -12 44 41 44 132 c 0
 44 222 95 272 211 294 c 2
 399 329 l 1
 399 418 357 462 273 462 c 0
 199 462 158 428 142 367 c 1
 53 374 l 1
 73 474 153 542 273 542 c 0
 409 542 483 460 483 326 c 2
 483 107 l 2xf4
 483 83 491 74 511 74 c 2
 532 74 l 1
 532 0 l 1
 497 -48 l 2
 472 -83 466 -100 466 -116 c 0
 466 -132 478 -142 495 -142 c 0
 514 -142 530 -137 543 -128 c 1
 567 -184 l 1
 552 -199 516 -210 481 -210 c 0
 424 -210 388 -186 388 -140 c 0
 388 -102 418 -59 445 -22 c 2
 463 2 l 1
 424 10 405 36 400 82 c 1
 374 27 301 -12 223 -12 c 0xf8
231 62 m 0
 337 62 399 130 399 218 c 2
 399 256 l 1
 227 224 l 2
 155 211 132 184 132 140 c 0
 132 90 169 62 231 62 c 0
EndSplineSet
Substitution2: "'ss02' Style Set 2 in Latin lookup 35 subtable" aogonek.ss02
Substitution2: "'ss01' Style Set 1 in Latin lookup 34 subtable" aogonek.ss01
AlternateSubs2: "'aalt' Access All Alternates in Latin lookup 1 subtable" aogonek.ss01 aogonek.ss02
EndChar

StartChar: aring
Encoding: 229 229 180
Width: 551
GlyphClass: 2
Flags: MW
HStem: -12 74<200 262> -2 76<468 532> 462 80<236 315> 576 50<266 290 266 304> 710 50<266 290>
VStem: 44 88<115 162 115 177> 186 50<656 680 656 694> 320 50<656 680> 399 84<218 256 256 256>
AnchorPoint: "Anchor-3" 278 530 basechar 0
AnchorPoint: "Anchor-2" 532 0 basechar 0
AnchorPoint: "Anchor-0" 267 0 basechar 0
LayerCount: 2
Fore
SplineSet
278 576 m 0xbf
 226 576 186 616 186 668 c 0
 186 720 226 760 278 760 c 0
 330 760 370 720 370 668 c 0
 370 616 330 576 278 576 c 0xbf
278 626 m 0
 302 626 320 644 320 668 c 0
 320 692 302 710 278 710 c 0
 254 710 236 692 236 668 c 0
 236 644 254 626 278 626 c 0
223 -12 m 0
 113 -12 44 41 44 132 c 0
 44 222 95 272 211 294 c 2
 399 329 l 1
 399 418 357 462 273 462 c 0
 199 462 158 428 142 367 c 1
 53 374 l 1
 73 474 153 542 273 542 c 0
 409 542 483 460 483 326 c 2
 483 107 l 2
 483 83 491 74 511 74 c 2
 532 74 l 1
 532 0 l 1
 526 -1 513 -2 500 -2 c 0x7e80
 436 -2 407 23 400 82 c 1
 374 27 301 -12 223 -12 c 0
231 62 m 0
 337 62 399 130 399 218 c 2
 399 256 l 1
 227 224 l 2
 155 211 132 184 132 140 c 0xbe80
 132 90 169 62 231 62 c 0
EndSplineSet
Substitution2: "'ss02' Style Set 2 in Latin lookup 35 subtable" aring.ss02
Substitution2: "'ss01' Style Set 1 in Latin lookup 34 subtable" aring.ss01
AlternateSubs2: "'aalt' Access All Alternates in Latin lookup 1 subtable" aring.ss01 aring.ss02
EndChar

StartChar: atilde
Encoding: 227 227 181
Width: 551
GlyphClass: 2
Flags: MW
HStem: -12 74<200 262> -2 76<468 532> 462 80<236 315> 610 56<333 353.5 333 365.5> 664 56<203 225>
VStem: 44 88<115 162 115 177> 120 52<603 603> 383 52<730 730> 399 84<218 256 256 256>
AnchorPoint: "Anchor-3" 278 530 basechar 0
AnchorPoint: "Anchor-2" 532 0 basechar 0
AnchorPoint: "Anchor-0" 267 0 basechar 0
LayerCount: 2
Fore
SplineSet
337 610 m 0xb5
 311 610 289 620 267 638 c 0
 244 657 235 664 215 664 c 0
 191 664 174 651 172 603 c 1
 120 603 l 1
 122 680 161 720 215 720 c 0xaa80
 247 720 268 709 291 690 c 0
 312 673 325 666 341 666 c 0
 366 666 379 680 383 730 c 1
 435 730 l 1
 431 654 394 610 337 610 c 0xb5
223 -12 m 0
 113 -12 44 41 44 132 c 0
 44 222 95 272 211 294 c 2
 399 329 l 1
 399 418 357 462 273 462 c 0
 199 462 158 428 142 367 c 1
 53 374 l 1
 73 474 153 542 273 542 c 0
 409 542 483 460 483 326 c 2
 483 107 l 2
 483 83 491 74 511 74 c 2
 532 74 l 1
 532 0 l 1
 526 -1 513 -2 500 -2 c 0x6c80
 436 -2 407 23 400 82 c 1
 374 27 301 -12 223 -12 c 0
231 62 m 0
 337 62 399 130 399 218 c 2
 399 256 l 1
 227 224 l 2
 155 211 132 184 132 140 c 0xac80
 132 90 169 62 231 62 c 0
EndSplineSet
Substitution2: "'ss02' Style Set 2 in Latin lookup 35 subtable" atilde.ss02
Substitution2: "'ss01' Style Set 1 in Latin lookup 34 subtable" atilde.ss01
AlternateSubs2: "'aalt' Access All Alternates in Latin lookup 1 subtable" atilde.ss01 atilde.ss02
EndChar

StartChar: ae
Encoding: 230 230 182
Width: 919
GlyphClass: 2
Flags: MW
HStem: -12 74 -12 80<599 679.5 599 701> 239 74<490 783 490 875 490 783> 462 80<233.5 313 212 315 600.5 680>
VStem: 44 88<115 160.5 115 187.5> 399 91<239 239 239 246 239 246 239 319> 783 92<239 313>
AnchorPoint: "Anchor-3" 461 530 basechar 0
AnchorPoint: "Anchor-2" 774 24 basechar 0
AnchorPoint: "Anchor-0" 461 0 basechar 0
LayerCount: 2
Fore
SplineSet
225 -12 m 0x7e
 119 -12 44 37 44 132 c 0
 44 243 124 282 211 294 c 2
 399 319 l 1
 398 418 360 462 270 462 c 0
 197 462 155 422 142 367 c 1
 53 374 l 1
 74 475 154 542 270 542 c 0
 356 542 420 511 454 450 c 1
 495 509 560 542 641 542 c 0
 779 542 875 442 875 264 c 2
 875 239 l 1
 490 239 l 1
 496 125 553 68 645 68 c 0
 714 68 759 103 777 157 c 1
 867 150 l 1
 839 55 757 -12 645 -12 c 0
 549 -12 477 32 437 108 c 1
 400 34 323 -12 225 -12 c 0x7e
490 313 m 1
 783 313 l 1
 775 415 719 462 641 462 c 0
 559 462 504 411 490 313 c 1
247 62 m 0
 333 66 399 120 399 218 c 2
 399 246 l 1
 227 224 l 2
 147 214 132 180 132 141 c 0xbe
 132 89 169 58 247 62 c 0
EndSplineSet
EndChar

StartChar: b
Encoding: 98 98 183
Width: 595
GlyphClass: 2
Flags: MW
HStem: -12 80<286 362.5 270 393> 0 21G<80 156 80 80> 462 80<286 363.5> 690 20G<80 164 164 164>
VStem: 80 77.5 80 84<204.5 326.5 456 710> 463 88<204.5 326.5>
AnchorPoint: "Anchor-3" 299 530 basechar 0
AnchorPoint: "Anchor-1" 150 265 basechar 0
AnchorPoint: "Anchor-0" 299 0 basechar 0
LayerCount: 2
Fore
SplineSet
323 -12 m 0xb6
 249 -12 189 22 159 80 c 1
 156 0 l 1x7a
 80 0 l 1x76
 80 710 l 1
 164 710 l 1
 164 456 l 1
 190 500 249 542 323 542 c 0
 463 542 551 435 551 265 c 0
 551 95 463 -12 323 -12 c 0xb6
318 68 m 0
 407 68 463 144 463 265 c 0
 463 388 407 462 320 462 c 0
 222 462 164 388 164 265 c 0xb6
 164 144 222 68 318 68 c 0
EndSplineSet
EndChar

StartChar: c
Encoding: 99 99 184
Width: 546
GlyphClass: 2
Flags: MW
HStem: -12 80<238 323 238 348> 462 80<238 323>
VStem: 44 88<203.5 326.5 203.5 349>
AnchorPoint: "Anchor-3" 287 530 basechar 0
AnchorPoint: "Anchor-0" 287 0 basechar 0
LayerCount: 2
Fore
SplineSet
287 -12 m 0
 139 -12 44 97 44 265 c 0
 44 433 139 542 287 542 c 0
 409 542 494 476 512 358 c 1
 424 352 l 1
 412 422 359 462 287 462 c 0
 189 462 132 388 132 265 c 0
 132 142 189 68 287 68 c 0
 359 68 412 108 424 188 c 1
 512 182 l 1
 494 64 409 -12 287 -12 c 0
EndSplineSet
EndChar

StartChar: cacute
Encoding: 263 263 185
Width: 546
GlyphClass: 2
Flags: MW
HStem: -12 80<238 323 238 348> 462 80<238 323> 598 128<250 410 316 320>
VStem: 44 88<203.5 326.5 203.5 349>
AnchorPoint: "Anchor-3" 287 530 basechar 0
AnchorPoint: "Anchor-0" 287 0 basechar 0
LayerCount: 2
Fore
SplineSet
250 598 m 1
 316 726 l 1
 410 726 l 1
 320 598 l 1
 250 598 l 1
287 -12 m 0
 139 -12 44 97 44 265 c 0
 44 433 139 542 287 542 c 0
 409 542 494 476 512 358 c 1
 424 352 l 1
 412 422 359 462 287 462 c 0
 189 462 132 388 132 265 c 0
 132 142 189 68 287 68 c 0
 359 68 412 108 424 188 c 1
 512 182 l 1
 494 64 409 -12 287 -12 c 0
EndSplineSet
EndChar

StartChar: ccaron
Encoding: 269 269 186
Width: 546
GlyphClass: 2
Flags: MW
HStem: -12 80<238 323 238 348> 462 80<238 323> 598 133<150 334 150 240>
VStem: 44 88<203.5 326.5 203.5 349>
AnchorPoint: "Anchor-3" 287 530 basechar 0
AnchorPoint: "Anchor-0" 287 0 basechar 0
LayerCount: 2
Fore
SplineSet
150 731 m 1
 220 731 l 1
 287 642 l 1
 354 731 l 1
 424 731 l 1
 334 598 l 1
 240 598 l 1
 150 731 l 1
287 -12 m 0
 139 -12 44 97 44 265 c 0
 44 433 139 542 287 542 c 0
 409 542 494 476 512 358 c 1
 424 352 l 1
 412 422 359 462 287 462 c 0
 189 462 132 388 132 265 c 0
 132 142 189 68 287 68 c 0
 359 68 412 108 424 188 c 1
 512 182 l 1
 494 64 409 -12 287 -12 c 0
EndSplineSet
EndChar

StartChar: ccedilla
Encoding: 231 231 187
Width: 546
GlyphClass: 2
Flags: MW
HStem: -220 56<258.5 292 258.5 309.5> -80 44<253 293> -10 21G<251 251> -10 78<251 251> 462 80<238 323>
VStem: 44 88<203.5 326.5 203.5 349> 329 60<-136.5 -111.5>
AnchorPoint: "Anchor-3" 287 530 basechar 0
AnchorPoint: "Anchor-0" 287 0 basechar 0
LayerCount: 2
Fore
SplineSet
277 -220 m 0xce
 213 -220 174 -186 160 -142 c 1
 211 -122 l 1
 223 -152 242 -164 275 -164 c 0
 309 -164 329 -149 329 -124 c 0
 329 -99 317 -80 253 -80 c 1xce
 225 -50 l 1
 251 -10 l 1xae
 124 7 44 111 44 265 c 0
 44 433 139 542 287 542 c 0
 409 542 494 476 512 358 c 1
 424 352 l 1
 412 422 359 462 287 462 c 0
 189 462 132 388 132 265 c 0
 132 142 189 68 287 68 c 0x9e
 359 68 412 108 424 188 c 1
 512 182 l 1
 495 72 420 -1 312 -11 c 1
 293 -36 l 1
 358 -39 389 -74 389 -126 c 0
 389 -182 342 -220 277 -220 c 0xce
EndSplineSet
EndChar

StartChar: ccircumflex
Encoding: 265 265 188
Width: 546
GlyphClass: 2
Flags: MW
HStem: -12 80<238 323 238 348> 462 80<238 323> 598 133<150 334 150 334 240 354 240 424>
VStem: 44 88<203.5 326.5 203.5 349>
AnchorPoint: "Anchor-3" 287 530 basechar 0
AnchorPoint: "Anchor-0" 287 0 basechar 0
LayerCount: 2
Fore
SplineSet
150 598 m 1
 240 731 l 1
 334 731 l 1
 424 598 l 1
 354 598 l 1
 287 687 l 1
 220 598 l 1
 150 598 l 1
287 -12 m 0
 139 -12 44 97 44 265 c 0
 44 433 139 542 287 542 c 0
 409 542 494 476 512 358 c 1
 424 352 l 1
 412 422 359 462 287 462 c 0
 189 462 132 388 132 265 c 0
 132 142 189 68 287 68 c 0
 359 68 412 108 424 188 c 1
 512 182 l 1
 494 64 409 -12 287 -12 c 0
EndSplineSet
EndChar

StartChar: cdotaccent
Encoding: 267 267 189
Width: 546
GlyphClass: 2
Flags: MW
HStem: -12 80<238 323 238 348> 462 80<238 323> 613 98<243 331 243 331>
VStem: 44 88<203.5 326.5 203.5 349> 243 88<613 711 613 711>
AnchorPoint: "Anchor-3" 287 530 basechar 0
AnchorPoint: "Anchor-0" 287 0 basechar 0
LayerCount: 2
Fore
SplineSet
243 613 m 1
 243 711 l 1
 331 711 l 1
 331 613 l 1
 243 613 l 1
287 -12 m 0
 139 -12 44 97 44 265 c 0
 44 433 139 542 287 542 c 0
 409 542 494 476 512 358 c 1
 424 352 l 1
 412 422 359 462 287 462 c 0
 189 462 132 388 132 265 c 0
 132 142 189 68 287 68 c 0
 359 68 412 108 424 188 c 1
 512 182 l 1
 494 64 409 -12 287 -12 c 0
EndSplineSet
Substitution2: "'ss08' Style Set 8 in Latin lookup 41 subtable" cdotaccent.ss08
Substitution2: "'aalt' Access All Alternates in Latin lookup 0 subtable" cdotaccent.ss08
EndChar

StartChar: d
Encoding: 100 100 190
Width: 595
GlyphClass: 2
Flags: MW
HStem: -12 80<238.5 305> 0 21G<439 515 439 439> 462 80<238.5 303.5 199 332> 690 20G<431 515 515 515>
VStem: 44 88<204.5 326.5 204.5 350> 431 84<204.5 326.5 456 710 0 710> 437.5 77.5
AnchorPoint: "Anchor-4" 545 530 basechar 0
AnchorPoint: "Anchor-3" 296 530 basechar 0
AnchorPoint: "Anchor-1" 431 616 basechar 0
AnchorPoint: "Anchor-0" 296 0 basechar 0
LayerCount: 2
Fore
SplineSet
268 -12 m 0xba
 130 -12 44 95 44 265 c 0
 44 435 130 542 268 542 c 0
 339 542 402 510 431 456 c 1
 431 710 l 1
 515 710 l 1
 515 0 l 1x7c
 439 0 l 1x7a
 436 80 l 1
 406 22 342 -12 268 -12 c 0xba
285 68 m 0
 379 68 431 144 431 265 c 0
 431 388 379 462 285 462 c 0
 192 462 132 388 132 265 c 0xbc
 132 144 192 68 285 68 c 0
EndSplineSet
EndChar

StartChar: dcaron
Encoding: 271 271 191
Width: 662
GlyphClass: 2
Flags: MW
HStem: -12 80<238.5 305> 0 21G<439 515 439 439> 455 255<431 568 598 630> 462 80<238.5 303.5 199 332> 690 20G<431 515 515 515 598 682 682 682>
VStem: 44 88<204.5 326.5 204.5 350> 431 84<204.5 326.5 456 710 0 710> 437.5 77.5
AnchorPoint: "Anchor-4" 545 530 basechar 0
AnchorPoint: "Anchor-3" 296 530 basechar 0
AnchorPoint: "Anchor-1" 431 616 basechar 0
AnchorPoint: "Anchor-0" 296 0 basechar 0
LayerCount: 2
Fore
SplineSet
268 -12 m 0x9d
 130 -12 44 95 44 265 c 0
 44 435 130 542 268 542 c 0
 339 542 402 510 431 456 c 1
 431 710 l 1
 515 710 l 1
 515 0 l 1x5e
 439 0 l 1x5d
 436 80 l 1
 406 22 342 -12 268 -12 c 0x9d
568 455 m 1xa6
 598 710 l 1
 682 710 l 1
 630 455 l 1
 568 455 l 1xa6
285 68 m 0
 379 68 431 144 431 265 c 0
 431 388 379 462 285 462 c 0x9e
 192 462 132 388 132 265 c 0
 132 144 192 68 285 68 c 0
EndSplineSet
EndChar

StartChar: dcroat
Encoding: 273 273 192
Width: 595
GlyphClass: 2
Flags: MW
HStem: -12 80<238.5 305> 0 21G<439 515 439 439> 462 80<238.5 303.5 199 332> 582 68<281 431 281 431 515 581> 582 128<281 515 431 515 431 581>
VStem: 44 88<204.5 326.5 204.5 350> 431 84<204.5 326.5 456 582 0 582 650 710> 437.5 77.5
AnchorPoint: "Anchor-4" 545 530 basechar 0
AnchorPoint: "Anchor-3" 296 530 basechar 0
AnchorPoint: "Anchor-1" 431 616 basechar 0
AnchorPoint: "Anchor-0" 296 0 basechar 0
LayerCount: 2
Fore
SplineSet
268 -12 m 0xad
 130 -12 44 95 44 265 c 0
 44 435 130 542 268 542 c 0
 339 542 402 510 431 456 c 1
 431 582 l 1
 281 582 l 1xae
 281 650 l 1
 431 650 l 1xb6
 431 710 l 1
 515 710 l 1xae
 515 650 l 1
 581 650 l 1xb6
 581 582 l 1
 515 582 l 1
 515 0 l 1x6e
 439 0 l 1x6d
 436 80 l 1
 406 22 342 -12 268 -12 c 0xad
285 68 m 0
 379 68 431 144 431 265 c 0
 431 388 379 462 285 462 c 0
 192 462 132 388 132 265 c 0
 132 144 192 68 285 68 c 0
EndSplineSet
EndChar

StartChar: eth
Encoding: 240 240 193
Width: 573
GlyphClass: 1
Flags: MW
HStem: -12 80<238 335.5 238 360> 422 80<238 313.5 213.5 335.5> 702 20G<185 185>
VStem: 44 88<188.5 301.5 188.5 324.5> 441 88<192 306.5>
LayerCount: 2
Fore
SplineSet
287 -12 m 0
 140 -12 44 86 44 245 c 0
 44 404 140 502 287 502 c 0
 340 502 386 483 424 454 c 1
 409 501 387 539 359 568 c 1
 239 526 l 1
 215 590 l 1
 291 617 l 1
 255 634 213 644 165 648 c 1
 185 722 l 1
 267 714 332 688 382 649 c 1
 521 698 l 1
 545 634 l 1
 436 596 l 1
 502 512 529 393 529 255 c 0
 529 86 433 -12 287 -12 c 0
287 68 m 0
 384 68 441 129 441 255 c 0
 441 358 384 422 287 422 c 0
 189 422 132 358 132 245 c 0
 132 132 189 68 287 68 c 0
EndSplineSet
EndChar

StartChar: e
Encoding: 101 101 194
Width: 561
GlyphClass: 2
Flags: MW
HStem: -12 80<241 321.5 241 343> 239 74<132 425 132 517 132 425> 462 80<242 322>
VStem: 44 88<239 239 239 313 239 349> 425 92<239 313>
AnchorPoint: "Anchor-3" 287 528 basechar 0
AnchorPoint: "Anchor-2" 416 24 basechar 0
AnchorPoint: "Anchor-0" 287 0 basechar 0
LayerCount: 2
Fore
SplineSet
287 -12 m 0
 137 -12 44 97 44 265 c 0
 44 433 137 542 283 542 c 0
 421 542 517 442 517 264 c 2
 517 239 l 1
 132 239 l 1
 138 125 195 68 287 68 c 0
 356 68 401 103 419 157 c 1
 509 150 l 1
 481 55 399 -12 287 -12 c 0
132 313 m 1
 425 313 l 1
 417 415 361 462 283 462 c 0
 201 462 146 411 132 313 c 1
EndSplineSet
EndChar

StartChar: eacute
Encoding: 233 233 195
Width: 561
GlyphClass: 2
Flags: MW
HStem: -12 80<241 321.5 241 343> 239 74<132 425 132 517 132 425> 462 80<242 322> 596 128<250 410 316 320>
VStem: 44 88<239 239 239 313 239 349> 425 92<239 313>
AnchorPoint: "Anchor-3" 287 528 basechar 0
AnchorPoint: "Anchor-2" 416 24 basechar 0
AnchorPoint: "Anchor-0" 287 0 basechar 0
LayerCount: 2
Fore
SplineSet
250 596 m 1
 316 724 l 1
 410 724 l 1
 320 596 l 1
 250 596 l 1
287 -12 m 0
 137 -12 44 97 44 265 c 0
 44 433 137 542 283 542 c 0
 421 542 517 442 517 264 c 2
 517 239 l 1
 132 239 l 1
 138 125 195 68 287 68 c 0
 356 68 401 103 419 157 c 1
 509 150 l 1
 481 55 399 -12 287 -12 c 0
132 313 m 1
 425 313 l 1
 417 415 361 462 283 462 c 0
 201 462 146 411 132 313 c 1
EndSplineSet
EndChar

StartChar: ecaron
Encoding: 283 283 196
Width: 561
GlyphClass: 2
Flags: MW
HStem: -12 80<241 321.5 241 343> 239 74<132 425 132 517 132 425> 462 80<242 322> 596 133<150 334 150 240>
VStem: 44 88<239 239 239 313 239 349> 425 92<239 313>
AnchorPoint: "Anchor-3" 287 528 basechar 0
AnchorPoint: "Anchor-2" 416 24 basechar 0
AnchorPoint: "Anchor-0" 287 0 basechar 0
LayerCount: 2
Fore
SplineSet
150 729 m 1
 220 729 l 1
 287 640 l 1
 354 729 l 1
 424 729 l 1
 334 596 l 1
 240 596 l 1
 150 729 l 1
287 -12 m 0
 137 -12 44 97 44 265 c 0
 44 433 137 542 283 542 c 0
 421 542 517 442 517 264 c 2
 517 239 l 1
 132 239 l 1
 138 125 195 68 287 68 c 0
 356 68 401 103 419 157 c 1
 509 150 l 1
 481 55 399 -12 287 -12 c 0
132 313 m 1
 425 313 l 1
 417 415 361 462 283 462 c 0
 201 462 146 411 132 313 c 1
EndSplineSet
EndChar

StartChar: ecircumflex
Encoding: 234 234 197
Width: 561
GlyphClass: 2
Flags: MW
HStem: -12 80<241 321.5 241 343> 239 74<132 425 132 517 132 425> 462 80<242 322> 596 133<150 334 150 334 240 354 240 424>
VStem: 44 88<239 239 239 313 239 349> 425 92<239 313>
AnchorPoint: "Anchor-3" 287 528 basechar 0
AnchorPoint: "Anchor-2" 416 24 basechar 0
AnchorPoint: "Anchor-0" 287 0 basechar 0
LayerCount: 2
Fore
SplineSet
150 596 m 1
 240 729 l 1
 334 729 l 1
 424 596 l 1
 354 596 l 1
 287 685 l 1
 220 596 l 1
 150 596 l 1
287 -12 m 0
 137 -12 44 97 44 265 c 0
 44 433 137 542 283 542 c 0
 421 542 517 442 517 264 c 2
 517 239 l 1
 132 239 l 1
 138 125 195 68 287 68 c 0
 356 68 401 103 419 157 c 1
 509 150 l 1
 481 55 399 -12 287 -12 c 0
132 313 m 1
 425 313 l 1
 417 415 361 462 283 462 c 0
 201 462 146 411 132 313 c 1
EndSplineSet
EndChar

StartChar: edieresis
Encoding: 235 235 198
Width: 561
GlyphClass: 2
Flags: MW
HStem: -12 80<241 321.5 241 343> 239 74<132 425 132 517 132 425> 462 80<242 322> 611 98<156 244 156 244 330 418 156 330>
VStem: 44 88<239 239 239 313 239 349> 156 88<611 709 611 709> 330 88<611 709 611 709> 425 92<239 313>
AnchorPoint: "Anchor-3" 287 528 basechar 0
AnchorPoint: "Anchor-2" 416 24 basechar 0
AnchorPoint: "Anchor-0" 287 0 basechar 0
LayerCount: 2
Fore
SplineSet
156 611 m 1
 156 709 l 1
 244 709 l 1
 244 611 l 1
 156 611 l 1
330 611 m 1
 330 709 l 1
 418 709 l 1
 418 611 l 1
 330 611 l 1
287 -12 m 0
 137 -12 44 97 44 265 c 0
 44 433 137 542 283 542 c 0
 421 542 517 442 517 264 c 2
 517 239 l 1
 132 239 l 1xf9
 138 125 195 68 287 68 c 0
 356 68 401 103 419 157 c 1
 509 150 l 1
 481 55 399 -12 287 -12 c 0
132 313 m 1
 425 313 l 1
 417 415 361 462 283 462 c 0
 201 462 146 411 132 313 c 1
EndSplineSet
Substitution2: "'ss08' Style Set 8 in Latin lookup 41 subtable" edieresis.ss08
Substitution2: "'aalt' Access All Alternates in Latin lookup 0 subtable" edieresis.ss08
EndChar

StartChar: edotaccent
Encoding: 279 279 199
Width: 561
GlyphClass: 2
Flags: MW
HStem: -12 80<241 321.5 241 343> 239 74<132 425 132 517 132 425> 462 80<242 322> 611 98<243 331 243 331>
VStem: 44 88<239 239 239 313 239 349> 243 88<611 709 611 709> 425 92<239 313>
AnchorPoint: "Anchor-3" 287 528 basechar 0
AnchorPoint: "Anchor-2" 416 24 basechar 0
AnchorPoint: "Anchor-0" 287 0 basechar 0
LayerCount: 2
Fore
SplineSet
243 611 m 1
 243 709 l 1
 331 709 l 1
 331 611 l 1
 243 611 l 1
287 -12 m 0
 137 -12 44 97 44 265 c 0
 44 433 137 542 283 542 c 0
 421 542 517 442 517 264 c 2
 517 239 l 1
 132 239 l 1
 138 125 195 68 287 68 c 0
 356 68 401 103 419 157 c 1
 509 150 l 1
 481 55 399 -12 287 -12 c 0
132 313 m 1
 425 313 l 1
 417 415 361 462 283 462 c 0
 201 462 146 411 132 313 c 1
EndSplineSet
Substitution2: "'ss08' Style Set 8 in Latin lookup 41 subtable" edotaccent.ss08
Substitution2: "'aalt' Access All Alternates in Latin lookup 0 subtable" edotaccent.ss08
EndChar

StartChar: egrave
Encoding: 232 232 200
Width: 561
GlyphClass: 2
Flags: MW
HStem: -12 80<241 321.5 241 343> 239 74<132 425 132 517 132 425> 462 80<242 322> 601 128<256 256 256 260 166 326>
VStem: 44 88<239 239 239 313 239 349> 425 92<239 313>
AnchorPoint: "Anchor-3" 287 528 basechar 0
AnchorPoint: "Anchor-2" 416 24 basechar 0
AnchorPoint: "Anchor-0" 287 0 basechar 0
LayerCount: 2
Fore
SplineSet
256 601 m 1
 166 729 l 1
 260 729 l 1
 326 601 l 1
 256 601 l 1
287 -12 m 0
 137 -12 44 97 44 265 c 0
 44 433 137 542 283 542 c 0
 421 542 517 442 517 264 c 2
 517 239 l 1
 132 239 l 1
 138 125 195 68 287 68 c 0
 356 68 401 103 419 157 c 1
 509 150 l 1
 481 55 399 -12 287 -12 c 0
132 313 m 1
 425 313 l 1
 417 415 361 462 283 462 c 0
 201 462 146 411 132 313 c 1
EndSplineSet
EndChar

StartChar: emacron
Encoding: 275 275 201
Width: 561
GlyphClass: 2
Flags: MW
HStem: -12 80<241 321.5 241 343> 239 74<132 425 132 517 132 425> 462 80<242 322> 623 72<153 421 153 421>
VStem: 44 88<239 239 239 313 239 349> 153 268<623 695 623 695> 425 92<239 313>
AnchorPoint: "Anchor-3" 287 528 basechar 0
AnchorPoint: "Anchor-2" 416 24 basechar 0
AnchorPoint: "Anchor-0" 287 0 basechar 0
LayerCount: 2
Fore
SplineSet
153 623 m 1
 153 695 l 1
 421 695 l 1
 421 623 l 1
 153 623 l 1
287 -12 m 0
 137 -12 44 97 44 265 c 0
 44 433 137 542 283 542 c 0
 421 542 517 442 517 264 c 2
 517 239 l 1
 132 239 l 1xfa
 138 125 195 68 287 68 c 0
 356 68 401 103 419 157 c 1
 509 150 l 1
 481 55 399 -12 287 -12 c 0
132 313 m 1
 425 313 l 1
 417 415 361 462 283 462 c 0
 201 462 146 411 132 313 c 1
EndSplineSet
EndChar

StartChar: eogonek
Encoding: 281 281 202
Width: 561
GlyphClass: 2
Flags: MW
HStem: -210 68<369.5 381.5> -12 80<241 293.5> 239 74<132 425 132 517 132 425> 462 80<242 322>
VStem: 44 88<239 239 239 313 239 349> 273 76<-121 -104.5> 425 92<239 313>
AnchorPoint: "Anchor-3" 287 528 basechar 0
AnchorPoint: "Anchor-2" 416 24 basechar 0
AnchorPoint: "Anchor-0" 287 0 basechar 0
LayerCount: 2
Fore
SplineSet
287 -12 m 0
 137 -12 44 97 44 265 c 0
 44 433 137 542 283 542 c 0
 421 542 517 442 517 264 c 2
 517 239 l 1
 132 239 l 1
 138 125 195 68 287 68 c 0
 356 68 401 103 419 157 c 1
 509 150 l 1
 500 119 485 90 464 66 c 1
 467 66 l 1
 384 -35 l 2
 358 -67 349 -90 349 -110 c 0
 349 -132 361 -142 378 -142 c 0
 397 -142 413 -137 426 -128 c 1
 450 -184 l 1
 435 -199 399 -210 364 -210 c 0
 307 -210 273 -178 273 -126 c 0
 273 -83 290 -49 320 -16 c 2
 326 -9 l 1
 314 -11 300 -12 287 -12 c 0
132 313 m 1
 425 313 l 1
 417 415 361 462 283 462 c 0
 201 462 146 411 132 313 c 1
EndSplineSet
EndChar

StartChar: uni1EBD
Encoding: 7869 7869 203
Width: 561
GlyphClass: 2
Flags: MW
HStem: -12 80<241 321.5 241 343> 239 74<132 425 132 517 132 425> 462 80<242 322> 608 56<342 362.5 342 374.5> 662 56<212 234>
VStem: 44 88<239 239 239 313 239 349> 129 52<601 601> 392 52<728 728> 425 92<239 313>
AnchorPoint: "Anchor-3" 287 528 basechar 0
AnchorPoint: "Anchor-2" 416 24 basechar 0
AnchorPoint: "Anchor-0" 287 0 basechar 0
LayerCount: 2
Fore
SplineSet
346 608 m 0xf5
 320 608 298 618 276 636 c 0
 253 655 244 662 224 662 c 0
 200 662 183 649 181 601 c 1
 129 601 l 1
 131 678 170 718 224 718 c 0xea80
 256 718 277 707 300 688 c 0
 321 671 334 664 350 664 c 0
 375 664 388 678 392 728 c 1
 444 728 l 1
 440 652 403 608 346 608 c 0xf5
287 -12 m 0
 137 -12 44 97 44 265 c 0
 44 433 137 542 283 542 c 0
 421 542 517 442 517 264 c 2
 517 239 l 1
 132 239 l 1xec80
 138 125 195 68 287 68 c 0
 356 68 401 103 419 157 c 1
 509 150 l 1
 481 55 399 -12 287 -12 c 0
132 313 m 1
 425 313 l 1
 417 415 361 462 283 462 c 0
 201 462 146 411 132 313 c 1
EndSplineSet
EndChar

StartChar: uni0259
Encoding: 601 601 204
Width: 561
GlyphClass: 2
Flags: MW
HStem: -12 80<239 319 239 351> 217 74<136 429 136 136> 462 80<239.5 320>
VStem: 44 92<217 291 217 291> 429 88<217 217 291 291>
AnchorPoint: "Anchor-3" 274 530 basechar 0
AnchorPoint: "Anchor-2" 145 506 basechar 0
AnchorPoint: "Anchor-0" 274 2 basechar 0
LayerCount: 2
Fore
SplineSet
274 542 m 0
 424 542 517 433 517 265 c 0
 517 97 424 -12 278 -12 c 0
 140 -12 44 88 44 266 c 2
 44 291 l 1
 429 291 l 1
 423 405 366 462 274 462 c 0
 205 462 160 427 142 373 c 1
 52 380 l 1
 80 475 162 542 274 542 c 0
429 217 m 1
 136 217 l 1
 144 115 200 68 278 68 c 0
 360 68 415 119 429 217 c 1
EndSplineSet
EndChar

StartChar: f
Encoding: 102 102 205
Width: 395
GlyphClass: 2
Flags: MW
HStem: 0 21G<132 132 132 216> 456 74<60 132 60 132 216 349> 636 74<272 278 278 356>
VStem: 132 84<0 456 0 456 530 572>
AnchorPoint: "Anchor-3" 199 710 basechar 0
AnchorPoint: "Anchor-0" 199 0 basechar 0
LayerCount: 2
Fore
SplineSet
132 0 m 1
 132 456 l 1
 60 456 l 1
 60 530 l 1
 132 530 l 1
 132 578 l 2
 132 656 176 710 272 710 c 2
 356 710 l 1
 356 636 l 1
 278 636 l 2
 236 636 216 612 216 572 c 2
 216 530 l 1
 349 530 l 1
 349 456 l 1
 216 456 l 1
 216 0 l 1
 132 0 l 1
EndSplineSet
EndChar

StartChar: g
Encoding: 103 103 206
Width: 594
GlyphClass: 2
Flags: MW
HStem: -162 80<240 329 240 354> -8 21G<59 59> 28 80<233.5 309.5> 462 80<232.5 308 204.5 325> 510 20G<434 514 514 514>
VStem: 44 88<230.5 339.5 230.5 360.5> 430 84<34 36 36 120 120 120> 434 80<446 530>
AnchorPoint: "Anchor-3" 283 530 basechar 0
AnchorPoint: "Anchor-0" 281 -150 basechar 0
LayerCount: 2
Fore
SplineSet
281 -162 m 0xee
 167 -162 81 -101 59 -8 c 1
 147 -2 l 1
 163 -52 199 -82 281 -82 c 0
 377 -82 430 -44 430 34 c 2
 430 120 l 1
 404 64 344 28 275 28 c 0
 140 28 44 134 44 285 c 0
 44 436 138 542 271 542 c 0xf6
 345 542 410 505 434 446 c 1
 434 530 l 1xed
 514 530 l 1
 514 36 l 2
 514 -88 427 -162 281 -162 c 0xee
279 108 m 0
 370 108 429 176 430 285 c 0
 432 394 371 462 279 462 c 0
 186 462 132 394 132 285 c 0
 132 176 188 108 279 108 c 0
EndSplineSet
EndChar

StartChar: gbreve
Encoding: 287 287 207
Width: 594
GlyphClass: 2
Flags: MW
HStem: -162 80<240 329 240 354> -8 21G<59 59> 28 80<233.5 309.5> 462 80<232.5 308 204.5 325> 510 20G<434 514 514 514> 603 62<260 306 260 324>
VStem: 44 88<230.5 339.5 230.5 360.5> 430 84<34 36 36 120 120 120> 434 80<446 530>
AnchorPoint: "Anchor-3" 283 530 basechar 0
AnchorPoint: "Anchor-0" 281 -150 basechar 0
LayerCount: 2
Fore
SplineSet
283 603 m 0xef
 201 603 147 653 143 731 c 1
 201 731 l 1
 207 685 237 665 283 665 c 0
 329 665 358 685 364 731 c 1
 422 731 l 1
 418 653 365 603 283 603 c 0xef
281 -162 m 0
 167 -162 81 -101 59 -8 c 1
 147 -2 l 1
 163 -52 199 -82 281 -82 c 0
 377 -82 430 -44 430 34 c 2
 430 120 l 1
 404 64 344 28 275 28 c 0
 140 28 44 134 44 285 c 0
 44 436 138 542 271 542 c 0xf7
 345 542 410 505 434 446 c 1
 434 530 l 1xee80
 514 530 l 1
 514 36 l 2
 514 -88 427 -162 281 -162 c 0
279 108 m 0
 370 108 429 176 430 285 c 0
 432 394 371 462 279 462 c 0
 186 462 132 394 132 285 c 0
 132 176 188 108 279 108 c 0
EndSplineSet
EndChar

StartChar: gcaron
Encoding: 487 487 208
Width: 594
GlyphClass: 2
Flags: MW
HStem: -162 80<240 329 240 354> -8 21G<59 59> 28 80<233.5 309.5> 462 80<232.5 308 204.5 325> 510 20G<434 514 514 514> 598 133<146 330 146 236>
VStem: 44 88<230.5 339.5 230.5 360.5> 430 84<34 36 36 120 120 120> 434 80<446 530>
AnchorPoint: "Anchor-3" 283 530 basechar 0
AnchorPoint: "Anchor-0" 281 -150 basechar 0
LayerCount: 2
Fore
SplineSet
146 731 m 1xef
 216 731 l 1
 283 642 l 1
 350 731 l 1
 420 731 l 1
 330 598 l 1
 236 598 l 1
 146 731 l 1xef
281 -162 m 0
 167 -162 81 -101 59 -8 c 1
 147 -2 l 1
 163 -52 199 -82 281 -82 c 0
 377 -82 430 -44 430 34 c 2
 430 120 l 1
 404 64 344 28 275 28 c 0
 140 28 44 134 44 285 c 0
 44 436 138 542 271 542 c 0xf7
 345 542 410 505 434 446 c 1
 434 530 l 1xee80
 514 530 l 1
 514 36 l 2
 514 -88 427 -162 281 -162 c 0
279 108 m 0
 370 108 429 176 430 285 c 0
 432 394 371 462 279 462 c 0
 186 462 132 394 132 285 c 0
 132 176 188 108 279 108 c 0
EndSplineSet
EndChar

StartChar: gcircumflex
Encoding: 285 285 209
Width: 594
GlyphClass: 2
Flags: MW
HStem: -162 80<240 329 240 354> -8 21G<59 59> 28 80<233.5 309.5> 462 80<232.5 308 204.5 325> 510 20G<434 514 514 514> 598 133<146 330 146 330 236 350 236 420>
VStem: 44 88<230.5 339.5 230.5 360.5> 430 84<34 36 36 120 120 120> 434 80<446 530>
AnchorPoint: "Anchor-3" 283 530 basechar 0
AnchorPoint: "Anchor-0" 281 -150 basechar 0
LayerCount: 2
Fore
SplineSet
146 598 m 1xef
 236 731 l 1
 330 731 l 1
 420 598 l 1
 350 598 l 1
 283 687 l 1
 216 598 l 1
 146 598 l 1xef
281 -162 m 0
 167 -162 81 -101 59 -8 c 1
 147 -2 l 1
 163 -52 199 -82 281 -82 c 0
 377 -82 430 -44 430 34 c 2
 430 120 l 1
 404 64 344 28 275 28 c 0
 140 28 44 134 44 285 c 0
 44 436 138 542 271 542 c 0xf7
 345 542 410 505 434 446 c 1
 434 530 l 1xee80
 514 530 l 1
 514 36 l 2
 514 -88 427 -162 281 -162 c 0
279 108 m 0
 370 108 429 176 430 285 c 0
 432 394 371 462 279 462 c 0
 186 462 132 394 132 285 c 0
 132 176 188 108 279 108 c 0
EndSplineSet
EndChar

StartChar: uni0123
Encoding: 291 291 210
Width: 594
GlyphClass: 2
Flags: MW
HStem: -162 80<240 329 240 354> -8 21G<59 59> 28 80<233.5 309.5> 462 80<232.5 308 204.5 325> 510 20G<434 514 514 514> 603 90<231 331 295 331 295 331>
VStem: 44 88<230.5 339.5 230.5 360.5> 231 100<603 685 685 685> 430 84<34 36 36 120 120 120> 434 80<446 530>
AnchorPoint: "Anchor-3" 283 530 basechar 0
AnchorPoint: "Anchor-0" 281 -150 basechar 0
LayerCount: 2
Fore
SplineSet
231 603 m 1xef80
 231 685 l 1
 292 790 l 1
 350 790 l 1
 295 693 l 1
 331 693 l 1
 331 603 l 1
 231 603 l 1xef80
281 -162 m 0
 167 -162 81 -101 59 -8 c 1
 147 -2 l 1
 163 -52 199 -82 281 -82 c 0
 377 -82 430 -44 430 34 c 2
 430 120 l 1
 404 64 344 28 275 28 c 0
 140 28 44 134 44 285 c 0
 44 436 138 542 271 542 c 0xf780
 345 542 410 505 434 446 c 1
 434 530 l 1xef40
 514 530 l 1
 514 36 l 2
 514 -88 427 -162 281 -162 c 0
279 108 m 0
 370 108 429 176 430 285 c 0
 432 394 371 462 279 462 c 0
 186 462 132 394 132 285 c 0
 132 176 188 108 279 108 c 0
EndSplineSet
EndChar

StartChar: gdotaccent
Encoding: 289 289 211
Width: 594
GlyphClass: 2
Flags: MW
HStem: -162 80<240 329 240 354> -8 21G<59 59> 28 80<233.5 309.5> 462 80<232.5 308 204.5 325> 510 20G<434 514 514 514> 613 98<239 327 239 327>
VStem: 44 88<230.5 339.5 230.5 360.5> 239 88<613 711 613 711> 430 84<34 36 36 120 120 120> 434 80<446 530>
AnchorPoint: "Anchor-3" 283 530 basechar 0
AnchorPoint: "Anchor-0" 281 -150 basechar 0
LayerCount: 2
Fore
SplineSet
239 613 m 1xef80
 239 711 l 1
 327 711 l 1
 327 613 l 1
 239 613 l 1xef80
281 -162 m 0
 167 -162 81 -101 59 -8 c 1
 147 -2 l 1
 163 -52 199 -82 281 -82 c 0
 377 -82 430 -44 430 34 c 2
 430 120 l 1
 404 64 344 28 275 28 c 0
 140 28 44 134 44 285 c 0
 44 436 138 542 271 542 c 0xf780
 345 542 410 505 434 446 c 1
 434 530 l 1xef40
 514 530 l 1
 514 36 l 2
 514 -88 427 -162 281 -162 c 0
279 108 m 0
 370 108 429 176 430 285 c 0
 432 394 371 462 279 462 c 0
 186 462 132 394 132 285 c 0
 132 176 188 108 279 108 c 0
EndSplineSet
Substitution2: "'ss08' Style Set 8 in Latin lookup 41 subtable" gdotaccent.ss08
Substitution2: "'aalt' Access All Alternates in Latin lookup 0 subtable" gdotaccent.ss08
EndChar

StartChar: uni1E21
Encoding: 7713 7713 212
Width: 594
GlyphClass: 2
Flags: MW
HStem: -162 80<240 329 240 354> -8 21G<59 59> 28 80<233.5 309.5> 462 80<232.5 308 204.5 325> 510 20G<434 514 514 514> 625 72<149 417 149 417>
VStem: 44 88<230.5 339.5 230.5 360.5> 149 268<625 697 625 697> 430 84<34 36 36 120 120 120> 434 80<446 530>
AnchorPoint: "Anchor-3" 283 530 basechar 0
AnchorPoint: "Anchor-0" 281 -150 basechar 0
LayerCount: 2
Fore
SplineSet
149 625 m 1xf5
 149 697 l 1
 417 697 l 1
 417 625 l 1
 149 625 l 1xf5
281 -162 m 0
 167 -162 81 -101 59 -8 c 1
 147 -2 l 1
 163 -52 199 -82 281 -82 c 0
 377 -82 430 -44 430 34 c 2
 430 120 l 1
 404 64 344 28 275 28 c 0
 140 28 44 134 44 285 c 0
 44 436 138 542 271 542 c 0xf680
 345 542 410 505 434 446 c 1
 434 530 l 1xee40
 514 530 l 1
 514 36 l 2xee80
 514 -88 427 -162 281 -162 c 0
279 108 m 0
 370 108 429 176 430 285 c 0
 432 394 371 462 279 462 c 0
 186 462 132 394 132 285 c 0
 132 176 188 108 279 108 c 0
EndSplineSet
EndChar

StartChar: uni01E5
Encoding: 485 485 213
Width: 624
GlyphClass: 2
Flags: MW
HStem: -162 80<240 329 240 354> -8 21G<59 59> 28 80<233.5 309.5> 246 70<234 427 234 429 514 584> 462 80<232.5 308 204.5 320.5> 510 20G<434 514 514 514>
VStem: 44 88<230.5 339.5 230.5 360.5> 430 84<34 36 36 120 120 120> 434 80<446 530>
AnchorPoint: "Anchor-3" 283 530 basechar 0
AnchorPoint: "Anchor-0" 281 -150 basechar 0
LayerCount: 2
Fore
SplineSet
281 -162 m 0xf7
 167 -162 81 -101 59 -8 c 1
 147 -2 l 1
 163 -52 199 -82 281 -82 c 0
 377 -82 430 -44 430 34 c 2
 430 120 l 1
 404 64 344 28 275 28 c 0
 140 28 44 134 44 285 c 0
 44 436 138 542 271 542 c 0xfb
 345 542 410 505 434 446 c 1
 434 530 l 1xf680
 514 530 l 1
 514 316 l 1
 584 316 l 1
 584 246 l 1
 514 246 l 1
 514 36 l 2
 514 -88 427 -162 281 -162 c 0xf7
279 108 m 0
 359 108 414 160 427 246 c 1
 234 246 l 1
 234 316 l 1
 429 316 l 1
 420 407 362 462 279 462 c 0
 186 462 132 394 132 285 c 0
 132 176 188 108 279 108 c 0
EndSplineSet
EndChar

StartChar: h
Encoding: 104 104 214
Width: 581
GlyphClass: 2
Flags: MW
HStem: 0 21G<80 80 80 164 417 417 417 501> 468 74<287.5 343> 690 20G<80 164 164 164>
VStem: 80 84<0 316 447 710> 417 84<0 317 317 341 0 368>
AnchorPoint: "Anchor-3" 122 690 basechar 0
AnchorPoint: "Anchor-1" 160 616 basechar 0
AnchorPoint: "Anchor-0" 291 0 basechar 0
LayerCount: 2
Fore
SplineSet
80 0 m 1
 80 710 l 1
 164 710 l 1
 164 447 l 1
 191 512 251 542 324 542 c 0
 438 542 501 459 501 341 c 2
 501 0 l 1
 417 0 l 1
 417 317 l 2
 417 419 380 468 306 468 c 0
 220 468 164 414 164 316 c 2
 164 0 l 1
 80 0 l 1
EndSplineSet
EndChar

StartChar: hbar
Encoding: 295 295 215
Width: 581
GlyphClass: 2
Flags: MW
HStem: 0 21G<80 80 80 164 417 417 417 501> 468 74<287.5 343> 582 68<10 80 10 80 164 310> 582 128<10 164 10 164 80 164 80 310>
VStem: 80 84<0 316 447 582 650 710> 417 84<0 317 317 341 0 368>
AnchorPoint: "Anchor-3" 122 690 basechar 0
AnchorPoint: "Anchor-1" 160 616 basechar 0
AnchorPoint: "Anchor-0" 291 0 basechar 0
LayerCount: 2
Fore
SplineSet
80 0 m 1xdc
 80 582 l 1
 10 582 l 1xdc
 10 650 l 1
 80 650 l 1xec
 80 710 l 1
 164 710 l 1xdc
 164 650 l 1
 310 650 l 1xec
 310 582 l 1
 164 582 l 1
 164 447 l 1
 191 512 251 542 324 542 c 0
 438 542 501 459 501 341 c 2
 501 0 l 1
 417 0 l 1
 417 317 l 2
 417 419 380 468 306 468 c 0
 220 468 164 414 164 316 c 2
 164 0 l 1
 80 0 l 1xdc
EndSplineSet
EndChar

StartChar: hcircumflex
Encoding: 293 293 216
Width: 581
GlyphClass: 2
Flags: MW
HStem: 0 21G<80 80 80 164 417 417 417 501> 468 74<287.5 343> 690 20G<80 164 164 164> 758 133<-15 169 -15 169 75 189 75 259>
VStem: 80 84<0 316 447 710> 417 84<0 317 317 341 0 368>
AnchorPoint: "Anchor-3" 122 690 basechar 0
AnchorPoint: "Anchor-1" 160 616 basechar 0
AnchorPoint: "Anchor-0" 291 0 basechar 0
LayerCount: 2
Fore
SplineSet
-15 758 m 1
 75 891 l 1
 169 891 l 1
 259 758 l 1
 189 758 l 1
 122 847 l 1
 55 758 l 1
 -15 758 l 1
80 0 m 1
 80 710 l 1
 164 710 l 1
 164 447 l 1
 191 512 251 542 324 542 c 0
 438 542 501 459 501 341 c 2
 501 0 l 1
 417 0 l 1
 417 317 l 2
 417 419 380 468 306 468 c 0
 220 468 164 414 164 316 c 2
 164 0 l 1
 80 0 l 1
EndSplineSet
EndChar

StartChar: i
Encoding: 105 105 217
Width: 244
GlyphClass: 2
Flags: MW
HStem: 0 21G<80 80 80 164> 510 20G<80 164 164 164> 613 98<78 166 78 166>
VStem: 78 88<613 711 613 711> 80 84<0 530 0 530>
AnchorPoint: "Anchor-3" 122 530 basechar 0
AnchorPoint: "Anchor-2" 164 0 basechar 0
AnchorPoint: "Anchor-0" 122 0 basechar 0
LayerCount: 2
Fore
SplineSet
78 613 m 1xf0
 78 711 l 1
 166 711 l 1
 166 613 l 1
 78 613 l 1xf0
80 0 m 1xe8
 80 530 l 1
 164 530 l 1
 164 0 l 1
 80 0 l 1xe8
EndSplineSet
Substitution2: "'ss08' Style Set 8 in Latin lookup 41 subtable" i.ss08
Substitution2: "'locl' Localized Forms in Latin lookup 9 subtable" i.loclTRK
Substitution2: "Single Substitution lookup 3 subtable" dotlessi
AlternateSubs2: "'aalt' Access All Alternates in Latin lookup 1 subtable" i.loclTRK i.ss08
EndChar

StartChar: dotlessi
Encoding: 305 305 218
Width: 244
GlyphClass: 2
Flags: MW
HStem: 0 21G<80 80 80 164> 510 20G<80 164 164 164>
VStem: 80 84<0 530 0 530>
AnchorPoint: "Anchor-3" 122 530 basechar 0
AnchorPoint: "Anchor-2" 164 0 basechar 0
AnchorPoint: "Anchor-0" 122 0 basechar 0
LayerCount: 2
Fore
SplineSet
80 0 m 1
 80 530 l 1
 164 530 l 1
 164 0 l 1
 80 0 l 1
EndSplineSet
EndChar

StartChar: iacute
Encoding: 237 237 219
Width: 244
GlyphClass: 2
Flags: MW
HStem: 0 21G<80 80 80 164> 510 20G<80 164 164 164> 598 128<85 245 151 155>
VStem: 80 84<0 530 0 530>
AnchorPoint: "Anchor-3" 122 530 basechar 0
AnchorPoint: "Anchor-2" 164 0 basechar 0
AnchorPoint: "Anchor-0" 122 0 basechar 0
LayerCount: 2
Fore
SplineSet
85 598 m 1
 151 726 l 1
 245 726 l 1
 155 598 l 1
 85 598 l 1
80 0 m 1
 80 530 l 1
 164 530 l 1
 164 0 l 1
 80 0 l 1
EndSplineSet
EndChar

StartChar: icircumflex
Encoding: 238 238 220
Width: 244
GlyphClass: 2
Flags: MW
HStem: 0 21G<80 80 80 164> 510 20G<80 164 164 164> 598 133<-15 169 -15 169 75 189 75 259>
VStem: 80 84<0 530 0 530>
AnchorPoint: "Anchor-3" 122 530 basechar 0
AnchorPoint: "Anchor-2" 164 0 basechar 0
AnchorPoint: "Anchor-0" 122 0 basechar 0
LayerCount: 2
Fore
SplineSet
-15 598 m 1
 75 731 l 1
 169 731 l 1
 259 598 l 1
 189 598 l 1
 122 687 l 1
 55 598 l 1
 -15 598 l 1
80 0 m 1
 80 530 l 1
 164 530 l 1
 164 0 l 1
 80 0 l 1
EndSplineSet
EndChar

StartChar: idieresis
Encoding: 239 239 221
Width: 244
GlyphClass: 2
Flags: MW
HStem: 0 21G<80 80 80 164> 510 20G<80 164 164 164> 613 98<-9 79 -9 79 165 253 -9 165>
VStem: -9 88<613 711 613 711> 80 84<0 530 0 530> 165 88<613 711 613 711>
AnchorPoint: "Anchor-3" 122 530 basechar 0
AnchorPoint: "Anchor-2" 164 0 basechar 0
AnchorPoint: "Anchor-0" 122 0 basechar 0
LayerCount: 2
Fore
SplineSet
-9 613 m 1
 -9 711 l 1
 79 711 l 1
 79 613 l 1
 -9 613 l 1
165 613 m 1
 165 711 l 1
 253 711 l 1
 253 613 l 1
 165 613 l 1
80 0 m 1xe8
 80 530 l 1
 164 530 l 1
 164 0 l 1
 80 0 l 1xe8
EndSplineSet
Substitution2: "'ss08' Style Set 8 in Latin lookup 41 subtable" idieresis.ss08
Substitution2: "'aalt' Access All Alternates in Latin lookup 0 subtable" idieresis.ss08
EndChar

StartChar: i.loclTRK
Encoding: 65576 -1 222
Width: 244
GlyphClass: 2
Flags: MW
HStem: 0 21G<80 80 80 164> 510 20G<80 164 164 164> 613 98<78 166 78 166>
VStem: 78 88<613 711 613 711> 80 84<0 530 0 530>
AnchorPoint: "Anchor-3" 122 530 basechar 0
AnchorPoint: "Anchor-2" 164 0 basechar 0
AnchorPoint: "Anchor-0" 122 0 basechar 0
LayerCount: 2
Fore
SplineSet
78 613 m 1xf0
 78 711 l 1
 166 711 l 1
 166 613 l 1
 78 613 l 1xf0
80 0 m 1xe8
 80 530 l 1
 164 530 l 1
 164 0 l 1
 80 0 l 1xe8
EndSplineSet
Substitution2: "'ss08' Style Set 8 in Latin lookup 41 subtable" i.loclTRK.ss08
Substitution2: "'aalt' Access All Alternates in Latin lookup 0 subtable" i.loclTRK.ss08
EndChar

StartChar: igrave
Encoding: 236 236 223
Width: 244
GlyphClass: 2
Flags: MW
HStem: 0 21G<80 80 80 164> 510 20G<80 164 164 164> 603 128<91 91 91 95 1 161>
VStem: 80 84<0 530 0 530>
AnchorPoint: "Anchor-3" 122 530 basechar 0
AnchorPoint: "Anchor-2" 164 0 basechar 0
AnchorPoint: "Anchor-0" 122 0 basechar 0
LayerCount: 2
Fore
SplineSet
91 603 m 1
 1 731 l 1
 95 731 l 1
 161 603 l 1
 91 603 l 1
80 0 m 1
 80 530 l 1
 164 530 l 1
 164 0 l 1
 80 0 l 1
EndSplineSet
EndChar

StartChar: imacron
Encoding: 299 299 224
Width: 244
GlyphClass: 2
Flags: MW
HStem: 0 21G<80 80 80 164> 510 20G<80 164 164 164> 625 72<-12 256 -12 256>
VStem: 80 84<0 530 0 530>
AnchorPoint: "Anchor-3" 122 530 basechar 0
AnchorPoint: "Anchor-2" 164 0 basechar 0
AnchorPoint: "Anchor-0" 122 0 basechar 0
LayerCount: 2
Fore
SplineSet
-12 625 m 1
 -12 697 l 1
 256 697 l 1
 256 625 l 1
 -12 625 l 1
80 0 m 1
 80 530 l 1
 164 530 l 1
 164 0 l 1
 80 0 l 1
EndSplineSet
EndChar

StartChar: iogonek
Encoding: 303 303 225
Width: 244
GlyphClass: 2
Flags: MW
HStem: -210 68<118.5 130.5> 0 21G<80 80 80 94 164 164> 510 20G<80 164 164 164> 613 98<78 166 78 166>
VStem: 20 78<-124 -121> 78 88<613 711 613 711> 80 84<0 530 0 530>
AnchorPoint: "Anchor-3" 122 530 basechar 0
AnchorPoint: "Anchor-2" 164 0 basechar 0
AnchorPoint: "Anchor-0" 122 0 basechar 0
LayerCount: 2
Fore
SplineSet
78 613 m 1xf4
 78 711 l 1
 166 711 l 1
 166 613 l 1
 78 613 l 1xf4
80 0 m 1xf2
 80 530 l 1
 164 530 l 1
 164 0 l 1xf2
 129 -48 l 2
 104 -83 98 -100 98 -116 c 0
 98 -132 110 -142 127 -142 c 0
 146 -142 162 -137 175 -128 c 1
 199 -184 l 1
 184 -199 148 -210 113 -210 c 0
 56 -210 20 -186 20 -140 c 0xf8
 20 -102 50 -59 77 -22 c 2
 94 0 l 1
 80 0 l 1xf2
EndSplineSet
Substitution2: "'ss08' Style Set 8 in Latin lookup 41 subtable" iogonek.ss08
Substitution2: "'aalt' Access All Alternates in Latin lookup 0 subtable" iogonek.ss08
EndChar

StartChar: itilde
Encoding: 297 297 226
Width: 244
GlyphClass: 2
Flags: MW
HStem: 0 21G<80 80 80 164> 510 20G<80 164 164 164> 610 56<177 197.5 177 209.5> 664 56<47 69>
VStem: -36 52<603 603> 80 84<0 530 0 530> 227 52<730 730>
AnchorPoint: "Anchor-3" 122 530 basechar 0
AnchorPoint: "Anchor-2" 164 0 basechar 0
AnchorPoint: "Anchor-0" 122 0 basechar 0
LayerCount: 2
Fore
SplineSet
181 610 m 0xe6
 155 610 133 620 111 638 c 0
 88 657 79 664 59 664 c 0
 35 664 18 651 16 603 c 1
 -36 603 l 1
 -34 680 5 720 59 720 c 0xdc
 91 720 112 709 135 690 c 0
 156 673 169 666 185 666 c 0
 210 666 223 680 227 730 c 1
 279 730 l 1
 275 654 238 610 181 610 c 0xe6
80 0 m 1
 80 530 l 1
 164 530 l 1
 164 0 l 1
 80 0 l 1
EndSplineSet
EndChar

StartChar: ij
Encoding: 307 307 227
Width: 494
GlyphClass: 2
Flags: MW
HStem: -150 74<229 272 229 272 272 280> 0 21G<80 80 80 164> 510 20G<80 164 164 164 330 414 414 414> 613 98<78 166 78 166 328 416>
VStem: 78 88<613 711 613 711> 80 84<0 530 0 530> 229 185<-150 -22 -76 -22> 328 88<613 711 613 711> 330 84<-18 530>
AnchorPoint: "Anchor-3" 372 530 basechar 0
AnchorPoint: "Anchor-2" 164 0 basechar 0
AnchorPoint: "Anchor-0" 364 -150 basechar 0
LayerCount: 2
Fore
SplineSet
78 613 m 1xf9
 78 711 l 1
 166 711 l 1
 166 613 l 1
 78 613 l 1xf9
328 613 m 1
 328 711 l 1
 416 711 l 1
 416 613 l 1
 328 613 l 1
80 0 m 1xf6
 80 530 l 1
 164 530 l 1
 164 0 l 1
 80 0 l 1xf6
229 -150 m 1
 229 -76 l 1xf6
 272 -76 l 2
 307 -76 330 -62 330 -18 c 2
 330 530 l 1
 414 530 l 1
 414 -22 l 2xf480
 414 -116 376 -150 280 -150 c 2
 229 -150 l 1
EndSplineSet
Substitution2: "'ss08' Style Set 8 in Latin lookup 41 subtable" ij.ss08
Substitution2: "'aalt' Access All Alternates in Latin lookup 0 subtable" ij.ss08
EndChar

StartChar: j
Encoding: 106 106 228
Width: 260
GlyphClass: 2
Flags: MW
HStem: -150 74<-5 38 -5 38 38 46> 510 20G<96 180 180 180> 613 98<94 182 94 182>
VStem: -5 185<-150 -22 -76 -22> 94 88<613 711 613 711> 96 84<-18 530>
AnchorPoint: "Anchor-3" 138 530 basechar 0
AnchorPoint: "Anchor-0" 130 -150 basechar 0
LayerCount: 2
Fore
SplineSet
94 613 m 1xe8
 94 711 l 1
 182 711 l 1
 182 613 l 1
 94 613 l 1xe8
-5 -150 m 1xf0
 -5 -76 l 1xf0
 38 -76 l 2
 73 -76 96 -62 96 -18 c 2
 96 530 l 1
 180 530 l 1
 180 -22 l 2xe4
 180 -116 142 -150 46 -150 c 2
 -5 -150 l 1xf0
EndSplineSet
Substitution2: "'ss08' Style Set 8 in Latin lookup 41 subtable" j.ss08
Substitution2: "Single Substitution lookup 16 subtable" uni006A0301
Substitution2: "Single Substitution lookup 3 subtable" uni0237
AlternateSubs2: "'aalt' Access All Alternates in Latin lookup 1 subtable" uni006A0301 j.ss08
EndChar

StartChar: uni0237
Encoding: 567 567 229
Width: 260
GlyphClass: 2
Flags: MW
HStem: -150 74<-5 38 -5 38 38 46> 510 20G<96 180 180 180>
VStem: -5 185<-150 -22 -76 -22> 96 84<-18 530>
AnchorPoint: "Anchor-3" 138 530 basechar 0
AnchorPoint: "Anchor-0" 130 -150 basechar 0
LayerCount: 2
Fore
SplineSet
-5 -150 m 1xe0
 -5 -76 l 1xe0
 38 -76 l 2
 73 -76 96 -62 96 -18 c 2
 96 530 l 1
 180 530 l 1
 180 -22 l 2xd0
 180 -116 142 -150 46 -150 c 2
 -5 -150 l 1xe0
EndSplineSet
EndChar

StartChar: uni006A0301
Encoding: 65577 -1 230
Width: 260
GlyphClass: 2
Flags: MW
HStem: -150 74<-5 38 -5 38 38 46> 510 20G<96 180 180 180> 598 128<101 261 167 171>
VStem: -5 185<-150 -22 -76 -22> 96 84<-18 530>
AnchorPoint: "Anchor-3" 138 530 basechar 0
AnchorPoint: "Anchor-0" 130 -150 basechar 0
LayerCount: 2
Fore
SplineSet
101 598 m 1xf0
 167 726 l 1
 261 726 l 1
 171 598 l 1
 101 598 l 1xf0
-5 -150 m 1
 -5 -76 l 1xf0
 38 -76 l 2
 73 -76 96 -62 96 -18 c 2
 96 530 l 1
 180 530 l 1
 180 -22 l 2xe8
 180 -116 142 -150 46 -150 c 2
 -5 -150 l 1
EndSplineSet
EndChar

StartChar: jcircumflex
Encoding: 309 309 231
Width: 260
GlyphClass: 2
Flags: MW
HStem: -150 74<-5 38 -5 38 38 46> 510 20G<96 180 180 180> 598 133<1 185 1 185 91 205 91 275>
VStem: -5 185<-150 -22 -76 -22> 96 84<-18 530>
AnchorPoint: "Anchor-3" 138 530 basechar 0
AnchorPoint: "Anchor-0" 130 -150 basechar 0
LayerCount: 2
Fore
SplineSet
1 598 m 1xf0
 91 731 l 1
 185 731 l 1
 275 598 l 1
 205 598 l 1
 138 687 l 1
 71 598 l 1
 1 598 l 1xf0
-5 -150 m 1
 -5 -76 l 1xf0
 38 -76 l 2
 73 -76 96 -62 96 -18 c 2
 96 530 l 1
 180 530 l 1
 180 -22 l 2xe8
 180 -116 142 -150 46 -150 c 2
 -5 -150 l 1
EndSplineSet
EndChar

StartChar: k
Encoding: 107 107 232
Width: 590
GlyphClass: 2
Flags: MW
HStem: 0 21G<80 80 80 164 441 441 441 543> 510 20G<422 534 534 534> 690 20G<80 164 164 164>
VStem: 80 84<0 138 245 710>
AnchorPoint: "Anchor-3" 122 670 basechar 0
AnchorPoint: "Anchor-0" 295 0 basechar 0
LayerCount: 2
Fore
SplineSet
80 0 m 1
 80 710 l 1
 164 710 l 1
 164 245 l 1
 422 530 l 1
 534 530 l 1
 325 305 l 1
 543 0 l 1
 441 0 l 1
 268 248 l 1
 164 138 l 1
 164 0 l 1
 80 0 l 1
EndSplineSet
EndChar

StartChar: uni01E9
Encoding: 489 489 233
Width: 590
GlyphClass: 2
Flags: MW
HStem: 0 21G<80 80 80 164 441 441 441 543> 510 20G<422 534 534 534> 690 20G<80 164 164 164> 738 133<-15 169 -15 75>
VStem: 80 84<0 138 245 710>
AnchorPoint: "Anchor-3" 122 670 basechar 0
AnchorPoint: "Anchor-0" 295 0 basechar 0
LayerCount: 2
Fore
SplineSet
-15 871 m 1
 55 871 l 1
 122 782 l 1
 189 871 l 1
 259 871 l 1
 169 738 l 1
 75 738 l 1
 -15 871 l 1
80 0 m 1
 80 710 l 1
 164 710 l 1xe8
 164 245 l 1
 422 530 l 1
 534 530 l 1
 325 305 l 1
 543 0 l 1
 441 0 l 1
 268 248 l 1
 164 138 l 1
 164 0 l 1
 80 0 l 1
EndSplineSet
EndChar

StartChar: uni0137
Encoding: 311 311 234
Width: 590
GlyphClass: 2
Flags: MW
HStem: -143 90<245 281 245 345> 0 21G<80 80 80 164 441 441 441 543> 510 20G<422 534 534 534> 690 20G<80 164 164 164>
VStem: 80 84<0 138 245 710> 245 100<-135 -53 -135 -53 -135 -53>
AnchorPoint: "Anchor-3" 122 670 basechar 0
AnchorPoint: "Anchor-0" 295 -240 basechar 0
LayerCount: 2
Fore
SplineSet
80 0 m 1
 80 710 l 1
 164 710 l 1
 164 245 l 1
 422 530 l 1
 534 530 l 1
 325 305 l 1
 543 0 l 1
 441 0 l 1
 268 248 l 1
 164 138 l 1
 164 0 l 1
 80 0 l 1
226 -240 m 1
 281 -143 l 1
 245 -143 l 1
 245 -53 l 1
 345 -53 l 1
 345 -135 l 1
 284 -240 l 1
 226 -240 l 1
EndSplineSet
EndChar

StartChar: l
Encoding: 108 108 235
Width: 267
GlyphClass: 2
Flags: MW
HStem: 0 74<153 243 197 243 197 243> 690 20G<80 164 164 164>
VStem: 80 84<100 107 107 710>
AnchorPoint: "Anchor-4" 194 530 basechar 0
AnchorPoint: "Anchor-3" 122 670 basechar 0
AnchorPoint: "Anchor-1" 121 405 basechar 0
AnchorPoint: "Anchor-0" 165 0 basechar 0
LayerCount: 2
Fore
SplineSet
184 0 m 2
 122 0 80 30 80 100 c 2
 80 710 l 1
 164 710 l 1
 164 107 l 2
 164 85 175 74 197 74 c 2
 243 74 l 1
 243 0 l 1
 184 0 l 2
EndSplineSet
Substitution2: "'ss03' Style Set 3 in Latin lookup 36 subtable" l.ss03
Substitution2: "'aalt' Access All Alternates in Latin lookup 0 subtable" l.ss03
EndChar

StartChar: lacute
Encoding: 314 314 236
Width: 267
GlyphClass: 2
Flags: MW
HStem: 0 74<153 243 197 243 197 243> 690 20G<80 164 164 164> 738 128<85 245 151 155>
VStem: 80 84<100 107 107 710>
AnchorPoint: "Anchor-4" 194 530 basechar 0
AnchorPoint: "Anchor-3" 122 670 basechar 0
AnchorPoint: "Anchor-1" 121 405 basechar 0
AnchorPoint: "Anchor-0" 165 0 basechar 0
LayerCount: 2
Fore
SplineSet
85 738 m 1
 151 866 l 1
 245 866 l 1
 155 738 l 1
 85 738 l 1
184 0 m 2
 122 0 80 30 80 100 c 2
 80 710 l 1
 164 710 l 1xd0
 164 107 l 2
 164 85 175 74 197 74 c 2
 243 74 l 1
 243 0 l 1
 184 0 l 2
EndSplineSet
Substitution2: "'ss03' Style Set 3 in Latin lookup 36 subtable" lacute.ss03
Substitution2: "'aalt' Access All Alternates in Latin lookup 0 subtable" lacute.ss03
EndChar

StartChar: lcaron
Encoding: 318 318 237
Width: 318
GlyphClass: 2
Flags: MW
HStem: 0 74<153 243 197 243 197 243> 455 255<80 224 254 286> 690 20G<80 164 164 164 254 338 338 338>
VStem: 80 84<100 107 107 710>
AnchorPoint: "Anchor-4" 194 530 basechar 0
AnchorPoint: "Anchor-3" 122 670 basechar 0
AnchorPoint: "Anchor-1" 121 405 basechar 0
AnchorPoint: "Anchor-0" 165 0 basechar 0
LayerCount: 2
Fore
SplineSet
184 0 m 2xb0
 122 0 80 30 80 100 c 2
 80 710 l 1
 164 710 l 1
 164 107 l 2
 164 85 175 74 197 74 c 2
 243 74 l 1
 243 0 l 1
 184 0 l 2xb0
224 455 m 1xd0
 254 710 l 1
 338 710 l 1
 286 455 l 1
 224 455 l 1xd0
EndSplineSet
Substitution2: "'ss03' Style Set 3 in Latin lookup 36 subtable" lcaron.ss03
Substitution2: "'aalt' Access All Alternates in Latin lookup 0 subtable" lcaron.ss03
EndChar

StartChar: uni013C
Encoding: 316 316 238
Width: 267
GlyphClass: 2
Flags: MW
HStem: -143 90<115 151 115 215> 0 74<153 243 197 243 197 243> 690 20G<80 164 164 164>
VStem: 80 84<100 107 107 710> 115 100<-135 -53 -135 -53 -135 -53> 115 128<-143 74 -53 74>
AnchorPoint: "Anchor-4" 194 530 basechar 0
AnchorPoint: "Anchor-3" 122 670 basechar 0
AnchorPoint: "Anchor-1" 121 405 basechar 0
AnchorPoint: "Anchor-0" 165 -240 basechar 0
LayerCount: 2
Fore
SplineSet
184 0 m 2xe4
 122 0 80 30 80 100 c 2
 80 710 l 1
 164 710 l 1
 164 107 l 2xf0
 164 85 175 74 197 74 c 2
 243 74 l 1
 243 0 l 1
 184 0 l 2xe4
96 -240 m 1
 151 -143 l 1
 115 -143 l 1
 115 -53 l 1
 215 -53 l 1
 215 -135 l 1xe8
 154 -240 l 1
 96 -240 l 1
EndSplineSet
Substitution2: "'ss03' Style Set 3 in Latin lookup 36 subtable" uni013C.ss03
Substitution2: "'locl' Localized Forms in Latin lookup 11 subtable" uni013C.loclMAH
AlternateSubs2: "'aalt' Access All Alternates in Latin lookup 1 subtable" uni013C.loclMAH uni013C.ss03
EndChar

StartChar: lslash
Encoding: 322 322 239
Width: 267
GlyphClass: 2
Flags: MW
HStem: 0 74<153 243 197 243 197 243> 690 20G<80 164 164 164>
VStem: 80 84<100 107 107 351 351 351 460 710>
AnchorPoint: "Anchor-4" 194 530 basechar 0
AnchorPoint: "Anchor-3" 122 670 basechar 0
AnchorPoint: "Anchor-1" 121 405 basechar 0
AnchorPoint: "Anchor-0" 165 0 basechar 0
LayerCount: 2
Fore
SplineSet
184 0 m 2
 122 0 80 30 80 100 c 2
 80 351 l 1
 6 312 l 1
 6 378 l 1
 80 417 l 1
 80 710 l 1
 164 710 l 1
 164 460 l 1
 236 498 l 1
 236 432 l 1
 164 394 l 1
 164 107 l 2
 164 85 175 74 197 74 c 2
 243 74 l 1
 243 0 l 1
 184 0 l 2
EndSplineSet
Substitution2: "'ss03' Style Set 3 in Latin lookup 36 subtable" lslash.ss03
Substitution2: "'aalt' Access All Alternates in Latin lookup 0 subtable" lslash.ss03
EndChar

StartChar: m
Encoding: 109 109 240
Width: 877
GlyphClass: 2
Flags: MW
HStem: 0 21G<80 80 80 164 396 396 396 480 713 713 713 797> 468 74<274 326 583 638.5> 510 20G<80 157 157 157>
VStem: 80 78 80 84<0 317 0 530> 396 84<0 317 0 364> 713 84<0 323 323 341 0 371>
AnchorPoint: "Anchor-3" 438 530 basechar 0
AnchorPoint: "Anchor-0" 438 0 basechar 0
LayerCount: 2
Fore
SplineSet
80 0 m 1xce
 80 530 l 1xae
 157 530 l 1xb6
 159 437 l 1xd6
 185 502 240 542 308 542 c 0
 388 542 444 502 467 431 c 1
 490 502 544 542 622 542 c 0
 735 542 797 469 797 341 c 2
 797 0 l 1
 713 0 l 1
 713 323 l 2
 713 419 675 468 602 468 c 0
 528 468 480 412 480 317 c 2
 480 0 l 1
 396 0 l 1
 396 317 l 2
 396 411 365 468 287 468 c 0
 213 468 164 411 164 317 c 2
 164 0 l 1
 80 0 l 1xce
EndSplineSet
EndChar

StartChar: n
Encoding: 110 110 241
Width: 581
GlyphClass: 2
Flags: MW
HStem: 0 21G<80 80 80 164 417 417 417 501> 468 74<285.5 344> 510 20G<80 157 157 157>
VStem: 80 78 80 84<0 317 0 530> 417 84<0 317 317 341 0 366>
AnchorPoint: "Anchor-3" 291 530 basechar 0
AnchorPoint: "Anchor-0" 291 0 basechar 0
LayerCount: 2
Fore
SplineSet
80 0 m 1xcc
 80 530 l 1xac
 157 530 l 1xb4
 159 435 l 1xd4
 187 508 249 542 322 542 c 0
 443 542 501 453 501 341 c 2
 501 0 l 1
 417 0 l 1
 417 317 l 2
 417 415 384 468 304 468 c 0
 222 468 164 415 164 317 c 2
 164 0 l 1
 80 0 l 1xcc
EndSplineSet
EndChar

StartChar: nacute
Encoding: 324 324 242
Width: 581
GlyphClass: 2
Flags: MW
HStem: 0 21G<80 80 80 164 417 417 417 501> 468 74<285.5 344> 510 20G<80 157 157 157> 598 128<254 414 320 324>
VStem: 80 78 80 84<0 317 0 530> 417 84<0 317 317 341 0 366>
AnchorPoint: "Anchor-3" 291 530 basechar 0
AnchorPoint: "Anchor-0" 291 0 basechar 0
LayerCount: 2
Fore
SplineSet
254 598 m 1xd6
 320 726 l 1
 414 726 l 1
 324 598 l 1
 254 598 l 1xd6
80 0 m 1
 80 530 l 1xb6
 157 530 l 1xba
 159 435 l 1xda
 187 508 249 542 322 542 c 0
 443 542 501 453 501 341 c 2
 501 0 l 1
 417 0 l 1
 417 317 l 2
 417 415 384 468 304 468 c 0
 222 468 164 415 164 317 c 2
 164 0 l 1
 80 0 l 1
EndSplineSet
EndChar

StartChar: ncaron
Encoding: 328 328 243
Width: 581
GlyphClass: 2
Flags: MW
HStem: 0 21G<80 80 80 164 417 417 417 501> 468 74<285.5 344> 510 20G<80 157 157 157> 598 133<154 338 154 244>
VStem: 80 78 80 84<0 317 0 530> 417 84<0 317 317 341 0 366>
AnchorPoint: "Anchor-3" 291 530 basechar 0
AnchorPoint: "Anchor-0" 291 0 basechar 0
LayerCount: 2
Fore
SplineSet
154 731 m 1xd6
 224 731 l 1
 291 642 l 1
 358 731 l 1
 428 731 l 1
 338 598 l 1
 244 598 l 1
 154 731 l 1xd6
80 0 m 1
 80 530 l 1xb6
 157 530 l 1xba
 159 435 l 1xda
 187 508 249 542 322 542 c 0
 443 542 501 453 501 341 c 2
 501 0 l 1
 417 0 l 1
 417 317 l 2
 417 415 384 468 304 468 c 0
 222 468 164 415 164 317 c 2
 164 0 l 1
 80 0 l 1
EndSplineSet
EndChar

StartChar: uni0146
Encoding: 326 326 244
Width: 581
GlyphClass: 2
Flags: MW
HStem: -143 90<241 277 241 341> 0 21G<80 80 80 164 417 417 417 501> 468 74<285.5 344> 510 20G<80 157 157 157>
VStem: 80 78 80 84<0 317 0 530> 241 100<-135 -53 -135 -53 -135 -53> 417 84<0 317 317 341 0 366>
AnchorPoint: "Anchor-3" 291 530 basechar 0
AnchorPoint: "Anchor-0" 291 -240 basechar 0
LayerCount: 2
Fore
SplineSet
80 0 m 1xe7
 80 530 l 1xd7
 157 530 l 1xdb
 159 435 l 1xeb
 187 508 249 542 322 542 c 0
 443 542 501 453 501 341 c 2
 501 0 l 1
 417 0 l 1
 417 317 l 2
 417 415 384 468 304 468 c 0
 222 468 164 415 164 317 c 2
 164 0 l 1
 80 0 l 1xe7
222 -240 m 1
 277 -143 l 1
 241 -143 l 1
 241 -53 l 1
 341 -53 l 1
 341 -135 l 1
 280 -240 l 1
 222 -240 l 1
EndSplineSet
Substitution2: "'locl' Localized Forms in Latin lookup 11 subtable" uni0146.loclMAH
Substitution2: "'aalt' Access All Alternates in Latin lookup 0 subtable" uni0146.loclMAH
EndChar

StartChar: ntilde
Encoding: 241 241 245
Width: 581
GlyphClass: 2
Flags: MW
HStem: 0 21G<80 80 80 164 417 417 417 501> 468 74<285.5 344> 510 20G<80 157 157 157> 610 56<346 366.5 346 378.5> 664 56<216 238>
VStem: 80 78 80 84<0 317 0 530> 133 52<603 603> 396 52<730 730> 417 84<0 317 317 341 0 366>
AnchorPoint: "Anchor-3" 291 530 basechar 0
AnchorPoint: "Anchor-0" 291 0 basechar 0
LayerCount: 2
Fore
SplineSet
350 610 m 0xd280
 324 610 302 620 280 638 c 0
 257 657 248 664 228 664 c 0
 204 664 187 651 185 603 c 1
 133 603 l 1
 135 680 174 720 228 720 c 0xc940
 260 720 281 709 304 690 c 0
 325 673 338 666 354 666 c 0
 379 666 392 680 396 730 c 1
 448 730 l 1
 444 654 407 610 350 610 c 0xd280
80 0 m 1xca40
 80 530 l 1xaa40
 157 530 l 1xac40
 159 435 l 1xcc40
 187 508 249 542 322 542 c 0
 443 542 501 453 501 341 c 2
 501 0 l 1
 417 0 l 1
 417 317 l 2
 417 415 384 468 304 468 c 0
 222 468 164 415 164 317 c 2
 164 0 l 1
 80 0 l 1xca40
EndSplineSet
EndChar

StartChar: eng
Encoding: 331 331 246
Width: 581
GlyphClass: 2
Flags: MW
HStem: -150 74<270 351 270 353> 0 21G<80 80 80 164> 468 74<285.5 344> 510 20G<80 157 157 157>
VStem: 80 78 80 84<0 317 0 530> 417 84<-8 -7 -7 317 317 341>
AnchorPoint: "Anchor-3" 291 530 basechar 0
AnchorPoint: "Anchor-0" 291 0 basechar 0
LayerCount: 2
Fore
SplineSet
80 0 m 1xe6
 80 530 l 1xd6
 157 530 l 1xda
 159 435 l 1xea
 187 508 249 542 322 542 c 0
 443 542 501 453 501 341 c 2
 501 -7 l 2
 501 -94 443 -150 351 -150 c 2
 270 -150 l 1
 270 -76 l 1
 353 -76 l 2
 392 -76 417 -49 417 -8 c 2
 417 317 l 2
 417 415 384 468 304 468 c 0
 222 468 164 415 164 317 c 2
 164 0 l 1
 80 0 l 1xe6
EndSplineSet
EndChar

StartChar: o
Encoding: 111 111 247
Width: 573
GlyphClass: 2
Flags: MW
HStem: -12 80<238 335.5 238 360> 462 80<238 335.5>
VStem: 44 88<203.5 326.5 203.5 349.5> 441 88<203.5 326.5>
AnchorPoint: "Anchor-3" 287 530 basechar 0
AnchorPoint: "Anchor-1" 287 265 basechar 0
AnchorPoint: "Anchor-0" 287 0 basechar 0
LayerCount: 2
Fore
SplineSet
287 -12 m 0
 140 -12 44 96 44 265 c 0
 44 434 140 542 287 542 c 0
 433 542 529 434 529 265 c 0
 529 96 433 -12 287 -12 c 0
287 68 m 0
 384 68 441 142 441 265 c 0
 441 388 384 462 287 462 c 0
 189 462 132 388 132 265 c 0
 132 142 189 68 287 68 c 0
EndSplineSet
Substitution2: "Single Substitution lookup 27 subtable" ordmasculine
Substitution2: "'aalt' Access All Alternates in Latin lookup 0 subtable" ordmasculine
EndChar

StartChar: oacute
Encoding: 243 243 248
Width: 573
GlyphClass: 2
Flags: MW
HStem: -12 80<238 335.5 238 360> 462 80<238 335.5> 598 128<250 410 316 320>
VStem: 44 88<203.5 326.5 203.5 349.5> 441 88<203.5 326.5>
AnchorPoint: "Anchor-3" 287 530 basechar 0
AnchorPoint: "Anchor-1" 287 265 basechar 0
AnchorPoint: "Anchor-0" 287 0 basechar 0
LayerCount: 2
Fore
SplineSet
250 598 m 1
 316 726 l 1
 410 726 l 1
 320 598 l 1
 250 598 l 1
287 -12 m 0
 140 -12 44 96 44 265 c 0
 44 434 140 542 287 542 c 0
 433 542 529 434 529 265 c 0
 529 96 433 -12 287 -12 c 0
287 68 m 0
 384 68 441 142 441 265 c 0
 441 388 384 462 287 462 c 0
 189 462 132 388 132 265 c 0
 132 142 189 68 287 68 c 0
EndSplineSet
EndChar

StartChar: ocircumflex
Encoding: 244 244 249
Width: 573
GlyphClass: 2
Flags: MW
HStem: -12 80<238 335.5 238 360> 462 80<238 335.5> 598 133<150 334 150 334 240 354 240 424>
VStem: 44 88<203.5 326.5 203.5 349.5> 441 88<203.5 326.5>
AnchorPoint: "Anchor-3" 287 530 basechar 0
AnchorPoint: "Anchor-1" 287 265 basechar 0
AnchorPoint: "Anchor-0" 287 0 basechar 0
LayerCount: 2
Fore
SplineSet
150 598 m 1
 240 731 l 1
 334 731 l 1
 424 598 l 1
 354 598 l 1
 287 687 l 1
 220 598 l 1
 150 598 l 1
287 -12 m 0
 140 -12 44 96 44 265 c 0
 44 434 140 542 287 542 c 0
 433 542 529 434 529 265 c 0
 529 96 433 -12 287 -12 c 0
287 68 m 0
 384 68 441 142 441 265 c 0
 441 388 384 462 287 462 c 0
 189 462 132 388 132 265 c 0
 132 142 189 68 287 68 c 0
EndSplineSet
EndChar

StartChar: odieresis
Encoding: 246 246 250
Width: 573
GlyphClass: 2
Flags: MW
HStem: -12 80<238 335.5 238 360> 462 80<238 335.5> 613 98<156 244 156 244 330 418 156 330>
VStem: 44 88<203.5 326.5 203.5 349.5> 156 88<613 711 613 711> 330 88<613 711 613 711> 441 88<203.5 326.5>
AnchorPoint: "Anchor-3" 287 530 basechar 0
AnchorPoint: "Anchor-1" 287 265 basechar 0
AnchorPoint: "Anchor-0" 287 0 basechar 0
LayerCount: 2
Fore
SplineSet
156 613 m 1
 156 711 l 1
 244 711 l 1
 244 613 l 1
 156 613 l 1
330 613 m 1
 330 711 l 1
 418 711 l 1
 418 613 l 1
 330 613 l 1
287 -12 m 0
 140 -12 44 96 44 265 c 0
 44 434 140 542 287 542 c 0
 433 542 529 434 529 265 c 0xf2
 529 96 433 -12 287 -12 c 0
287 68 m 0
 384 68 441 142 441 265 c 0
 441 388 384 462 287 462 c 0
 189 462 132 388 132 265 c 0
 132 142 189 68 287 68 c 0
EndSplineSet
Substitution2: "'ss08' Style Set 8 in Latin lookup 41 subtable" odieresis.ss08
Substitution2: "'aalt' Access All Alternates in Latin lookup 0 subtable" odieresis.ss08
EndChar

StartChar: ograve
Encoding: 242 242 251
Width: 573
GlyphClass: 2
Flags: MW
HStem: -12 80<238 335.5 238 360> 462 80<238 335.5> 603 128<256 256 256 260 166 326>
VStem: 44 88<203.5 326.5 203.5 349.5> 441 88<203.5 326.5>
AnchorPoint: "Anchor-3" 287 530 basechar 0
AnchorPoint: "Anchor-1" 287 265 basechar 0
AnchorPoint: "Anchor-0" 287 0 basechar 0
LayerCount: 2
Fore
SplineSet
256 603 m 1
 166 731 l 1
 260 731 l 1
 326 603 l 1
 256 603 l 1
287 -12 m 0
 140 -12 44 96 44 265 c 0
 44 434 140 542 287 542 c 0
 433 542 529 434 529 265 c 0
 529 96 433 -12 287 -12 c 0
287 68 m 0
 384 68 441 142 441 265 c 0
 441 388 384 462 287 462 c 0
 189 462 132 388 132 265 c 0
 132 142 189 68 287 68 c 0
EndSplineSet
EndChar

StartChar: ohungarumlaut
Encoding: 337 337 252
Width: 573
GlyphClass: 2
Flags: MW
HStem: -12 80<238 335.5 238 360> 462 80<238 335.5> 598 128<183 343 249 253 314 343 380 384 314 314>
VStem: 44 88<203.5 326.5 203.5 349.5> 441 88<203.5 326.5>
AnchorPoint: "Anchor-3" 287 530 basechar 0
AnchorPoint: "Anchor-1" 287 265 basechar 0
AnchorPoint: "Anchor-0" 287 0 basechar 0
LayerCount: 2
Fore
SplineSet
183 598 m 1
 249 726 l 1
 343 726 l 1
 253 598 l 1
 183 598 l 1
314 598 m 1
 380 726 l 1
 474 726 l 1
 384 598 l 1
 314 598 l 1
287 -12 m 0
 140 -12 44 96 44 265 c 0
 44 434 140 542 287 542 c 0
 433 542 529 434 529 265 c 0
 529 96 433 -12 287 -12 c 0
287 68 m 0
 384 68 441 142 441 265 c 0
 441 388 384 462 287 462 c 0
 189 462 132 388 132 265 c 0
 132 142 189 68 287 68 c 0
EndSplineSet
EndChar

StartChar: omacron
Encoding: 333 333 253
Width: 573
GlyphClass: 2
Flags: MW
HStem: -12 80<238 335.5 238 360> 462 80<238 335.5> 625 72<153 421 153 421>
VStem: 44 88<203.5 326.5 203.5 349.5> 153 268<625 697 625 697> 441 88<203.5 326.5>
AnchorPoint: "Anchor-3" 287 530 basechar 0
AnchorPoint: "Anchor-1" 287 265 basechar 0
AnchorPoint: "Anchor-0" 287 0 basechar 0
LayerCount: 2
Fore
SplineSet
153 625 m 1
 153 697 l 1
 421 697 l 1
 421 625 l 1
 153 625 l 1
287 -12 m 0
 140 -12 44 96 44 265 c 0
 44 434 140 542 287 542 c 0
 433 542 529 434 529 265 c 0xf4
 529 96 433 -12 287 -12 c 0
287 68 m 0
 384 68 441 142 441 265 c 0
 441 388 384 462 287 462 c 0
 189 462 132 388 132 265 c 0
 132 142 189 68 287 68 c 0
EndSplineSet
EndChar

StartChar: oslash
Encoding: 248 248 254
Width: 573
GlyphClass: 2
Flags: MW
HStem: -14 75<62 113 113 113 113 134> -12 80<271 335.5 271 360> 462 80<238 303>
VStem: 44 88<238.5 326.5 238.5 349.5> 441 88<203.5 291.5>
AnchorPoint: "Anchor-3" 287 530 basechar 0
AnchorPoint: "Anchor-1" 287 265 basechar 0
AnchorPoint: "Anchor-0" 287 0 basechar 0
LayerCount: 2
Fore
SplineSet
62 -14 m 1x78
 113 61 l 1xb8
 69 109 44 179 44 265 c 0
 44 434 140 542 287 542 c 0
 336 542 379 530 415 508 c 1
 439 544 l 1
 511 544 l 1
 461 469 l 1
 504 421 529 351 529 265 c 0
 529 96 433 -12 287 -12 c 0
 238 -12 195 0 159 22 c 1
 134 -14 l 1
 62 -14 l 1x78
132 265 m 0
 132 212 143 168 163 135 c 1
 368 439 l 1
 346 454 319 462 287 462 c 0
 189 462 132 388 132 265 c 0
287 68 m 0
 384 68 441 142 441 265 c 0
 441 318 430 362 410 395 c 1
 205 91 l 1x78
 227 76 255 68 287 68 c 0
EndSplineSet
EndChar

StartChar: otilde
Encoding: 245 245 255
Width: 573
GlyphClass: 2
Flags: MW
HStem: -12 80<238 335.5 238 360> 462 80<238 335.5> 610 56<342 362.5 342 374.5> 664 56<212 234>
VStem: 44 88<203.5 326.5 203.5 349.5> 129 52<603 603> 392 52<730 730> 441 88<203.5 326.5>
AnchorPoint: "Anchor-3" 287 530 basechar 0
AnchorPoint: "Anchor-1" 287 265 basechar 0
AnchorPoint: "Anchor-0" 287 0 basechar 0
LayerCount: 2
Fore
SplineSet
346 610 m 0xea
 320 610 298 620 276 638 c 0
 253 657 244 664 224 664 c 0
 200 664 183 651 181 603 c 1
 129 603 l 1
 131 680 170 720 224 720 c 0xd5
 256 720 277 709 300 690 c 0
 321 673 334 666 350 666 c 0
 375 666 388 680 392 730 c 1
 444 730 l 1
 440 654 403 610 346 610 c 0xea
287 -12 m 0
 140 -12 44 96 44 265 c 0xd9
 44 434 140 542 287 542 c 0
 433 542 529 434 529 265 c 0
 529 96 433 -12 287 -12 c 0
287 68 m 0
 384 68 441 142 441 265 c 0
 441 388 384 462 287 462 c 0
 189 462 132 388 132 265 c 0
 132 142 189 68 287 68 c 0
EndSplineSet
EndChar

StartChar: oe
Encoding: 339 339 256
Width: 958
GlyphClass: 2
Flags: MW
HStem: -12 80<238 330.5 639.5 718.5> 239 74<529 822 529 914 529 822> 462 80<238 330.5 213.5 335.5 639 719>
VStem: 44 88<203.5 326.5 203.5 349.5> 441 88<239 239 239 313 239 326.5> 822 92<239 313>
AnchorPoint: "Anchor-3" 481 530 basechar 0
AnchorPoint: "Anchor-2" 813 24 basechar 0
AnchorPoint: "Anchor-1" 287 265 basechar 0
AnchorPoint: "Anchor-0" 481 0 basechar 0
LayerCount: 2
Fore
SplineSet
287 -12 m 0
 140 -12 44 96 44 265 c 0
 44 434 140 542 287 542 c 0
 374 542 443 504 485 438 c 1
 526 504 593 542 680 542 c 0
 818 542 914 442 914 264 c 2
 914 239 l 1
 529 239 l 1
 535 125 592 68 684 68 c 0
 753 68 798 103 816 157 c 1
 906 150 l 1
 878 55 796 -12 684 -12 c 0
 595 -12 526 26 485 93 c 1
 443 26 374 -12 287 -12 c 0
287 68 m 0
 384 68 441 142 441 265 c 0
 441 388 384 462 287 462 c 0
 189 462 132 388 132 265 c 0
 132 142 189 68 287 68 c 0
529 313 m 1
 822 313 l 1
 814 415 758 462 680 462 c 0
 598 462 543 411 529 313 c 1
EndSplineSet
EndChar

StartChar: p
Encoding: 112 112 257
Width: 595
GlyphClass: 2
Flags: MW
HStem: -150 21G<80 80 80 164> -12 80<287.5 360 267.5 401> 462 80<286 360> 510 20G<80 158 158 158>
VStem: 80 78.5 80 84<-150 70 200 330> 463 88<203 327>
AnchorPoint: "Anchor-3" 299 530 basechar 0
AnchorPoint: "Anchor-0" 299 0 basechar 0
LayerCount: 2
Fore
SplineSet
80 -150 m 1xe6
 80 530 l 1xd6
 158 530 l 1xda
 159 449 l 1xea
 191 510 250 542 322 542 c 0
 480 542 551 411 551 265 c 0
 551 119 480 -12 322 -12 c 0
 253 -12 192 19 164 70 c 1
 164 -150 l 1
 80 -150 l 1xe6
314 68 m 0
 406 68 463 141 463 265 c 0
 463 389 406 462 314 462 c 0xe6
 222 462 164 395 164 265 c 0
 164 135 221 68 314 68 c 0
EndSplineSet
EndChar

StartChar: thorn
Encoding: 254 254 258
Width: 595
GlyphClass: 2
Flags: MW
HStem: -150 21G<80 80 80 166> -12 80<289 365 255.5 403.5> 466 76<289 365> 690 20G<80 166 166 166>
VStem: 80 77<215.5 316.5 215.5 710> 80 86<-150 64 463 710> 463 88<214.5 317.5>
AnchorPoint: "Anchor-3" 299 530 basechar 0
AnchorPoint: "Anchor-0" 299 0 basechar 0
LayerCount: 2
Fore
SplineSet
80 -150 m 1xf6
 80 710 l 1
 166 710 l 1
 166 463 l 1
 196 514 251 542 327 542 c 0
 480 542 551 411 551 265 c 0
 551 119 480 -12 327 -12 c 0
 251 -12 198 16 166 64 c 1
 166 -150 l 1
 80 -150 l 1xf6
310 68 m 0
 420 68 463 164 463 265 c 0
 463 370 420 466 310 466 c 0
 201 466 157 368 157 265 c 0xfa
 157 166 201 68 310 68 c 0
EndSplineSet
EndChar

StartChar: q
Encoding: 113 113 259
Width: 595
GlyphClass: 2
Flags: MW
HStem: -150 21G<431 515 431 431> -12 80<235 307.5> 462 80<235 309 194 327> 510 20G<437 515 515 515>
VStem: 44 88<203 327 203 338> 431 84<-150 70 70 70 200 330> 436.5 78.5
AnchorPoint: "Anchor-3" 282 530 basechar 0
AnchorPoint: "Anchor-0" 282 0 basechar 0
LayerCount: 2
Fore
SplineSet
515 -150 m 1xdc
 431 -150 l 1
 431 70 l 1
 403 19 342 -12 273 -12 c 0
 115 -12 44 119 44 265 c 0
 44 411 115 542 273 542 c 0xec
 345 542 404 510 436 449 c 1
 437 530 l 1xda
 515 530 l 1
 515 -150 l 1xdc
281 68 m 0
 374 68 431 135 431 265 c 0
 431 395 373 462 281 462 c 0
 189 462 132 389 132 265 c 0
 132 141 189 68 281 68 c 0
EndSplineSet
EndChar

